<svg width="1255" height="381" viewBox="0 0 1255 381" fill="none" xmlns="http://www.w3.org/2000/svg">
<rect width="1255" height="381" fill="white"/>
<path d="M1.07424 324.054C0.578959 324.219 0.130852 324.721 0.0270796 325.227C-0.175748 326.202 0.795937 327.176 1.76762 326.973C2.49874 326.821 3.06477 326.074 2.99402 325.369C2.94213 324.872 2.5695 324.361 2.09781 324.13C1.81007 323.992 1.36668 323.959 1.07424 324.054Z" fill="#B7B7B7"/>
<path d="M1.07424 270.054C0.578959 270.219 0.130852 270.721 0.0270796 271.227C-0.175748 272.202 0.795937 273.176 1.76762 272.973C2.49874 272.821 3.06477 272.074 2.99402 271.369C2.94213 270.872 2.5695 270.361 2.09781 270.13C1.81007 269.992 1.36668 269.959 1.07424 270.054Z" fill="#B7B7B7"/>
<path d="M1.07424 216.054C0.578959 216.219 0.130852 216.721 0.0270796 217.227C-0.175748 218.202 0.795937 219.176 1.76762 218.973C2.49874 218.821 3.06477 218.074 2.99402 217.369C2.94213 216.872 2.5695 216.361 2.09781 216.13C1.81007 215.992 1.36668 215.959 1.07424 216.054Z" fill="#B7B7B7"/>
<path d="M1.07424 108.054C0.578959 108.219 0.130852 108.721 0.0270796 109.227C-0.175748 110.202 0.795937 111.176 1.76762 110.973C2.49874 110.821 3.06477 110.074 2.99402 109.369C2.94213 108.872 2.5695 108.361 2.09781 108.13C1.81007 107.992 1.36668 107.959 1.07424 108.054Z" fill="#B7B7B7"/>
<path d="M1.07424 54.0538C0.578959 54.2194 0.130852 54.7209 0.0270796 55.2271C-0.175748 56.2017 0.795937 57.1763 1.76762 56.9728C2.49874 56.8214 3.06477 56.074 2.99402 55.369C2.94213 54.8723 2.5695 54.3613 2.09781 54.1295C1.81007 53.9923 1.36668 53.9592 1.07424 54.0538Z" fill="#B7B7B7"/>
<path d="M1.07424 0.0538343C0.578959 0.219418 0.130852 0.7209 0.0270796 1.22711C-0.175748 2.20169 0.795937 3.17627 1.76762 2.97284C2.49874 2.82145 3.06477 2.07396 2.99402 1.36904C2.94213 0.872291 2.5695 0.361347 2.09781 0.12953C1.81007 -0.00766827 1.36668 -0.040785 1.07424 0.0538343Z" fill="#B7B7B7"/>
<path d="M1.07424 162.054C0.578959 162.219 0.130852 162.721 0.0270796 163.227C-0.175748 164.202 0.795937 165.176 1.76762 164.973C2.49874 164.821 3.06477 164.074 2.99402 163.369C2.94213 162.872 2.5695 162.361 2.09781 162.13C1.81007 161.992 1.36668 161.959 1.07424 162.054Z" fill="#B7B7B7"/>
<path d="M1.07424 378.054C0.578959 378.219 0.130852 378.721 0.0270796 379.227C-0.175748 380.202 0.795937 381.176 1.76762 380.973C2.49874 380.821 3.06477 380.074 2.99402 379.369C2.94213 378.872 2.5695 378.361 2.09781 378.13C1.81007 377.992 1.36668 377.959 1.07424 378.054Z" fill="#B7B7B7"/>
<path d="M63.0742 324.054C62.579 324.219 62.1309 324.721 62.0271 325.227C61.8243 326.202 62.7959 327.176 63.7676 326.973C64.4987 326.821 65.0648 326.074 64.994 325.369C64.9421 324.872 64.5695 324.361 64.0978 324.13C63.8101 323.992 63.3667 323.959 63.0742 324.054Z" fill="#B7B7B7"/>
<path d="M63.0742 270.054C62.579 270.219 62.1309 270.721 62.0271 271.227C61.8243 272.202 62.7959 273.176 63.7676 272.973C64.4987 272.821 65.0648 272.074 64.994 271.369C64.9421 270.872 64.5695 270.361 64.0978 270.13C63.8101 269.992 63.3667 269.959 63.0742 270.054Z" fill="#B7B7B7"/>
<path d="M63.0742 216.054C62.579 216.219 62.1309 216.721 62.0271 217.227C61.8243 218.202 62.7959 219.176 63.7676 218.973C64.4987 218.821 65.0648 218.074 64.994 217.369C64.9421 216.872 64.5695 216.361 64.0978 216.13C63.8101 215.992 63.3667 215.959 63.0742 216.054Z" fill="#B7B7B7"/>
<path d="M63.0742 108.054C62.579 108.219 62.1309 108.721 62.0271 109.227C61.8243 110.202 62.7959 111.176 63.7676 110.973C64.4987 110.821 65.0648 110.074 64.994 109.369C64.9421 108.872 64.5695 108.361 64.0978 108.13C63.8101 107.992 63.3667 107.959 63.0742 108.054Z" fill="#B7B7B7"/>
<path d="M63.0742 54.0538C62.579 54.2194 62.1309 54.7209 62.0271 55.2271C61.8243 56.2017 62.7959 57.1763 63.7676 56.9728C64.4987 56.8214 65.0648 56.074 64.994 55.369C64.9421 54.8723 64.5695 54.3613 64.0978 54.1295C63.8101 53.9923 63.3667 53.9592 63.0742 54.0538Z" fill="#B7B7B7"/>
<path d="M63.0742 0.0538343C62.579 0.219418 62.1309 0.7209 62.0271 1.22711C61.8243 2.20169 62.7959 3.17627 63.7676 2.97284C64.4987 2.82145 65.0648 2.07396 64.994 1.36904C64.9421 0.872291 64.5695 0.361347 64.0978 0.12953C63.8101 -0.00766827 63.3667 -0.040785 63.0742 0.0538343Z" fill="#B7B7B7"/>
<path d="M63.0742 162.054C62.579 162.219 62.1309 162.721 62.0271 163.227C61.8243 164.202 62.7959 165.176 63.7676 164.973C64.4987 164.821 65.0648 164.074 64.994 163.369C64.9421 162.872 64.5695 162.361 64.0978 162.13C63.8101 161.992 63.3667 161.959 63.0742 162.054Z" fill="#B7B7B7"/>
<path d="M63.0742 378.054C62.579 378.219 62.1309 378.721 62.0271 379.227C61.8243 380.202 62.7959 381.176 63.7676 380.973C64.4987 380.821 65.0648 380.074 64.994 379.369C64.9421 378.872 64.5695 378.361 64.0978 378.13C63.8101 377.992 63.3667 377.959 63.0742 378.054Z" fill="#B7B7B7"/>
<path d="M32.0742 324.054C31.579 324.219 31.1309 324.721 31.0271 325.227C30.8243 326.202 31.7959 327.176 32.7676 326.973C33.4987 326.821 34.0648 326.074 33.994 325.369C33.9421 324.872 33.5695 324.361 33.0978 324.13C32.8101 323.992 32.3667 323.959 32.0742 324.054Z" fill="#B7B7B7"/>
<path d="M32.0742 270.054C31.579 270.219 31.1309 270.721 31.0271 271.227C30.8243 272.202 31.7959 273.176 32.7676 272.973C33.4987 272.821 34.0648 272.074 33.994 271.369C33.9421 270.872 33.5695 270.361 33.0978 270.13C32.8101 269.992 32.3667 269.959 32.0742 270.054Z" fill="#B7B7B7"/>
<path d="M32.0742 216.054C31.579 216.219 31.1309 216.721 31.0271 217.227C30.8243 218.202 31.7959 219.176 32.7676 218.973C33.4987 218.821 34.0648 218.074 33.994 217.369C33.9421 216.872 33.5695 216.361 33.0978 216.13C32.8101 215.992 32.3667 215.959 32.0742 216.054Z" fill="#B7B7B7"/>
<path d="M32.0742 108.054C31.579 108.219 31.1309 108.721 31.0271 109.227C30.8243 110.202 31.7959 111.176 32.7676 110.973C33.4987 110.821 34.0648 110.074 33.994 109.369C33.9421 108.872 33.5695 108.361 33.0978 108.13C32.8101 107.992 32.3667 107.959 32.0742 108.054Z" fill="#B7B7B7"/>
<path d="M32.0742 54.0538C31.579 54.2194 31.1309 54.7209 31.0271 55.2271C30.8243 56.2017 31.7959 57.1763 32.7676 56.9728C33.4987 56.8214 34.0648 56.074 33.994 55.369C33.9421 54.8723 33.5695 54.3613 33.0978 54.1295C32.8101 53.9923 32.3667 53.9592 32.0742 54.0538Z" fill="#B7B7B7"/>
<path d="M32.0742 0.0538343C31.579 0.219418 31.1309 0.7209 31.0271 1.22711C30.8243 2.20169 31.7959 3.17627 32.7676 2.97284C33.4987 2.82145 34.0648 2.07396 33.994 1.36904C33.9421 0.872291 33.5695 0.361347 33.0978 0.12953C32.8101 -0.00766827 32.3667 -0.040785 32.0742 0.0538343Z" fill="#B7B7B7"/>
<path d="M32.0742 162.054C31.579 162.219 31.1309 162.721 31.0271 163.227C30.8243 164.202 31.7959 165.176 32.7676 164.973C33.4987 164.821 34.0648 164.074 33.994 163.369C33.9421 162.872 33.5695 162.361 33.0978 162.13C32.8101 161.992 32.3667 161.959 32.0742 162.054Z" fill="#B7B7B7"/>
<path d="M32.0742 378.054C31.579 378.219 31.1309 378.721 31.0271 379.227C30.8243 380.202 31.7959 381.176 32.7676 380.973C33.4987 380.821 34.0648 380.074 33.994 379.369C33.9421 378.872 33.5695 378.361 33.0978 378.13C32.8101 377.992 32.3667 377.959 32.0742 378.054Z" fill="#B7B7B7"/>
<path d="M94.0742 324.054C93.579 324.219 93.1309 324.721 93.0271 325.227C92.8243 326.202 93.7959 327.176 94.7676 326.973C95.4987 326.821 96.0648 326.074 95.994 325.369C95.9421 324.872 95.5695 324.361 95.0978 324.13C94.8101 323.992 94.3667 323.959 94.0742 324.054Z" fill="#B7B7B7"/>
<path d="M94.0742 270.054C93.579 270.219 93.1309 270.721 93.0271 271.227C92.8243 272.202 93.7959 273.176 94.7676 272.973C95.4987 272.821 96.0648 272.074 95.994 271.369C95.9421 270.872 95.5695 270.361 95.0978 270.13C94.8101 269.992 94.3667 269.959 94.0742 270.054Z" fill="#B7B7B7"/>
<path d="M94.0742 216.054C93.579 216.219 93.1309 216.721 93.0271 217.227C92.8243 218.202 93.7959 219.176 94.7676 218.973C95.4987 218.821 96.0648 218.074 95.994 217.369C95.9421 216.872 95.5695 216.361 95.0978 216.13C94.8101 215.992 94.3667 215.959 94.0742 216.054Z" fill="#B7B7B7"/>
<path d="M94.0742 108.054C93.579 108.219 93.1309 108.721 93.0271 109.227C92.8243 110.202 93.7959 111.176 94.7676 110.973C95.4987 110.821 96.0648 110.074 95.994 109.369C95.9421 108.872 95.5695 108.361 95.0978 108.13C94.8101 107.992 94.3667 107.959 94.0742 108.054Z" fill="#B7B7B7"/>
<path d="M94.0742 54.0538C93.579 54.2194 93.1309 54.7209 93.0271 55.2271C92.8243 56.2017 93.7959 57.1763 94.7676 56.9728C95.4987 56.8214 96.0648 56.074 95.994 55.369C95.9421 54.8723 95.5695 54.3613 95.0978 54.1295C94.8101 53.9923 94.3667 53.9592 94.0742 54.0538Z" fill="#B7B7B7"/>
<path d="M94.0742 0.0538343C93.579 0.219418 93.1309 0.7209 93.0271 1.22711C92.8243 2.20169 93.7959 3.17627 94.7676 2.97284C95.4987 2.82145 96.0648 2.07396 95.994 1.36904C95.9421 0.872291 95.5695 0.361347 95.0978 0.12953C94.8101 -0.00766827 94.3667 -0.040785 94.0742 0.0538343Z" fill="#B7B7B7"/>
<path d="M94.0742 162.054C93.579 162.219 93.1309 162.721 93.0271 163.227C92.8243 164.202 93.7959 165.176 94.7676 164.973C95.4987 164.821 96.0648 164.074 95.994 163.369C95.9421 162.872 95.5695 162.361 95.0978 162.13C94.8101 161.992 94.3667 161.959 94.0742 162.054Z" fill="#B7B7B7"/>
<path d="M94.0742 378.054C93.579 378.219 93.1309 378.721 93.0271 379.227C92.8243 380.202 93.7959 381.176 94.7676 380.973C95.4987 380.821 96.0648 380.074 95.994 379.369C95.9421 378.872 95.5695 378.361 95.0978 378.13C94.8101 377.992 94.3667 377.959 94.0742 378.054Z" fill="#B7B7B7"/>
<path d="M156.074 324.054C155.579 324.219 155.131 324.721 155.027 325.227C154.824 326.202 155.796 327.176 156.768 326.973C157.499 326.821 158.065 326.074 157.994 325.369C157.942 324.872 157.569 324.361 157.098 324.13C156.81 323.992 156.367 323.959 156.074 324.054Z" fill="#B7B7B7"/>
<path d="M156.074 270.054C155.579 270.219 155.131 270.721 155.027 271.227C154.824 272.202 155.796 273.176 156.768 272.973C157.499 272.821 158.065 272.074 157.994 271.369C157.942 270.872 157.569 270.361 157.098 270.13C156.81 269.992 156.367 269.959 156.074 270.054Z" fill="#B7B7B7"/>
<path d="M156.074 216.054C155.579 216.219 155.131 216.721 155.027 217.227C154.824 218.202 155.796 219.176 156.768 218.973C157.499 218.821 158.065 218.074 157.994 217.369C157.942 216.872 157.569 216.361 157.098 216.13C156.81 215.992 156.367 215.959 156.074 216.054Z" fill="#B7B7B7"/>
<path d="M156.074 108.054C155.579 108.219 155.131 108.721 155.027 109.227C154.824 110.202 155.796 111.176 156.768 110.973C157.499 110.821 158.065 110.074 157.994 109.369C157.942 108.872 157.569 108.361 157.098 108.13C156.81 107.992 156.367 107.959 156.074 108.054Z" fill="#B7B7B7"/>
<path d="M156.074 54.0538C155.579 54.2194 155.131 54.7209 155.027 55.2271C154.824 56.2017 155.796 57.1763 156.768 56.9728C157.499 56.8214 158.065 56.074 157.994 55.369C157.942 54.8723 157.569 54.3613 157.098 54.1295C156.81 53.9923 156.367 53.9592 156.074 54.0538Z" fill="#B7B7B7"/>
<path d="M156.074 0.0538343C155.579 0.219418 155.131 0.7209 155.027 1.22711C154.824 2.20169 155.796 3.17627 156.768 2.97284C157.499 2.82145 158.065 2.07396 157.994 1.36904C157.942 0.872291 157.569 0.361347 157.098 0.12953C156.81 -0.00766827 156.367 -0.040785 156.074 0.0538343Z" fill="#B7B7B7"/>
<path d="M156.074 162.054C155.579 162.219 155.131 162.721 155.027 163.227C154.824 164.202 155.796 165.176 156.768 164.973C157.499 164.821 158.065 164.074 157.994 163.369C157.942 162.872 157.569 162.361 157.098 162.13C156.81 161.992 156.367 161.959 156.074 162.054Z" fill="#B7B7B7"/>
<path d="M156.074 378.054C155.579 378.219 155.131 378.721 155.027 379.227C154.824 380.202 155.796 381.176 156.768 380.973C157.499 380.821 158.065 380.074 157.994 379.369C157.942 378.872 157.569 378.361 157.098 378.13C156.81 377.992 156.367 377.959 156.074 378.054Z" fill="#B7B7B7"/>
<path d="M125.074 324.054C124.579 324.219 124.131 324.721 124.027 325.227C123.824 326.202 124.796 327.176 125.768 326.973C126.499 326.821 127.065 326.074 126.994 325.369C126.942 324.872 126.569 324.361 126.098 324.13C125.81 323.992 125.367 323.959 125.074 324.054Z" fill="#B7B7B7"/>
<path d="M125.074 270.054C124.579 270.219 124.131 270.721 124.027 271.227C123.824 272.202 124.796 273.176 125.768 272.973C126.499 272.821 127.065 272.074 126.994 271.369C126.942 270.872 126.569 270.361 126.098 270.13C125.81 269.992 125.367 269.959 125.074 270.054Z" fill="#B7B7B7"/>
<path d="M125.074 216.054C124.579 216.219 124.131 216.721 124.027 217.227C123.824 218.202 124.796 219.176 125.768 218.973C126.499 218.821 127.065 218.074 126.994 217.369C126.942 216.872 126.569 216.361 126.098 216.13C125.81 215.992 125.367 215.959 125.074 216.054Z" fill="#B7B7B7"/>
<path d="M125.074 108.054C124.579 108.219 124.131 108.721 124.027 109.227C123.824 110.202 124.796 111.176 125.768 110.973C126.499 110.821 127.065 110.074 126.994 109.369C126.942 108.872 126.569 108.361 126.098 108.13C125.81 107.992 125.367 107.959 125.074 108.054Z" fill="#B7B7B7"/>
<path d="M125.074 54.0538C124.579 54.2194 124.131 54.7209 124.027 55.2271C123.824 56.2017 124.796 57.1763 125.768 56.9728C126.499 56.8214 127.065 56.074 126.994 55.369C126.942 54.8723 126.569 54.3613 126.098 54.1295C125.81 53.9923 125.367 53.9592 125.074 54.0538Z" fill="#B7B7B7"/>
<path d="M125.074 0.0538343C124.579 0.219418 124.131 0.7209 124.027 1.22711C123.824 2.20169 124.796 3.17627 125.768 2.97284C126.499 2.82145 127.065 2.07396 126.994 1.36904C126.942 0.872291 126.569 0.361347 126.098 0.12953C125.81 -0.00766827 125.367 -0.040785 125.074 0.0538343Z" fill="#B7B7B7"/>
<path d="M125.074 162.054C124.579 162.219 124.131 162.721 124.027 163.227C123.824 164.202 124.796 165.176 125.768 164.973C126.499 164.821 127.065 164.074 126.994 163.369C126.942 162.872 126.569 162.361 126.098 162.13C125.81 161.992 125.367 161.959 125.074 162.054Z" fill="#B7B7B7"/>
<path d="M125.074 378.054C124.579 378.219 124.131 378.721 124.027 379.227C123.824 380.202 124.796 381.176 125.768 380.973C126.499 380.821 127.065 380.074 126.994 379.369C126.942 378.872 126.569 378.361 126.098 378.13C125.81 377.992 125.367 377.959 125.074 378.054Z" fill="#B7B7B7"/>
<path d="M191.074 324.054C190.579 324.219 190.131 324.721 190.027 325.227C189.824 326.202 190.796 327.176 191.768 326.973C192.499 326.821 193.065 326.074 192.994 325.369C192.942 324.872 192.569 324.361 192.098 324.13C191.81 323.992 191.367 323.959 191.074 324.054Z" fill="#B7B7B7"/>
<path d="M191.074 270.054C190.579 270.219 190.131 270.721 190.027 271.227C189.824 272.202 190.796 273.176 191.768 272.973C192.499 272.821 193.065 272.074 192.994 271.369C192.942 270.872 192.569 270.361 192.098 270.13C191.81 269.992 191.367 269.959 191.074 270.054Z" fill="#B7B7B7"/>
<path d="M191.074 216.054C190.579 216.219 190.131 216.721 190.027 217.227C189.824 218.202 190.796 219.176 191.768 218.973C192.499 218.821 193.065 218.074 192.994 217.369C192.942 216.872 192.569 216.361 192.098 216.13C191.81 215.992 191.367 215.959 191.074 216.054Z" fill="#B7B7B7"/>
<path d="M191.074 108.054C190.579 108.219 190.131 108.721 190.027 109.227C189.824 110.202 190.796 111.176 191.768 110.973C192.499 110.821 193.065 110.074 192.994 109.369C192.942 108.872 192.569 108.361 192.098 108.13C191.81 107.992 191.367 107.959 191.074 108.054Z" fill="#B7B7B7"/>
<path d="M191.074 54.0538C190.579 54.2194 190.131 54.7209 190.027 55.2271C189.824 56.2017 190.796 57.1763 191.768 56.9728C192.499 56.8214 193.065 56.074 192.994 55.369C192.942 54.8723 192.569 54.3613 192.098 54.1295C191.81 53.9923 191.367 53.9592 191.074 54.0538Z" fill="#B7B7B7"/>
<path d="M191.074 0.0538343C190.579 0.219418 190.131 0.7209 190.027 1.22711C189.824 2.20169 190.796 3.17627 191.768 2.97284C192.499 2.82145 193.065 2.07396 192.994 1.36904C192.942 0.872291 192.569 0.361347 192.098 0.12953C191.81 -0.00766827 191.367 -0.040785 191.074 0.0538343Z" fill="#B7B7B7"/>
<path d="M191.074 162.054C190.579 162.219 190.131 162.721 190.027 163.227C189.824 164.202 190.796 165.176 191.768 164.973C192.499 164.821 193.065 164.074 192.994 163.369C192.942 162.872 192.569 162.361 192.098 162.13C191.81 161.992 191.367 161.959 191.074 162.054Z" fill="#B7B7B7"/>
<path d="M191.074 378.054C190.579 378.219 190.131 378.721 190.027 379.227C189.824 380.202 190.796 381.176 191.768 380.973C192.499 380.821 193.065 380.074 192.994 379.369C192.942 378.872 192.569 378.361 192.098 378.13C191.81 377.992 191.367 377.959 191.074 378.054Z" fill="#B7B7B7"/>
<path d="M253.074 324.054C252.579 324.219 252.131 324.721 252.027 325.227C251.824 326.202 252.796 327.176 253.768 326.973C254.499 326.821 255.065 326.074 254.994 325.369C254.942 324.872 254.569 324.361 254.098 324.13C253.81 323.992 253.367 323.959 253.074 324.054Z" fill="#B7B7B7"/>
<path d="M253.074 270.054C252.579 270.219 252.131 270.721 252.027 271.227C251.824 272.202 252.796 273.176 253.768 272.973C254.499 272.821 255.065 272.074 254.994 271.369C254.942 270.872 254.569 270.361 254.098 270.13C253.81 269.992 253.367 269.959 253.074 270.054Z" fill="#B7B7B7"/>
<path d="M253.074 216.054C252.579 216.219 252.131 216.721 252.027 217.227C251.824 218.202 252.796 219.176 253.768 218.973C254.499 218.821 255.065 218.074 254.994 217.369C254.942 216.872 254.569 216.361 254.098 216.13C253.81 215.992 253.367 215.959 253.074 216.054Z" fill="#B7B7B7"/>
<path d="M253.074 108.054C252.579 108.219 252.131 108.721 252.027 109.227C251.824 110.202 252.796 111.176 253.768 110.973C254.499 110.821 255.065 110.074 254.994 109.369C254.942 108.872 254.569 108.361 254.098 108.13C253.81 107.992 253.367 107.959 253.074 108.054Z" fill="#B7B7B7"/>
<path d="M253.074 54.0538C252.579 54.2194 252.131 54.7209 252.027 55.2271C251.824 56.2017 252.796 57.1763 253.768 56.9728C254.499 56.8214 255.065 56.074 254.994 55.369C254.942 54.8723 254.569 54.3613 254.098 54.1295C253.81 53.9923 253.367 53.9592 253.074 54.0538Z" fill="#B7B7B7"/>
<path d="M253.074 0.0538343C252.579 0.219418 252.131 0.7209 252.027 1.22711C251.824 2.20169 252.796 3.17627 253.768 2.97284C254.499 2.82145 255.065 2.07396 254.994 1.36904C254.942 0.872291 254.569 0.361347 254.098 0.12953C253.81 -0.00766827 253.367 -0.040785 253.074 0.0538343Z" fill="#B7B7B7"/>
<path d="M253.074 162.054C252.579 162.219 252.131 162.721 252.027 163.227C251.824 164.202 252.796 165.176 253.768 164.973C254.499 164.821 255.065 164.074 254.994 163.369C254.942 162.872 254.569 162.361 254.098 162.13C253.81 161.992 253.367 161.959 253.074 162.054Z" fill="#B7B7B7"/>
<path d="M253.074 378.054C252.579 378.219 252.131 378.721 252.027 379.227C251.824 380.202 252.796 381.176 253.768 380.973C254.499 380.821 255.065 380.074 254.994 379.369C254.942 378.872 254.569 378.361 254.098 378.13C253.81 377.992 253.367 377.959 253.074 378.054Z" fill="#B7B7B7"/>
<path d="M222.074 324.054C221.579 324.219 221.131 324.721 221.027 325.227C220.824 326.202 221.796 327.176 222.768 326.973C223.499 326.821 224.065 326.074 223.994 325.369C223.942 324.872 223.569 324.361 223.098 324.13C222.81 323.992 222.367 323.959 222.074 324.054Z" fill="#B7B7B7"/>
<path d="M222.074 270.054C221.579 270.219 221.131 270.721 221.027 271.227C220.824 272.202 221.796 273.176 222.768 272.973C223.499 272.821 224.065 272.074 223.994 271.369C223.942 270.872 223.569 270.361 223.098 270.13C222.81 269.992 222.367 269.959 222.074 270.054Z" fill="#B7B7B7"/>
<path d="M222.074 216.054C221.579 216.219 221.131 216.721 221.027 217.227C220.824 218.202 221.796 219.176 222.768 218.973C223.499 218.821 224.065 218.074 223.994 217.369C223.942 216.872 223.569 216.361 223.098 216.13C222.81 215.992 222.367 215.959 222.074 216.054Z" fill="#B7B7B7"/>
<path d="M222.074 108.054C221.579 108.219 221.131 108.721 221.027 109.227C220.824 110.202 221.796 111.176 222.768 110.973C223.499 110.821 224.065 110.074 223.994 109.369C223.942 108.872 223.569 108.361 223.098 108.13C222.81 107.992 222.367 107.959 222.074 108.054Z" fill="#B7B7B7"/>
<path d="M222.074 54.0538C221.579 54.2194 221.131 54.7209 221.027 55.2271C220.824 56.2017 221.796 57.1763 222.768 56.9728C223.499 56.8214 224.065 56.074 223.994 55.369C223.942 54.8723 223.569 54.3613 223.098 54.1295C222.81 53.9923 222.367 53.9592 222.074 54.0538Z" fill="#B7B7B7"/>
<path d="M222.074 0.0538343C221.579 0.219418 221.131 0.7209 221.027 1.22711C220.824 2.20169 221.796 3.17627 222.768 2.97284C223.499 2.82145 224.065 2.07396 223.994 1.36904C223.942 0.872291 223.569 0.361347 223.098 0.12953C222.81 -0.00766827 222.367 -0.040785 222.074 0.0538343Z" fill="#B7B7B7"/>
<path d="M222.074 162.054C221.579 162.219 221.131 162.721 221.027 163.227C220.824 164.202 221.796 165.176 222.768 164.973C223.499 164.821 224.065 164.074 223.994 163.369C223.942 162.872 223.569 162.361 223.098 162.13C222.81 161.992 222.367 161.959 222.074 162.054Z" fill="#B7B7B7"/>
<path d="M222.074 378.054C221.579 378.219 221.131 378.721 221.027 379.227C220.824 380.202 221.796 381.176 222.768 380.973C223.499 380.821 224.065 380.074 223.994 379.369C223.942 378.872 223.569 378.361 223.098 378.13C222.81 377.992 222.367 377.959 222.074 378.054Z" fill="#B7B7B7"/>
<path d="M284.074 324.054C283.579 324.219 283.131 324.721 283.027 325.227C282.824 326.202 283.796 327.176 284.768 326.973C285.499 326.821 286.065 326.074 285.994 325.369C285.942 324.872 285.569 324.361 285.098 324.13C284.81 323.992 284.367 323.959 284.074 324.054Z" fill="#B7B7B7"/>
<path d="M284.074 270.054C283.579 270.219 283.131 270.721 283.027 271.227C282.824 272.202 283.796 273.176 284.768 272.973C285.499 272.821 286.065 272.074 285.994 271.369C285.942 270.872 285.569 270.361 285.098 270.13C284.81 269.992 284.367 269.959 284.074 270.054Z" fill="#B7B7B7"/>
<path d="M284.074 216.054C283.579 216.219 283.131 216.721 283.027 217.227C282.824 218.202 283.796 219.176 284.768 218.973C285.499 218.821 286.065 218.074 285.994 217.369C285.942 216.872 285.569 216.361 285.098 216.13C284.81 215.992 284.367 215.959 284.074 216.054Z" fill="#B7B7B7"/>
<path d="M284.074 108.054C283.579 108.219 283.131 108.721 283.027 109.227C282.824 110.202 283.796 111.176 284.768 110.973C285.499 110.821 286.065 110.074 285.994 109.369C285.942 108.872 285.569 108.361 285.098 108.13C284.81 107.992 284.367 107.959 284.074 108.054Z" fill="#B7B7B7"/>
<path d="M284.074 54.0538C283.579 54.2194 283.131 54.7209 283.027 55.2271C282.824 56.2017 283.796 57.1763 284.768 56.9728C285.499 56.8214 286.065 56.074 285.994 55.369C285.942 54.8723 285.569 54.3613 285.098 54.1295C284.81 53.9923 284.367 53.9592 284.074 54.0538Z" fill="#B7B7B7"/>
<path d="M284.074 0.0538343C283.579 0.219418 283.131 0.7209 283.027 1.22711C282.824 2.20169 283.796 3.17627 284.768 2.97284C285.499 2.82145 286.065 2.07396 285.994 1.36904C285.942 0.872291 285.569 0.361347 285.098 0.12953C284.81 -0.00766827 284.367 -0.040785 284.074 0.0538343Z" fill="#B7B7B7"/>
<path d="M284.074 162.054C283.579 162.219 283.131 162.721 283.027 163.227C282.824 164.202 283.796 165.176 284.768 164.973C285.499 164.821 286.065 164.074 285.994 163.369C285.942 162.872 285.569 162.361 285.098 162.13C284.81 161.992 284.367 161.959 284.074 162.054Z" fill="#B7B7B7"/>
<path d="M284.074 378.054C283.579 378.219 283.131 378.721 283.027 379.227C282.824 380.202 283.796 381.176 284.768 380.973C285.499 380.821 286.065 380.074 285.994 379.369C285.942 378.872 285.569 378.361 285.098 378.13C284.81 377.992 284.367 377.959 284.074 378.054Z" fill="#B7B7B7"/>
<path d="M346.074 324.054C345.579 324.219 345.131 324.721 345.027 325.227C344.824 326.202 345.796 327.176 346.768 326.973C347.499 326.821 348.065 326.074 347.994 325.369C347.942 324.872 347.569 324.361 347.098 324.13C346.81 323.992 346.367 323.959 346.074 324.054Z" fill="#B7B7B7"/>
<path d="M346.074 270.054C345.579 270.219 345.131 270.721 345.027 271.227C344.824 272.202 345.796 273.176 346.768 272.973C347.499 272.821 348.065 272.074 347.994 271.369C347.942 270.872 347.569 270.361 347.098 270.13C346.81 269.992 346.367 269.959 346.074 270.054Z" fill="#B7B7B7"/>
<path d="M346.074 216.054C345.579 216.219 345.131 216.721 345.027 217.227C344.824 218.202 345.796 219.176 346.768 218.973C347.499 218.821 348.065 218.074 347.994 217.369C347.942 216.872 347.569 216.361 347.098 216.13C346.81 215.992 346.367 215.959 346.074 216.054Z" fill="#B7B7B7"/>
<path d="M346.074 108.054C345.579 108.219 345.131 108.721 345.027 109.227C344.824 110.202 345.796 111.176 346.768 110.973C347.499 110.821 348.065 110.074 347.994 109.369C347.942 108.872 347.569 108.361 347.098 108.13C346.81 107.992 346.367 107.959 346.074 108.054Z" fill="#B7B7B7"/>
<path d="M346.074 54.0538C345.579 54.2194 345.131 54.7209 345.027 55.2271C344.824 56.2017 345.796 57.1763 346.768 56.9728C347.499 56.8214 348.065 56.074 347.994 55.369C347.942 54.8723 347.569 54.3613 347.098 54.1295C346.81 53.9923 346.367 53.9592 346.074 54.0538Z" fill="#B7B7B7"/>
<path d="M346.074 0.0538343C345.579 0.219418 345.131 0.7209 345.027 1.22711C344.824 2.20169 345.796 3.17627 346.768 2.97284C347.499 2.82145 348.065 2.07396 347.994 1.36904C347.942 0.872291 347.569 0.361347 347.098 0.12953C346.81 -0.00766827 346.367 -0.040785 346.074 0.0538343Z" fill="#B7B7B7"/>
<path d="M346.074 162.054C345.579 162.219 345.131 162.721 345.027 163.227C344.824 164.202 345.796 165.176 346.768 164.973C347.499 164.821 348.065 164.074 347.994 163.369C347.942 162.872 347.569 162.361 347.098 162.13C346.81 161.992 346.367 161.959 346.074 162.054Z" fill="#B7B7B7"/>
<path d="M346.074 378.054C345.579 378.219 345.131 378.721 345.027 379.227C344.824 380.202 345.796 381.176 346.768 380.973C347.499 380.821 348.065 380.074 347.994 379.369C347.942 378.872 347.569 378.361 347.098 378.13C346.81 377.992 346.367 377.959 346.074 378.054Z" fill="#B7B7B7"/>
<path d="M315.074 324.054C314.579 324.219 314.131 324.721 314.027 325.227C313.824 326.202 314.796 327.176 315.768 326.973C316.499 326.821 317.065 326.074 316.994 325.369C316.942 324.872 316.569 324.361 316.098 324.13C315.81 323.992 315.367 323.959 315.074 324.054Z" fill="#B7B7B7"/>
<path d="M315.074 270.054C314.579 270.219 314.131 270.721 314.027 271.227C313.824 272.202 314.796 273.176 315.768 272.973C316.499 272.821 317.065 272.074 316.994 271.369C316.942 270.872 316.569 270.361 316.098 270.13C315.81 269.992 315.367 269.959 315.074 270.054Z" fill="#B7B7B7"/>
<path d="M315.074 216.054C314.579 216.219 314.131 216.721 314.027 217.227C313.824 218.202 314.796 219.176 315.768 218.973C316.499 218.821 317.065 218.074 316.994 217.369C316.942 216.872 316.569 216.361 316.098 216.13C315.81 215.992 315.367 215.959 315.074 216.054Z" fill="#B7B7B7"/>
<path d="M315.074 108.054C314.579 108.219 314.131 108.721 314.027 109.227C313.824 110.202 314.796 111.176 315.768 110.973C316.499 110.821 317.065 110.074 316.994 109.369C316.942 108.872 316.569 108.361 316.098 108.13C315.81 107.992 315.367 107.959 315.074 108.054Z" fill="#B7B7B7"/>
<path d="M315.074 54.0538C314.579 54.2194 314.131 54.7209 314.027 55.2271C313.824 56.2017 314.796 57.1763 315.768 56.9728C316.499 56.8214 317.065 56.074 316.994 55.369C316.942 54.8723 316.569 54.3613 316.098 54.1295C315.81 53.9923 315.367 53.9592 315.074 54.0538Z" fill="#B7B7B7"/>
<path d="M315.074 0.0538343C314.579 0.219418 314.131 0.7209 314.027 1.22711C313.824 2.20169 314.796 3.17627 315.768 2.97284C316.499 2.82145 317.065 2.07396 316.994 1.36904C316.942 0.872291 316.569 0.361347 316.098 0.12953C315.81 -0.00766827 315.367 -0.040785 315.074 0.0538343Z" fill="#B7B7B7"/>
<path d="M315.074 162.054C314.579 162.219 314.131 162.721 314.027 163.227C313.824 164.202 314.796 165.176 315.768 164.973C316.499 164.821 317.065 164.074 316.994 163.369C316.942 162.872 316.569 162.361 316.098 162.13C315.81 161.992 315.367 161.959 315.074 162.054Z" fill="#B7B7B7"/>
<path d="M315.074 378.054C314.579 378.219 314.131 378.721 314.027 379.227C313.824 380.202 314.796 381.176 315.768 380.973C316.499 380.821 317.065 380.074 316.994 379.369C316.942 378.872 316.569 378.361 316.098 378.13C315.81 377.992 315.367 377.959 315.074 378.054Z" fill="#B7B7B7"/>
<path d="M377.074 324.054C376.579 324.219 376.131 324.721 376.027 325.227C375.824 326.202 376.796 327.176 377.768 326.973C378.499 326.821 379.065 326.074 378.994 325.369C378.942 324.872 378.569 324.361 378.098 324.13C377.81 323.992 377.367 323.959 377.074 324.054Z" fill="#B7B7B7"/>
<path d="M377.074 270.054C376.579 270.219 376.131 270.721 376.027 271.227C375.824 272.202 376.796 273.176 377.768 272.973C378.499 272.821 379.065 272.074 378.994 271.369C378.942 270.872 378.569 270.361 378.098 270.13C377.81 269.992 377.367 269.959 377.074 270.054Z" fill="#B7B7B7"/>
<path d="M377.074 216.054C376.579 216.219 376.131 216.721 376.027 217.227C375.824 218.202 376.796 219.176 377.768 218.973C378.499 218.821 379.065 218.074 378.994 217.369C378.942 216.872 378.569 216.361 378.098 216.13C377.81 215.992 377.367 215.959 377.074 216.054Z" fill="#B7B7B7"/>
<path d="M377.074 108.054C376.579 108.219 376.131 108.721 376.027 109.227C375.824 110.202 376.796 111.176 377.768 110.973C378.499 110.821 379.065 110.074 378.994 109.369C378.942 108.872 378.569 108.361 378.098 108.13C377.81 107.992 377.367 107.959 377.074 108.054Z" fill="#B7B7B7"/>
<path d="M377.074 54.0538C376.579 54.2194 376.131 54.7209 376.027 55.2271C375.824 56.2017 376.796 57.1763 377.768 56.9728C378.499 56.8214 379.065 56.074 378.994 55.369C378.942 54.8723 378.569 54.3613 378.098 54.1295C377.81 53.9923 377.367 53.9592 377.074 54.0538Z" fill="#B7B7B7"/>
<path d="M377.074 0.0538343C376.579 0.219418 376.131 0.7209 376.027 1.22711C375.824 2.20169 376.796 3.17627 377.768 2.97284C378.499 2.82145 379.065 2.07396 378.994 1.36904C378.942 0.872291 378.569 0.361347 378.098 0.12953C377.81 -0.00766827 377.367 -0.040785 377.074 0.0538343Z" fill="#B7B7B7"/>
<path d="M377.074 162.054C376.579 162.219 376.131 162.721 376.027 163.227C375.824 164.202 376.796 165.176 377.768 164.973C378.499 164.821 379.065 164.074 378.994 163.369C378.942 162.872 378.569 162.361 378.098 162.13C377.81 161.992 377.367 161.959 377.074 162.054Z" fill="#B7B7B7"/>
<path d="M377.074 378.054C376.579 378.219 376.131 378.721 376.027 379.227C375.824 380.202 376.796 381.176 377.768 380.973C378.499 380.821 379.065 380.074 378.994 379.369C378.942 378.872 378.569 378.361 378.098 378.13C377.81 377.992 377.367 377.959 377.074 378.054Z" fill="#B7B7B7"/>
<path d="M439.074 324.054C438.579 324.219 438.131 324.721 438.027 325.227C437.824 326.202 438.796 327.176 439.768 326.973C440.499 326.821 441.065 326.074 440.994 325.369C440.942 324.872 440.569 324.361 440.098 324.13C439.81 323.992 439.367 323.959 439.074 324.054Z" fill="#B7B7B7"/>
<path d="M439.074 270.054C438.579 270.219 438.131 270.721 438.027 271.227C437.824 272.202 438.796 273.176 439.768 272.973C440.499 272.821 441.065 272.074 440.994 271.369C440.942 270.872 440.569 270.361 440.098 270.13C439.81 269.992 439.367 269.959 439.074 270.054Z" fill="#B7B7B7"/>
<path d="M439.074 216.054C438.579 216.219 438.131 216.721 438.027 217.227C437.824 218.202 438.796 219.176 439.768 218.973C440.499 218.821 441.065 218.074 440.994 217.369C440.942 216.872 440.569 216.361 440.098 216.13C439.81 215.992 439.367 215.959 439.074 216.054Z" fill="#B7B7B7"/>
<path d="M439.074 108.054C438.579 108.219 438.131 108.721 438.027 109.227C437.824 110.202 438.796 111.176 439.768 110.973C440.499 110.821 441.065 110.074 440.994 109.369C440.942 108.872 440.569 108.361 440.098 108.13C439.81 107.992 439.367 107.959 439.074 108.054Z" fill="#B7B7B7"/>
<path d="M439.074 54.0538C438.579 54.2194 438.131 54.7209 438.027 55.2271C437.824 56.2017 438.796 57.1763 439.768 56.9728C440.499 56.8214 441.065 56.074 440.994 55.369C440.942 54.8723 440.569 54.3613 440.098 54.1295C439.81 53.9923 439.367 53.9592 439.074 54.0538Z" fill="#B7B7B7"/>
<path d="M439.074 0.0538343C438.579 0.219418 438.131 0.7209 438.027 1.22711C437.824 2.20169 438.796 3.17627 439.768 2.97284C440.499 2.82145 441.065 2.07396 440.994 1.36904C440.942 0.872291 440.569 0.361347 440.098 0.12953C439.81 -0.00766827 439.367 -0.040785 439.074 0.0538343Z" fill="#B7B7B7"/>
<path d="M439.074 162.054C438.579 162.219 438.131 162.721 438.027 163.227C437.824 164.202 438.796 165.176 439.768 164.973C440.499 164.821 441.065 164.074 440.994 163.369C440.942 162.872 440.569 162.361 440.098 162.13C439.81 161.992 439.367 161.959 439.074 162.054Z" fill="#B7B7B7"/>
<path d="M439.074 378.054C438.579 378.219 438.131 378.721 438.027 379.227C437.824 380.202 438.796 381.176 439.768 380.973C440.499 380.821 441.065 380.074 440.994 379.369C440.942 378.872 440.569 378.361 440.098 378.13C439.81 377.992 439.367 377.959 439.074 378.054Z" fill="#B7B7B7"/>
<path d="M408.074 324.054C407.579 324.219 407.131 324.721 407.027 325.227C406.824 326.202 407.796 327.176 408.768 326.973C409.499 326.821 410.065 326.074 409.994 325.369C409.942 324.872 409.569 324.361 409.098 324.13C408.81 323.992 408.367 323.959 408.074 324.054Z" fill="#B7B7B7"/>
<path d="M408.074 270.054C407.579 270.219 407.131 270.721 407.027 271.227C406.824 272.202 407.796 273.176 408.768 272.973C409.499 272.821 410.065 272.074 409.994 271.369C409.942 270.872 409.569 270.361 409.098 270.13C408.81 269.992 408.367 269.959 408.074 270.054Z" fill="#B7B7B7"/>
<path d="M408.074 216.054C407.579 216.219 407.131 216.721 407.027 217.227C406.824 218.202 407.796 219.176 408.768 218.973C409.499 218.821 410.065 218.074 409.994 217.369C409.942 216.872 409.569 216.361 409.098 216.13C408.81 215.992 408.367 215.959 408.074 216.054Z" fill="#B7B7B7"/>
<path d="M408.074 108.054C407.579 108.219 407.131 108.721 407.027 109.227C406.824 110.202 407.796 111.176 408.768 110.973C409.499 110.821 410.065 110.074 409.994 109.369C409.942 108.872 409.569 108.361 409.098 108.13C408.81 107.992 408.367 107.959 408.074 108.054Z" fill="#B7B7B7"/>
<path d="M408.074 54.0538C407.579 54.2194 407.131 54.7209 407.027 55.2271C406.824 56.2017 407.796 57.1763 408.768 56.9728C409.499 56.8214 410.065 56.074 409.994 55.369C409.942 54.8723 409.569 54.3613 409.098 54.1295C408.81 53.9923 408.367 53.9592 408.074 54.0538Z" fill="#B7B7B7"/>
<path d="M408.074 0.0538343C407.579 0.219418 407.131 0.7209 407.027 1.22711C406.824 2.20169 407.796 3.17627 408.768 2.97284C409.499 2.82145 410.065 2.07396 409.994 1.36904C409.942 0.872291 409.569 0.361347 409.098 0.12953C408.81 -0.00766827 408.367 -0.040785 408.074 0.0538343Z" fill="#B7B7B7"/>
<path d="M408.074 162.054C407.579 162.219 407.131 162.721 407.027 163.227C406.824 164.202 407.796 165.176 408.768 164.973C409.499 164.821 410.065 164.074 409.994 163.369C409.942 162.872 409.569 162.361 409.098 162.13C408.81 161.992 408.367 161.959 408.074 162.054Z" fill="#B7B7B7"/>
<path d="M408.074 378.054C407.579 378.219 407.131 378.721 407.027 379.227C406.824 380.202 407.796 381.176 408.768 380.973C409.499 380.821 410.065 380.074 409.994 379.369C409.942 378.872 409.569 378.361 409.098 378.13C408.81 377.992 408.367 377.959 408.074 378.054Z" fill="#B7B7B7"/>
<path d="M470.074 324.054C469.579 324.219 469.131 324.721 469.027 325.227C468.824 326.202 469.796 327.176 470.768 326.973C471.499 326.821 472.065 326.074 471.994 325.369C471.942 324.872 471.569 324.361 471.098 324.13C470.81 323.992 470.367 323.959 470.074 324.054Z" fill="#B7B7B7"/>
<path d="M470.074 270.054C469.579 270.219 469.131 270.721 469.027 271.227C468.824 272.202 469.796 273.176 470.768 272.973C471.499 272.821 472.065 272.074 471.994 271.369C471.942 270.872 471.569 270.361 471.098 270.13C470.81 269.992 470.367 269.959 470.074 270.054Z" fill="#B7B7B7"/>
<path d="M470.074 216.054C469.579 216.219 469.131 216.721 469.027 217.227C468.824 218.202 469.796 219.176 470.768 218.973C471.499 218.821 472.065 218.074 471.994 217.369C471.942 216.872 471.569 216.361 471.098 216.13C470.81 215.992 470.367 215.959 470.074 216.054Z" fill="#B7B7B7"/>
<path d="M470.074 108.054C469.579 108.219 469.131 108.721 469.027 109.227C468.824 110.202 469.796 111.176 470.768 110.973C471.499 110.821 472.065 110.074 471.994 109.369C471.942 108.872 471.569 108.361 471.098 108.13C470.81 107.992 470.367 107.959 470.074 108.054Z" fill="#B7B7B7"/>
<path d="M470.074 54.0538C469.579 54.2194 469.131 54.7209 469.027 55.2271C468.824 56.2017 469.796 57.1763 470.768 56.9728C471.499 56.8214 472.065 56.074 471.994 55.369C471.942 54.8723 471.569 54.3613 471.098 54.1295C470.81 53.9923 470.367 53.9592 470.074 54.0538Z" fill="#B7B7B7"/>
<path d="M470.074 0.0538343C469.579 0.219418 469.131 0.7209 469.027 1.22711C468.824 2.20169 469.796 3.17627 470.768 2.97284C471.499 2.82145 472.065 2.07396 471.994 1.36904C471.942 0.872291 471.569 0.361347 471.098 0.12953C470.81 -0.00766827 470.367 -0.040785 470.074 0.0538343Z" fill="#B7B7B7"/>
<path d="M470.074 162.054C469.579 162.219 469.131 162.721 469.027 163.227C468.824 164.202 469.796 165.176 470.768 164.973C471.499 164.821 472.065 164.074 471.994 163.369C471.942 162.872 471.569 162.361 471.098 162.13C470.81 161.992 470.367 161.959 470.074 162.054Z" fill="#B7B7B7"/>
<path d="M470.074 378.054C469.579 378.219 469.131 378.721 469.027 379.227C468.824 380.202 469.796 381.176 470.768 380.973C471.499 380.821 472.065 380.074 471.994 379.369C471.942 378.872 471.569 378.361 471.098 378.13C470.81 377.992 470.367 377.959 470.074 378.054Z" fill="#B7B7B7"/>
<path d="M532.074 324.054C531.579 324.219 531.131 324.721 531.027 325.227C530.824 326.202 531.796 327.176 532.768 326.973C533.499 326.821 534.065 326.074 533.994 325.369C533.942 324.872 533.569 324.361 533.098 324.13C532.81 323.992 532.367 323.959 532.074 324.054Z" fill="#B7B7B7"/>
<path d="M532.074 270.054C531.579 270.219 531.131 270.721 531.027 271.227C530.824 272.202 531.796 273.176 532.768 272.973C533.499 272.821 534.065 272.074 533.994 271.369C533.942 270.872 533.569 270.361 533.098 270.13C532.81 269.992 532.367 269.959 532.074 270.054Z" fill="#B7B7B7"/>
<path d="M532.074 216.054C531.579 216.219 531.131 216.721 531.027 217.227C530.824 218.202 531.796 219.176 532.768 218.973C533.499 218.821 534.065 218.074 533.994 217.369C533.942 216.872 533.569 216.361 533.098 216.13C532.81 215.992 532.367 215.959 532.074 216.054Z" fill="#B7B7B7"/>
<path d="M532.074 108.054C531.579 108.219 531.131 108.721 531.027 109.227C530.824 110.202 531.796 111.176 532.768 110.973C533.499 110.821 534.065 110.074 533.994 109.369C533.942 108.872 533.569 108.361 533.098 108.13C532.81 107.992 532.367 107.959 532.074 108.054Z" fill="#B7B7B7"/>
<path d="M532.074 54.0538C531.579 54.2194 531.131 54.7209 531.027 55.2271C530.824 56.2017 531.796 57.1763 532.768 56.9728C533.499 56.8214 534.065 56.074 533.994 55.369C533.942 54.8723 533.569 54.3613 533.098 54.1295C532.81 53.9923 532.367 53.9592 532.074 54.0538Z" fill="#B7B7B7"/>
<path d="M532.074 0.0538343C531.579 0.219418 531.131 0.7209 531.027 1.22711C530.824 2.20169 531.796 3.17627 532.768 2.97284C533.499 2.82145 534.065 2.07396 533.994 1.36904C533.942 0.872291 533.569 0.361347 533.098 0.12953C532.81 -0.00766827 532.367 -0.040785 532.074 0.0538343Z" fill="#B7B7B7"/>
<path d="M532.074 162.054C531.579 162.219 531.131 162.721 531.027 163.227C530.824 164.202 531.796 165.176 532.768 164.973C533.499 164.821 534.065 164.074 533.994 163.369C533.942 162.872 533.569 162.361 533.098 162.13C532.81 161.992 532.367 161.959 532.074 162.054Z" fill="#B7B7B7"/>
<path d="M532.074 378.054C531.579 378.219 531.131 378.721 531.027 379.227C530.824 380.202 531.796 381.176 532.768 380.973C533.499 380.821 534.065 380.074 533.994 379.369C533.942 378.872 533.569 378.361 533.098 378.13C532.81 377.992 532.367 377.959 532.074 378.054Z" fill="#B7B7B7"/>
<path d="M501.074 324.054C500.579 324.219 500.131 324.721 500.027 325.227C499.824 326.202 500.796 327.176 501.768 326.973C502.499 326.821 503.065 326.074 502.994 325.369C502.942 324.872 502.569 324.361 502.098 324.13C501.81 323.992 501.367 323.959 501.074 324.054Z" fill="#B7B7B7"/>
<path d="M501.074 270.054C500.579 270.219 500.131 270.721 500.027 271.227C499.824 272.202 500.796 273.176 501.768 272.973C502.499 272.821 503.065 272.074 502.994 271.369C502.942 270.872 502.569 270.361 502.098 270.13C501.81 269.992 501.367 269.959 501.074 270.054Z" fill="#B7B7B7"/>
<path d="M501.074 216.054C500.579 216.219 500.131 216.721 500.027 217.227C499.824 218.202 500.796 219.176 501.768 218.973C502.499 218.821 503.065 218.074 502.994 217.369C502.942 216.872 502.569 216.361 502.098 216.13C501.81 215.992 501.367 215.959 501.074 216.054Z" fill="#B7B7B7"/>
<path d="M501.074 108.054C500.579 108.219 500.131 108.721 500.027 109.227C499.824 110.202 500.796 111.176 501.768 110.973C502.499 110.821 503.065 110.074 502.994 109.369C502.942 108.872 502.569 108.361 502.098 108.13C501.81 107.992 501.367 107.959 501.074 108.054Z" fill="#B7B7B7"/>
<path d="M501.074 54.0538C500.579 54.2194 500.131 54.7209 500.027 55.2271C499.824 56.2017 500.796 57.1763 501.768 56.9728C502.499 56.8214 503.065 56.074 502.994 55.369C502.942 54.8723 502.569 54.3613 502.098 54.1295C501.81 53.9923 501.367 53.9592 501.074 54.0538Z" fill="#B7B7B7"/>
<path d="M501.074 0.0538343C500.579 0.219418 500.131 0.7209 500.027 1.22711C499.824 2.20169 500.796 3.17627 501.768 2.97284C502.499 2.82145 503.065 2.07396 502.994 1.36904C502.942 0.872291 502.569 0.361347 502.098 0.12953C501.81 -0.00766827 501.367 -0.040785 501.074 0.0538343Z" fill="#B7B7B7"/>
<path d="M501.074 162.054C500.579 162.219 500.131 162.721 500.027 163.227C499.824 164.202 500.796 165.176 501.768 164.973C502.499 164.821 503.065 164.074 502.994 163.369C502.942 162.872 502.569 162.361 502.098 162.13C501.81 161.992 501.367 161.959 501.074 162.054Z" fill="#B7B7B7"/>
<path d="M501.074 378.054C500.579 378.219 500.131 378.721 500.027 379.227C499.824 380.202 500.796 381.176 501.768 380.973C502.499 380.821 503.065 380.074 502.994 379.369C502.942 378.872 502.569 378.361 502.098 378.13C501.81 377.992 501.367 377.959 501.074 378.054Z" fill="#B7B7B7"/>
<path d="M567.074 324.054C566.579 324.219 566.131 324.721 566.027 325.227C565.824 326.202 566.796 327.176 567.768 326.973C568.499 326.821 569.065 326.074 568.994 325.369C568.942 324.872 568.569 324.361 568.098 324.13C567.81 323.992 567.367 323.959 567.074 324.054Z" fill="#B7B7B7"/>
<path d="M567.074 270.054C566.579 270.219 566.131 270.721 566.027 271.227C565.824 272.202 566.796 273.176 567.768 272.973C568.499 272.821 569.065 272.074 568.994 271.369C568.942 270.872 568.569 270.361 568.098 270.13C567.81 269.992 567.367 269.959 567.074 270.054Z" fill="#B7B7B7"/>
<path d="M567.074 216.054C566.579 216.219 566.131 216.721 566.027 217.227C565.824 218.202 566.796 219.176 567.768 218.973C568.499 218.821 569.065 218.074 568.994 217.369C568.942 216.872 568.569 216.361 568.098 216.13C567.81 215.992 567.367 215.959 567.074 216.054Z" fill="#B7B7B7"/>
<path d="M567.074 108.054C566.579 108.219 566.131 108.721 566.027 109.227C565.824 110.202 566.796 111.176 567.768 110.973C568.499 110.821 569.065 110.074 568.994 109.369C568.942 108.872 568.569 108.361 568.098 108.13C567.81 107.992 567.367 107.959 567.074 108.054Z" fill="#B7B7B7"/>
<path d="M567.074 54.0538C566.579 54.2194 566.131 54.7209 566.027 55.2271C565.824 56.2017 566.796 57.1763 567.768 56.9728C568.499 56.8214 569.065 56.074 568.994 55.369C568.942 54.8723 568.569 54.3613 568.098 54.1295C567.81 53.9923 567.367 53.9592 567.074 54.0538Z" fill="#B7B7B7"/>
<path d="M567.074 0.0538343C566.579 0.219418 566.131 0.7209 566.027 1.22711C565.824 2.20169 566.796 3.17627 567.768 2.97284C568.499 2.82145 569.065 2.07396 568.994 1.36904C568.942 0.872291 568.569 0.361347 568.098 0.12953C567.81 -0.00766827 567.367 -0.040785 567.074 0.0538343Z" fill="#B7B7B7"/>
<path d="M567.074 162.054C566.579 162.219 566.131 162.721 566.027 163.227C565.824 164.202 566.796 165.176 567.768 164.973C568.499 164.821 569.065 164.074 568.994 163.369C568.942 162.872 568.569 162.361 568.098 162.13C567.81 161.992 567.367 161.959 567.074 162.054Z" fill="#B7B7B7"/>
<path d="M567.074 378.054C566.579 378.219 566.131 378.721 566.027 379.227C565.824 380.202 566.796 381.176 567.768 380.973C568.499 380.821 569.065 380.074 568.994 379.369C568.942 378.872 568.569 378.361 568.098 378.13C567.81 377.992 567.367 377.959 567.074 378.054Z" fill="#B7B7B7"/>
<path d="M629.074 324.054C628.579 324.219 628.131 324.721 628.027 325.227C627.824 326.202 628.796 327.176 629.768 326.973C630.499 326.821 631.065 326.074 630.994 325.369C630.942 324.872 630.569 324.361 630.098 324.13C629.81 323.992 629.367 323.959 629.074 324.054Z" fill="#B7B7B7"/>
<path d="M629.074 270.054C628.579 270.219 628.131 270.721 628.027 271.227C627.824 272.202 628.796 273.176 629.768 272.973C630.499 272.821 631.065 272.074 630.994 271.369C630.942 270.872 630.569 270.361 630.098 270.13C629.81 269.992 629.367 269.959 629.074 270.054Z" fill="#B7B7B7"/>
<path d="M629.074 216.054C628.579 216.219 628.131 216.721 628.027 217.227C627.824 218.202 628.796 219.176 629.768 218.973C630.499 218.821 631.065 218.074 630.994 217.369C630.942 216.872 630.569 216.361 630.098 216.13C629.81 215.992 629.367 215.959 629.074 216.054Z" fill="#B7B7B7"/>
<path d="M629.074 108.054C628.579 108.219 628.131 108.721 628.027 109.227C627.824 110.202 628.796 111.176 629.768 110.973C630.499 110.821 631.065 110.074 630.994 109.369C630.942 108.872 630.569 108.361 630.098 108.13C629.81 107.992 629.367 107.959 629.074 108.054Z" fill="#B7B7B7"/>
<path d="M629.074 54.0538C628.579 54.2194 628.131 54.7209 628.027 55.2271C627.824 56.2017 628.796 57.1763 629.768 56.9728C630.499 56.8214 631.065 56.074 630.994 55.369C630.942 54.8723 630.569 54.3613 630.098 54.1295C629.81 53.9923 629.367 53.9592 629.074 54.0538Z" fill="#B7B7B7"/>
<path d="M629.074 0.0538343C628.579 0.219418 628.131 0.7209 628.027 1.22711C627.824 2.20169 628.796 3.17627 629.768 2.97284C630.499 2.82145 631.065 2.07396 630.994 1.36904C630.942 0.872291 630.569 0.361347 630.098 0.12953C629.81 -0.00766827 629.367 -0.040785 629.074 0.0538343Z" fill="#B7B7B7"/>
<path d="M629.074 162.054C628.579 162.219 628.131 162.721 628.027 163.227C627.824 164.202 628.796 165.176 629.768 164.973C630.499 164.821 631.065 164.074 630.994 163.369C630.942 162.872 630.569 162.361 630.098 162.13C629.81 161.992 629.367 161.959 629.074 162.054Z" fill="#B7B7B7"/>
<path d="M629.074 378.054C628.579 378.219 628.131 378.721 628.027 379.227C627.824 380.202 628.796 381.176 629.768 380.973C630.499 380.821 631.065 380.074 630.994 379.369C630.942 378.872 630.569 378.361 630.098 378.13C629.81 377.992 629.367 377.959 629.074 378.054Z" fill="#B7B7B7"/>
<path d="M598.074 324.054C597.579 324.219 597.131 324.721 597.027 325.227C596.824 326.202 597.796 327.176 598.768 326.973C599.499 326.821 600.065 326.074 599.994 325.369C599.942 324.872 599.569 324.361 599.098 324.13C598.81 323.992 598.367 323.959 598.074 324.054Z" fill="#B7B7B7"/>
<path d="M598.074 270.054C597.579 270.219 597.131 270.721 597.027 271.227C596.824 272.202 597.796 273.176 598.768 272.973C599.499 272.821 600.065 272.074 599.994 271.369C599.942 270.872 599.569 270.361 599.098 270.13C598.81 269.992 598.367 269.959 598.074 270.054Z" fill="#B7B7B7"/>
<path d="M598.074 216.054C597.579 216.219 597.131 216.721 597.027 217.227C596.824 218.202 597.796 219.176 598.768 218.973C599.499 218.821 600.065 218.074 599.994 217.369C599.942 216.872 599.569 216.361 599.098 216.13C598.81 215.992 598.367 215.959 598.074 216.054Z" fill="#B7B7B7"/>
<path d="M598.074 108.054C597.579 108.219 597.131 108.721 597.027 109.227C596.824 110.202 597.796 111.176 598.768 110.973C599.499 110.821 600.065 110.074 599.994 109.369C599.942 108.872 599.569 108.361 599.098 108.13C598.81 107.992 598.367 107.959 598.074 108.054Z" fill="#B7B7B7"/>
<path d="M598.074 54.0538C597.579 54.2194 597.131 54.7209 597.027 55.2271C596.824 56.2017 597.796 57.1763 598.768 56.9728C599.499 56.8214 600.065 56.074 599.994 55.369C599.942 54.8723 599.569 54.3613 599.098 54.1295C598.81 53.9923 598.367 53.9592 598.074 54.0538Z" fill="#B7B7B7"/>
<path d="M598.074 0.0538343C597.579 0.219418 597.131 0.7209 597.027 1.22711C596.824 2.20169 597.796 3.17627 598.768 2.97284C599.499 2.82145 600.065 2.07396 599.994 1.36904C599.942 0.872291 599.569 0.361347 599.098 0.12953C598.81 -0.00766827 598.367 -0.040785 598.074 0.0538343Z" fill="#B7B7B7"/>
<path d="M598.074 162.054C597.579 162.219 597.131 162.721 597.027 163.227C596.824 164.202 597.796 165.176 598.768 164.973C599.499 164.821 600.065 164.074 599.994 163.369C599.942 162.872 599.569 162.361 599.098 162.13C598.81 161.992 598.367 161.959 598.074 162.054Z" fill="#B7B7B7"/>
<path d="M598.074 378.054C597.579 378.219 597.131 378.721 597.027 379.227C596.824 380.202 597.796 381.176 598.768 380.973C599.499 380.821 600.065 380.074 599.994 379.369C599.942 378.872 599.569 378.361 599.098 378.13C598.81 377.992 598.367 377.959 598.074 378.054Z" fill="#B7B7B7"/>
<path d="M660.074 324.054C659.579 324.219 659.131 324.721 659.027 325.227C658.824 326.202 659.796 327.176 660.768 326.973C661.499 326.821 662.065 326.074 661.994 325.369C661.942 324.872 661.569 324.361 661.098 324.13C660.81 323.992 660.367 323.959 660.074 324.054Z" fill="#B7B7B7"/>
<path d="M660.074 270.054C659.579 270.219 659.131 270.721 659.027 271.227C658.824 272.202 659.796 273.176 660.768 272.973C661.499 272.821 662.065 272.074 661.994 271.369C661.942 270.872 661.569 270.361 661.098 270.13C660.81 269.992 660.367 269.959 660.074 270.054Z" fill="#B7B7B7"/>
<path d="M660.074 216.054C659.579 216.219 659.131 216.721 659.027 217.227C658.824 218.202 659.796 219.176 660.768 218.973C661.499 218.821 662.065 218.074 661.994 217.369C661.942 216.872 661.569 216.361 661.098 216.13C660.81 215.992 660.367 215.959 660.074 216.054Z" fill="#B7B7B7"/>
<path d="M660.074 108.054C659.579 108.219 659.131 108.721 659.027 109.227C658.824 110.202 659.796 111.176 660.768 110.973C661.499 110.821 662.065 110.074 661.994 109.369C661.942 108.872 661.569 108.361 661.098 108.13C660.81 107.992 660.367 107.959 660.074 108.054Z" fill="#B7B7B7"/>
<path d="M660.074 54.0538C659.579 54.2194 659.131 54.7209 659.027 55.2271C658.824 56.2017 659.796 57.1763 660.768 56.9728C661.499 56.8214 662.065 56.074 661.994 55.369C661.942 54.8723 661.569 54.3613 661.098 54.1295C660.81 53.9923 660.367 53.9592 660.074 54.0538Z" fill="#B7B7B7"/>
<path d="M660.074 0.0538343C659.579 0.219418 659.131 0.7209 659.027 1.22711C658.824 2.20169 659.796 3.17627 660.768 2.97284C661.499 2.82145 662.065 2.07396 661.994 1.36904C661.942 0.872291 661.569 0.361347 661.098 0.12953C660.81 -0.00766827 660.367 -0.040785 660.074 0.0538343Z" fill="#B7B7B7"/>
<path d="M660.074 162.054C659.579 162.219 659.131 162.721 659.027 163.227C658.824 164.202 659.796 165.176 660.768 164.973C661.499 164.821 662.065 164.074 661.994 163.369C661.942 162.872 661.569 162.361 661.098 162.13C660.81 161.992 660.367 161.959 660.074 162.054Z" fill="#B7B7B7"/>
<path d="M660.074 378.054C659.579 378.219 659.131 378.721 659.027 379.227C658.824 380.202 659.796 381.176 660.768 380.973C661.499 380.821 662.065 380.074 661.994 379.369C661.942 378.872 661.569 378.361 661.098 378.13C660.81 377.992 660.367 377.959 660.074 378.054Z" fill="#B7B7B7"/>
<path d="M722.074 324.054C721.579 324.219 721.131 324.721 721.027 325.227C720.824 326.202 721.796 327.176 722.768 326.973C723.499 326.821 724.065 326.074 723.994 325.369C723.942 324.872 723.569 324.361 723.098 324.13C722.81 323.992 722.367 323.959 722.074 324.054Z" fill="#B7B7B7"/>
<path d="M722.074 270.054C721.579 270.219 721.131 270.721 721.027 271.227C720.824 272.202 721.796 273.176 722.768 272.973C723.499 272.821 724.065 272.074 723.994 271.369C723.942 270.872 723.569 270.361 723.098 270.13C722.81 269.992 722.367 269.959 722.074 270.054Z" fill="#B7B7B7"/>
<path d="M722.074 216.054C721.579 216.219 721.131 216.721 721.027 217.227C720.824 218.202 721.796 219.176 722.768 218.973C723.499 218.821 724.065 218.074 723.994 217.369C723.942 216.872 723.569 216.361 723.098 216.13C722.81 215.992 722.367 215.959 722.074 216.054Z" fill="#B7B7B7"/>
<path d="M722.074 108.054C721.579 108.219 721.131 108.721 721.027 109.227C720.824 110.202 721.796 111.176 722.768 110.973C723.499 110.821 724.065 110.074 723.994 109.369C723.942 108.872 723.569 108.361 723.098 108.13C722.81 107.992 722.367 107.959 722.074 108.054Z" fill="#B7B7B7"/>
<path d="M722.074 54.0538C721.579 54.2194 721.131 54.7209 721.027 55.2271C720.824 56.2017 721.796 57.1763 722.768 56.9728C723.499 56.8214 724.065 56.074 723.994 55.369C723.942 54.8723 723.569 54.3613 723.098 54.1295C722.81 53.9923 722.367 53.9592 722.074 54.0538Z" fill="#B7B7B7"/>
<path d="M722.074 0.0538343C721.579 0.219418 721.131 0.7209 721.027 1.22711C720.824 2.20169 721.796 3.17627 722.768 2.97284C723.499 2.82145 724.065 2.07396 723.994 1.36904C723.942 0.872291 723.569 0.361347 723.098 0.12953C722.81 -0.00766827 722.367 -0.040785 722.074 0.0538343Z" fill="#B7B7B7"/>
<path d="M722.074 162.054C721.579 162.219 721.131 162.721 721.027 163.227C720.824 164.202 721.796 165.176 722.768 164.973C723.499 164.821 724.065 164.074 723.994 163.369C723.942 162.872 723.569 162.361 723.098 162.13C722.81 161.992 722.367 161.959 722.074 162.054Z" fill="#B7B7B7"/>
<path d="M722.074 378.054C721.579 378.219 721.131 378.721 721.027 379.227C720.824 380.202 721.796 381.176 722.768 380.973C723.499 380.821 724.065 380.074 723.994 379.369C723.942 378.872 723.569 378.361 723.098 378.13C722.81 377.992 722.367 377.959 722.074 378.054Z" fill="#B7B7B7"/>
<path d="M691.074 324.054C690.579 324.219 690.131 324.721 690.027 325.227C689.824 326.202 690.796 327.176 691.768 326.973C692.499 326.821 693.065 326.074 692.994 325.369C692.942 324.872 692.569 324.361 692.098 324.13C691.81 323.992 691.367 323.959 691.074 324.054Z" fill="#B7B7B7"/>
<path d="M691.074 270.054C690.579 270.219 690.131 270.721 690.027 271.227C689.824 272.202 690.796 273.176 691.768 272.973C692.499 272.821 693.065 272.074 692.994 271.369C692.942 270.872 692.569 270.361 692.098 270.13C691.81 269.992 691.367 269.959 691.074 270.054Z" fill="#B7B7B7"/>
<path d="M691.074 216.054C690.579 216.219 690.131 216.721 690.027 217.227C689.824 218.202 690.796 219.176 691.768 218.973C692.499 218.821 693.065 218.074 692.994 217.369C692.942 216.872 692.569 216.361 692.098 216.13C691.81 215.992 691.367 215.959 691.074 216.054Z" fill="#B7B7B7"/>
<path d="M691.074 108.054C690.579 108.219 690.131 108.721 690.027 109.227C689.824 110.202 690.796 111.176 691.768 110.973C692.499 110.821 693.065 110.074 692.994 109.369C692.942 108.872 692.569 108.361 692.098 108.13C691.81 107.992 691.367 107.959 691.074 108.054Z" fill="#B7B7B7"/>
<path d="M691.074 54.0538C690.579 54.2194 690.131 54.7209 690.027 55.2271C689.824 56.2017 690.796 57.1763 691.768 56.9728C692.499 56.8214 693.065 56.074 692.994 55.369C692.942 54.8723 692.569 54.3613 692.098 54.1295C691.81 53.9923 691.367 53.9592 691.074 54.0538Z" fill="#B7B7B7"/>
<path d="M691.074 0.0538343C690.579 0.219418 690.131 0.7209 690.027 1.22711C689.824 2.20169 690.796 3.17627 691.768 2.97284C692.499 2.82145 693.065 2.07396 692.994 1.36904C692.942 0.872291 692.569 0.361347 692.098 0.12953C691.81 -0.00766827 691.367 -0.040785 691.074 0.0538343Z" fill="#B7B7B7"/>
<path d="M691.074 162.054C690.579 162.219 690.131 162.721 690.027 163.227C689.824 164.202 690.796 165.176 691.768 164.973C692.499 164.821 693.065 164.074 692.994 163.369C692.942 162.872 692.569 162.361 692.098 162.13C691.81 161.992 691.367 161.959 691.074 162.054Z" fill="#B7B7B7"/>
<path d="M691.074 378.054C690.579 378.219 690.131 378.721 690.027 379.227C689.824 380.202 690.796 381.176 691.768 380.973C692.499 380.821 693.065 380.074 692.994 379.369C692.942 378.872 692.569 378.361 692.098 378.13C691.81 377.992 691.367 377.959 691.074 378.054Z" fill="#B7B7B7"/>
<path d="M753.074 324.054C752.579 324.219 752.131 324.721 752.027 325.227C751.824 326.202 752.796 327.176 753.768 326.973C754.499 326.821 755.065 326.074 754.994 325.369C754.942 324.872 754.569 324.361 754.098 324.13C753.81 323.992 753.367 323.959 753.074 324.054Z" fill="#B7B7B7"/>
<path d="M753.074 270.054C752.579 270.219 752.131 270.721 752.027 271.227C751.824 272.202 752.796 273.176 753.768 272.973C754.499 272.821 755.065 272.074 754.994 271.369C754.942 270.872 754.569 270.361 754.098 270.13C753.81 269.992 753.367 269.959 753.074 270.054Z" fill="#B7B7B7"/>
<path d="M753.074 216.054C752.579 216.219 752.131 216.721 752.027 217.227C751.824 218.202 752.796 219.176 753.768 218.973C754.499 218.821 755.065 218.074 754.994 217.369C754.942 216.872 754.569 216.361 754.098 216.13C753.81 215.992 753.367 215.959 753.074 216.054Z" fill="#B7B7B7"/>
<path d="M753.074 108.054C752.579 108.219 752.131 108.721 752.027 109.227C751.824 110.202 752.796 111.176 753.768 110.973C754.499 110.821 755.065 110.074 754.994 109.369C754.942 108.872 754.569 108.361 754.098 108.13C753.81 107.992 753.367 107.959 753.074 108.054Z" fill="#B7B7B7"/>
<path d="M753.074 54.0538C752.579 54.2194 752.131 54.7209 752.027 55.2271C751.824 56.2017 752.796 57.1763 753.768 56.9728C754.499 56.8214 755.065 56.074 754.994 55.369C754.942 54.8723 754.569 54.3613 754.098 54.1295C753.81 53.9923 753.367 53.9592 753.074 54.0538Z" fill="#B7B7B7"/>
<path d="M753.074 0.0538343C752.579 0.219418 752.131 0.7209 752.027 1.22711C751.824 2.20169 752.796 3.17627 753.768 2.97284C754.499 2.82145 755.065 2.07396 754.994 1.36904C754.942 0.872291 754.569 0.361347 754.098 0.12953C753.81 -0.00766827 753.367 -0.040785 753.074 0.0538343Z" fill="#B7B7B7"/>
<path d="M753.074 162.054C752.579 162.219 752.131 162.721 752.027 163.227C751.824 164.202 752.796 165.176 753.768 164.973C754.499 164.821 755.065 164.074 754.994 163.369C754.942 162.872 754.569 162.361 754.098 162.13C753.81 161.992 753.367 161.959 753.074 162.054Z" fill="#B7B7B7"/>
<path d="M753.074 378.054C752.579 378.219 752.131 378.721 752.027 379.227C751.824 380.202 752.796 381.176 753.768 380.973C754.499 380.821 755.065 380.074 754.994 379.369C754.942 378.872 754.569 378.361 754.098 378.13C753.81 377.992 753.367 377.959 753.074 378.054Z" fill="#B7B7B7"/>
<path d="M815.074 324.054C814.579 324.219 814.131 324.721 814.027 325.227C813.824 326.202 814.796 327.176 815.768 326.973C816.499 326.821 817.065 326.074 816.994 325.369C816.942 324.872 816.569 324.361 816.098 324.13C815.81 323.992 815.367 323.959 815.074 324.054Z" fill="#B7B7B7"/>
<path d="M815.074 270.054C814.579 270.219 814.131 270.721 814.027 271.227C813.824 272.202 814.796 273.176 815.768 272.973C816.499 272.821 817.065 272.074 816.994 271.369C816.942 270.872 816.569 270.361 816.098 270.13C815.81 269.992 815.367 269.959 815.074 270.054Z" fill="#B7B7B7"/>
<path d="M815.074 216.054C814.579 216.219 814.131 216.721 814.027 217.227C813.824 218.202 814.796 219.176 815.768 218.973C816.499 218.821 817.065 218.074 816.994 217.369C816.942 216.872 816.569 216.361 816.098 216.13C815.81 215.992 815.367 215.959 815.074 216.054Z" fill="#B7B7B7"/>
<path d="M815.074 108.054C814.579 108.219 814.131 108.721 814.027 109.227C813.824 110.202 814.796 111.176 815.768 110.973C816.499 110.821 817.065 110.074 816.994 109.369C816.942 108.872 816.569 108.361 816.098 108.13C815.81 107.992 815.367 107.959 815.074 108.054Z" fill="#B7B7B7"/>
<path d="M815.074 54.0538C814.579 54.2194 814.131 54.7209 814.027 55.2271C813.824 56.2017 814.796 57.1763 815.768 56.9728C816.499 56.8214 817.065 56.074 816.994 55.369C816.942 54.8723 816.569 54.3613 816.098 54.1295C815.81 53.9923 815.367 53.9592 815.074 54.0538Z" fill="#B7B7B7"/>
<path d="M815.074 0.0538343C814.579 0.219418 814.131 0.7209 814.027 1.22711C813.824 2.20169 814.796 3.17627 815.768 2.97284C816.499 2.82145 817.065 2.07396 816.994 1.36904C816.942 0.872291 816.569 0.361347 816.098 0.12953C815.81 -0.00766827 815.367 -0.040785 815.074 0.0538343Z" fill="#B7B7B7"/>
<path d="M815.074 162.054C814.579 162.219 814.131 162.721 814.027 163.227C813.824 164.202 814.796 165.176 815.768 164.973C816.499 164.821 817.065 164.074 816.994 163.369C816.942 162.872 816.569 162.361 816.098 162.13C815.81 161.992 815.367 161.959 815.074 162.054Z" fill="#B7B7B7"/>
<path d="M815.074 378.054C814.579 378.219 814.131 378.721 814.027 379.227C813.824 380.202 814.796 381.176 815.768 380.973C816.499 380.821 817.065 380.074 816.994 379.369C816.942 378.872 816.569 378.361 816.098 378.13C815.81 377.992 815.367 377.959 815.074 378.054Z" fill="#B7B7B7"/>
<path d="M784.074 324.054C783.579 324.219 783.131 324.721 783.027 325.227C782.824 326.202 783.796 327.176 784.768 326.973C785.499 326.821 786.065 326.074 785.994 325.369C785.942 324.872 785.569 324.361 785.098 324.13C784.81 323.992 784.367 323.959 784.074 324.054Z" fill="#B7B7B7"/>
<path d="M784.074 270.054C783.579 270.219 783.131 270.721 783.027 271.227C782.824 272.202 783.796 273.176 784.768 272.973C785.499 272.821 786.065 272.074 785.994 271.369C785.942 270.872 785.569 270.361 785.098 270.13C784.81 269.992 784.367 269.959 784.074 270.054Z" fill="#B7B7B7"/>
<path d="M784.074 216.054C783.579 216.219 783.131 216.721 783.027 217.227C782.824 218.202 783.796 219.176 784.768 218.973C785.499 218.821 786.065 218.074 785.994 217.369C785.942 216.872 785.569 216.361 785.098 216.13C784.81 215.992 784.367 215.959 784.074 216.054Z" fill="#B7B7B7"/>
<path d="M784.074 108.054C783.579 108.219 783.131 108.721 783.027 109.227C782.824 110.202 783.796 111.176 784.768 110.973C785.499 110.821 786.065 110.074 785.994 109.369C785.942 108.872 785.569 108.361 785.098 108.13C784.81 107.992 784.367 107.959 784.074 108.054Z" fill="#B7B7B7"/>
<path d="M784.074 54.0538C783.579 54.2194 783.131 54.7209 783.027 55.2271C782.824 56.2017 783.796 57.1763 784.768 56.9728C785.499 56.8214 786.065 56.074 785.994 55.369C785.942 54.8723 785.569 54.3613 785.098 54.1295C784.81 53.9923 784.367 53.9592 784.074 54.0538Z" fill="#B7B7B7"/>
<path d="M784.074 0.0538343C783.579 0.219418 783.131 0.7209 783.027 1.22711C782.824 2.20169 783.796 3.17627 784.768 2.97284C785.499 2.82145 786.065 2.07396 785.994 1.36904C785.942 0.872291 785.569 0.361347 785.098 0.12953C784.81 -0.00766827 784.367 -0.040785 784.074 0.0538343Z" fill="#B7B7B7"/>
<path d="M784.074 162.054C783.579 162.219 783.131 162.721 783.027 163.227C782.824 164.202 783.796 165.176 784.768 164.973C785.499 164.821 786.065 164.074 785.994 163.369C785.942 162.872 785.569 162.361 785.098 162.13C784.81 161.992 784.367 161.959 784.074 162.054Z" fill="#B7B7B7"/>
<path d="M784.074 378.054C783.579 378.219 783.131 378.721 783.027 379.227C782.824 380.202 783.796 381.176 784.768 380.973C785.499 380.821 786.065 380.074 785.994 379.369C785.942 378.872 785.569 378.361 785.098 378.13C784.81 377.992 784.367 377.959 784.074 378.054Z" fill="#B7B7B7"/>
<path d="M846.074 324.054C845.579 324.219 845.131 324.721 845.027 325.227C844.824 326.202 845.796 327.176 846.768 326.973C847.499 326.821 848.065 326.074 847.994 325.369C847.942 324.872 847.569 324.361 847.098 324.13C846.81 323.992 846.367 323.959 846.074 324.054Z" fill="#B7B7B7"/>
<path d="M846.074 270.054C845.579 270.219 845.131 270.721 845.027 271.227C844.824 272.202 845.796 273.176 846.768 272.973C847.499 272.821 848.065 272.074 847.994 271.369C847.942 270.872 847.569 270.361 847.098 270.13C846.81 269.992 846.367 269.959 846.074 270.054Z" fill="#B7B7B7"/>
<path d="M846.074 216.054C845.579 216.219 845.131 216.721 845.027 217.227C844.824 218.202 845.796 219.176 846.768 218.973C847.499 218.821 848.065 218.074 847.994 217.369C847.942 216.872 847.569 216.361 847.098 216.13C846.81 215.992 846.367 215.959 846.074 216.054Z" fill="#B7B7B7"/>
<path d="M846.074 108.054C845.579 108.219 845.131 108.721 845.027 109.227C844.824 110.202 845.796 111.176 846.768 110.973C847.499 110.821 848.065 110.074 847.994 109.369C847.942 108.872 847.569 108.361 847.098 108.13C846.81 107.992 846.367 107.959 846.074 108.054Z" fill="#B7B7B7"/>
<path d="M846.074 54.0538C845.579 54.2194 845.131 54.7209 845.027 55.2271C844.824 56.2017 845.796 57.1763 846.768 56.9728C847.499 56.8214 848.065 56.074 847.994 55.369C847.942 54.8723 847.569 54.3613 847.098 54.1295C846.81 53.9923 846.367 53.9592 846.074 54.0538Z" fill="#B7B7B7"/>
<path d="M846.074 0.0538343C845.579 0.219418 845.131 0.7209 845.027 1.22711C844.824 2.20169 845.796 3.17627 846.768 2.97284C847.499 2.82145 848.065 2.07396 847.994 1.36904C847.942 0.872291 847.569 0.361347 847.098 0.12953C846.81 -0.00766827 846.367 -0.040785 846.074 0.0538343Z" fill="#B7B7B7"/>
<path d="M846.074 162.054C845.579 162.219 845.131 162.721 845.027 163.227C844.824 164.202 845.796 165.176 846.768 164.973C847.499 164.821 848.065 164.074 847.994 163.369C847.942 162.872 847.569 162.361 847.098 162.13C846.81 161.992 846.367 161.959 846.074 162.054Z" fill="#B7B7B7"/>
<path d="M846.074 378.054C845.579 378.219 845.131 378.721 845.027 379.227C844.824 380.202 845.796 381.176 846.768 380.973C847.499 380.821 848.065 380.074 847.994 379.369C847.942 378.872 847.569 378.361 847.098 378.13C846.81 377.992 846.367 377.959 846.074 378.054Z" fill="#B7B7B7"/>
<path d="M908.074 324.054C907.579 324.219 907.131 324.721 907.027 325.227C906.824 326.202 907.796 327.176 908.768 326.973C909.499 326.821 910.065 326.074 909.994 325.369C909.942 324.872 909.569 324.361 909.098 324.13C908.81 323.992 908.367 323.959 908.074 324.054Z" fill="#B7B7B7"/>
<path d="M908.074 270.054C907.579 270.219 907.131 270.721 907.027 271.227C906.824 272.202 907.796 273.176 908.768 272.973C909.499 272.821 910.065 272.074 909.994 271.369C909.942 270.872 909.569 270.361 909.098 270.13C908.81 269.992 908.367 269.959 908.074 270.054Z" fill="#B7B7B7"/>
<path d="M908.074 216.054C907.579 216.219 907.131 216.721 907.027 217.227C906.824 218.202 907.796 219.176 908.768 218.973C909.499 218.821 910.065 218.074 909.994 217.369C909.942 216.872 909.569 216.361 909.098 216.13C908.81 215.992 908.367 215.959 908.074 216.054Z" fill="#B7B7B7"/>
<path d="M908.074 108.054C907.579 108.219 907.131 108.721 907.027 109.227C906.824 110.202 907.796 111.176 908.768 110.973C909.499 110.821 910.065 110.074 909.994 109.369C909.942 108.872 909.569 108.361 909.098 108.13C908.81 107.992 908.367 107.959 908.074 108.054Z" fill="#B7B7B7"/>
<path d="M908.074 54.0538C907.579 54.2194 907.131 54.7209 907.027 55.2271C906.824 56.2017 907.796 57.1763 908.768 56.9728C909.499 56.8214 910.065 56.074 909.994 55.369C909.942 54.8723 909.569 54.3613 909.098 54.1295C908.81 53.9923 908.367 53.9592 908.074 54.0538Z" fill="#B7B7B7"/>
<path d="M908.074 0.0538343C907.579 0.219418 907.131 0.7209 907.027 1.22711C906.824 2.20169 907.796 3.17627 908.768 2.97284C909.499 2.82145 910.065 2.07396 909.994 1.36904C909.942 0.872291 909.569 0.361347 909.098 0.12953C908.81 -0.00766827 908.367 -0.040785 908.074 0.0538343Z" fill="#B7B7B7"/>
<path d="M908.074 162.054C907.579 162.219 907.131 162.721 907.027 163.227C906.824 164.202 907.796 165.176 908.768 164.973C909.499 164.821 910.065 164.074 909.994 163.369C909.942 162.872 909.569 162.361 909.098 162.13C908.81 161.992 908.367 161.959 908.074 162.054Z" fill="#B7B7B7"/>
<path d="M908.074 378.054C907.579 378.219 907.131 378.721 907.027 379.227C906.824 380.202 907.796 381.176 908.768 380.973C909.499 380.821 910.065 380.074 909.994 379.369C909.942 378.872 909.569 378.361 909.098 378.13C908.81 377.992 908.367 377.959 908.074 378.054Z" fill="#B7B7B7"/>
<path d="M877.074 324.054C876.579 324.219 876.131 324.721 876.027 325.227C875.824 326.202 876.796 327.176 877.768 326.973C878.499 326.821 879.065 326.074 878.994 325.369C878.942 324.872 878.569 324.361 878.098 324.13C877.81 323.992 877.367 323.959 877.074 324.054Z" fill="#B7B7B7"/>
<path d="M877.074 270.054C876.579 270.219 876.131 270.721 876.027 271.227C875.824 272.202 876.796 273.176 877.768 272.973C878.499 272.821 879.065 272.074 878.994 271.369C878.942 270.872 878.569 270.361 878.098 270.13C877.81 269.992 877.367 269.959 877.074 270.054Z" fill="#B7B7B7"/>
<path d="M877.074 216.054C876.579 216.219 876.131 216.721 876.027 217.227C875.824 218.202 876.796 219.176 877.768 218.973C878.499 218.821 879.065 218.074 878.994 217.369C878.942 216.872 878.569 216.361 878.098 216.13C877.81 215.992 877.367 215.959 877.074 216.054Z" fill="#B7B7B7"/>
<path d="M877.074 108.054C876.579 108.219 876.131 108.721 876.027 109.227C875.824 110.202 876.796 111.176 877.768 110.973C878.499 110.821 879.065 110.074 878.994 109.369C878.942 108.872 878.569 108.361 878.098 108.13C877.81 107.992 877.367 107.959 877.074 108.054Z" fill="#B7B7B7"/>
<path d="M877.074 54.0538C876.579 54.2194 876.131 54.7209 876.027 55.2271C875.824 56.2017 876.796 57.1763 877.768 56.9728C878.499 56.8214 879.065 56.074 878.994 55.369C878.942 54.8723 878.569 54.3613 878.098 54.1295C877.81 53.9923 877.367 53.9592 877.074 54.0538Z" fill="#B7B7B7"/>
<path d="M877.074 0.0538343C876.579 0.219418 876.131 0.7209 876.027 1.22711C875.824 2.20169 876.796 3.17627 877.768 2.97284C878.499 2.82145 879.065 2.07396 878.994 1.36904C878.942 0.872291 878.569 0.361347 878.098 0.12953C877.81 -0.00766827 877.367 -0.040785 877.074 0.0538343Z" fill="#B7B7B7"/>
<path d="M877.074 162.054C876.579 162.219 876.131 162.721 876.027 163.227C875.824 164.202 876.796 165.176 877.768 164.973C878.499 164.821 879.065 164.074 878.994 163.369C878.942 162.872 878.569 162.361 878.098 162.13C877.81 161.992 877.367 161.959 877.074 162.054Z" fill="#B7B7B7"/>
<path d="M877.074 378.054C876.579 378.219 876.131 378.721 876.027 379.227C875.824 380.202 876.796 381.176 877.768 380.973C878.499 380.821 879.065 380.074 878.994 379.369C878.942 378.872 878.569 378.361 878.098 378.13C877.81 377.992 877.367 377.959 877.074 378.054Z" fill="#B7B7B7"/>
<path d="M943.074 324.054C942.579 324.219 942.131 324.721 942.027 325.227C941.824 326.202 942.796 327.176 943.768 326.973C944.499 326.821 945.065 326.074 944.994 325.369C944.942 324.872 944.569 324.361 944.098 324.13C943.81 323.992 943.367 323.959 943.074 324.054Z" fill="#B7B7B7"/>
<path d="M943.074 270.054C942.579 270.219 942.131 270.721 942.027 271.227C941.824 272.202 942.796 273.176 943.768 272.973C944.499 272.821 945.065 272.074 944.994 271.369C944.942 270.872 944.569 270.361 944.098 270.13C943.81 269.992 943.367 269.959 943.074 270.054Z" fill="#B7B7B7"/>
<path d="M943.074 216.054C942.579 216.219 942.131 216.721 942.027 217.227C941.824 218.202 942.796 219.176 943.768 218.973C944.499 218.821 945.065 218.074 944.994 217.369C944.942 216.872 944.569 216.361 944.098 216.13C943.81 215.992 943.367 215.959 943.074 216.054Z" fill="#B7B7B7"/>
<path d="M943.074 108.054C942.579 108.219 942.131 108.721 942.027 109.227C941.824 110.202 942.796 111.176 943.768 110.973C944.499 110.821 945.065 110.074 944.994 109.369C944.942 108.872 944.569 108.361 944.098 108.13C943.81 107.992 943.367 107.959 943.074 108.054Z" fill="#B7B7B7"/>
<path d="M943.074 54.0538C942.579 54.2194 942.131 54.7209 942.027 55.2271C941.824 56.2017 942.796 57.1763 943.768 56.9728C944.499 56.8214 945.065 56.074 944.994 55.369C944.942 54.8723 944.569 54.3613 944.098 54.1295C943.81 53.9923 943.367 53.9592 943.074 54.0538Z" fill="#B7B7B7"/>
<path d="M943.074 0.0538343C942.579 0.219418 942.131 0.7209 942.027 1.22711C941.824 2.20169 942.796 3.17627 943.768 2.97284C944.499 2.82145 945.065 2.07396 944.994 1.36904C944.942 0.872291 944.569 0.361347 944.098 0.12953C943.81 -0.00766827 943.367 -0.040785 943.074 0.0538343Z" fill="#B7B7B7"/>
<path d="M943.074 162.054C942.579 162.219 942.131 162.721 942.027 163.227C941.824 164.202 942.796 165.176 943.768 164.973C944.499 164.821 945.065 164.074 944.994 163.369C944.942 162.872 944.569 162.361 944.098 162.13C943.81 161.992 943.367 161.959 943.074 162.054Z" fill="#B7B7B7"/>
<path d="M943.074 378.054C942.579 378.219 942.131 378.721 942.027 379.227C941.824 380.202 942.796 381.176 943.768 380.973C944.499 380.821 945.065 380.074 944.994 379.369C944.942 378.872 944.569 378.361 944.098 378.13C943.81 377.992 943.367 377.959 943.074 378.054Z" fill="#B7B7B7"/>
<path d="M1005.07 324.054C1004.58 324.219 1004.13 324.721 1004.03 325.227C1003.82 326.202 1004.8 327.176 1005.77 326.973C1006.5 326.821 1007.06 326.074 1006.99 325.369C1006.94 324.872 1006.57 324.361 1006.1 324.13C1005.81 323.992 1005.37 323.959 1005.07 324.054Z" fill="#B7B7B7"/>
<path d="M1005.07 270.054C1004.58 270.219 1004.13 270.721 1004.03 271.227C1003.82 272.202 1004.8 273.176 1005.77 272.973C1006.5 272.821 1007.06 272.074 1006.99 271.369C1006.94 270.872 1006.57 270.361 1006.1 270.13C1005.81 269.992 1005.37 269.959 1005.07 270.054Z" fill="#B7B7B7"/>
<path d="M1005.07 216.054C1004.58 216.219 1004.13 216.721 1004.03 217.227C1003.82 218.202 1004.8 219.176 1005.77 218.973C1006.5 218.821 1007.06 218.074 1006.99 217.369C1006.94 216.872 1006.57 216.361 1006.1 216.13C1005.81 215.992 1005.37 215.959 1005.07 216.054Z" fill="#B7B7B7"/>
<path d="M1005.07 108.054C1004.58 108.219 1004.13 108.721 1004.03 109.227C1003.82 110.202 1004.8 111.176 1005.77 110.973C1006.5 110.821 1007.06 110.074 1006.99 109.369C1006.94 108.872 1006.57 108.361 1006.1 108.13C1005.81 107.992 1005.37 107.959 1005.07 108.054Z" fill="#B7B7B7"/>
<path d="M1005.07 54.0538C1004.58 54.2194 1004.13 54.7209 1004.03 55.2271C1003.82 56.2017 1004.8 57.1763 1005.77 56.9728C1006.5 56.8214 1007.06 56.074 1006.99 55.369C1006.94 54.8723 1006.57 54.3613 1006.1 54.1295C1005.81 53.9923 1005.37 53.9592 1005.07 54.0538Z" fill="#B7B7B7"/>
<path d="M1005.07 0.0538343C1004.58 0.219418 1004.13 0.7209 1004.03 1.22711C1003.82 2.20169 1004.8 3.17627 1005.77 2.97284C1006.5 2.82145 1007.06 2.07396 1006.99 1.36904C1006.94 0.872291 1006.57 0.361347 1006.1 0.12953C1005.81 -0.00766827 1005.37 -0.040785 1005.07 0.0538343Z" fill="#B7B7B7"/>
<path d="M1005.07 162.054C1004.58 162.219 1004.13 162.721 1004.03 163.227C1003.82 164.202 1004.8 165.176 1005.77 164.973C1006.5 164.821 1007.06 164.074 1006.99 163.369C1006.94 162.872 1006.57 162.361 1006.1 162.13C1005.81 161.992 1005.37 161.959 1005.07 162.054Z" fill="#B7B7B7"/>
<path d="M1005.07 378.054C1004.58 378.219 1004.13 378.721 1004.03 379.227C1003.82 380.202 1004.8 381.176 1005.77 380.973C1006.5 380.821 1007.06 380.074 1006.99 379.369C1006.94 378.872 1006.57 378.361 1006.1 378.13C1005.81 377.992 1005.37 377.959 1005.07 378.054Z" fill="#B7B7B7"/>
<path d="M974.074 324.054C973.579 324.219 973.131 324.721 973.027 325.227C972.824 326.202 973.796 327.176 974.768 326.973C975.499 326.821 976.065 326.074 975.994 325.369C975.942 324.872 975.569 324.361 975.098 324.13C974.81 323.992 974.367 323.959 974.074 324.054Z" fill="#B7B7B7"/>
<path d="M974.074 270.054C973.579 270.219 973.131 270.721 973.027 271.227C972.824 272.202 973.796 273.176 974.768 272.973C975.499 272.821 976.065 272.074 975.994 271.369C975.942 270.872 975.569 270.361 975.098 270.13C974.81 269.992 974.367 269.959 974.074 270.054Z" fill="#B7B7B7"/>
<path d="M974.074 216.054C973.579 216.219 973.131 216.721 973.027 217.227C972.824 218.202 973.796 219.176 974.768 218.973C975.499 218.821 976.065 218.074 975.994 217.369C975.942 216.872 975.569 216.361 975.098 216.13C974.81 215.992 974.367 215.959 974.074 216.054Z" fill="#B7B7B7"/>
<path d="M974.074 108.054C973.579 108.219 973.131 108.721 973.027 109.227C972.824 110.202 973.796 111.176 974.768 110.973C975.499 110.821 976.065 110.074 975.994 109.369C975.942 108.872 975.569 108.361 975.098 108.13C974.81 107.992 974.367 107.959 974.074 108.054Z" fill="#B7B7B7"/>
<path d="M974.074 54.0538C973.579 54.2194 973.131 54.7209 973.027 55.2271C972.824 56.2017 973.796 57.1763 974.768 56.9728C975.499 56.8214 976.065 56.074 975.994 55.369C975.942 54.8723 975.569 54.3613 975.098 54.1295C974.81 53.9923 974.367 53.9592 974.074 54.0538Z" fill="#B7B7B7"/>
<path d="M974.074 0.0538343C973.579 0.219418 973.131 0.7209 973.027 1.22711C972.824 2.20169 973.796 3.17627 974.768 2.97284C975.499 2.82145 976.065 2.07396 975.994 1.36904C975.942 0.872291 975.569 0.361347 975.098 0.12953C974.81 -0.00766827 974.367 -0.040785 974.074 0.0538343Z" fill="#B7B7B7"/>
<path d="M974.074 162.054C973.579 162.219 973.131 162.721 973.027 163.227C972.824 164.202 973.796 165.176 974.768 164.973C975.499 164.821 976.065 164.074 975.994 163.369C975.942 162.872 975.569 162.361 975.098 162.13C974.81 161.992 974.367 161.959 974.074 162.054Z" fill="#B7B7B7"/>
<path d="M974.074 378.054C973.579 378.219 973.131 378.721 973.027 379.227C972.824 380.202 973.796 381.176 974.768 380.973C975.499 380.821 976.065 380.074 975.994 379.369C975.942 378.872 975.569 378.361 975.098 378.13C974.81 377.992 974.367 377.959 974.074 378.054Z" fill="#B7B7B7"/>
<path d="M1036.07 324.054C1035.58 324.219 1035.13 324.721 1035.03 325.227C1034.82 326.202 1035.8 327.176 1036.77 326.973C1037.5 326.821 1038.06 326.074 1037.99 325.369C1037.94 324.872 1037.57 324.361 1037.1 324.13C1036.81 323.992 1036.37 323.959 1036.07 324.054Z" fill="#B7B7B7"/>
<path d="M1036.07 270.054C1035.58 270.219 1035.13 270.721 1035.03 271.227C1034.82 272.202 1035.8 273.176 1036.77 272.973C1037.5 272.821 1038.06 272.074 1037.99 271.369C1037.94 270.872 1037.57 270.361 1037.1 270.13C1036.81 269.992 1036.37 269.959 1036.07 270.054Z" fill="#B7B7B7"/>
<path d="M1036.07 216.054C1035.58 216.219 1035.13 216.721 1035.03 217.227C1034.82 218.202 1035.8 219.176 1036.77 218.973C1037.5 218.821 1038.06 218.074 1037.99 217.369C1037.94 216.872 1037.57 216.361 1037.1 216.13C1036.81 215.992 1036.37 215.959 1036.07 216.054Z" fill="#B7B7B7"/>
<path d="M1036.07 108.054C1035.58 108.219 1035.13 108.721 1035.03 109.227C1034.82 110.202 1035.8 111.176 1036.77 110.973C1037.5 110.821 1038.06 110.074 1037.99 109.369C1037.94 108.872 1037.57 108.361 1037.1 108.13C1036.81 107.992 1036.37 107.959 1036.07 108.054Z" fill="#B7B7B7"/>
<path d="M1036.07 54.0538C1035.58 54.2194 1035.13 54.7209 1035.03 55.2271C1034.82 56.2017 1035.8 57.1763 1036.77 56.9728C1037.5 56.8214 1038.06 56.074 1037.99 55.369C1037.94 54.8723 1037.57 54.3613 1037.1 54.1295C1036.81 53.9923 1036.37 53.9592 1036.07 54.0538Z" fill="#B7B7B7"/>
<path d="M1036.07 0.0538343C1035.58 0.219418 1035.13 0.7209 1035.03 1.22711C1034.82 2.20169 1035.8 3.17627 1036.77 2.97284C1037.5 2.82145 1038.06 2.07396 1037.99 1.36904C1037.94 0.872291 1037.57 0.361347 1037.1 0.12953C1036.81 -0.00766827 1036.37 -0.040785 1036.07 0.0538343Z" fill="#B7B7B7"/>
<path d="M1036.07 162.054C1035.58 162.219 1035.13 162.721 1035.03 163.227C1034.82 164.202 1035.8 165.176 1036.77 164.973C1037.5 164.821 1038.06 164.074 1037.99 163.369C1037.94 162.872 1037.57 162.361 1037.1 162.13C1036.81 161.992 1036.37 161.959 1036.07 162.054Z" fill="#B7B7B7"/>
<path d="M1036.07 378.054C1035.58 378.219 1035.13 378.721 1035.03 379.227C1034.82 380.202 1035.8 381.176 1036.77 380.973C1037.5 380.821 1038.06 380.074 1037.99 379.369C1037.94 378.872 1037.57 378.361 1037.1 378.13C1036.81 377.992 1036.37 377.959 1036.07 378.054Z" fill="#B7B7B7"/>
<path d="M1098.07 324.054C1097.58 324.219 1097.13 324.721 1097.03 325.227C1096.82 326.202 1097.8 327.176 1098.77 326.973C1099.5 326.821 1100.06 326.074 1099.99 325.369C1099.94 324.872 1099.57 324.361 1099.1 324.13C1098.81 323.992 1098.37 323.959 1098.07 324.054Z" fill="#B7B7B7"/>
<path d="M1098.07 270.054C1097.58 270.219 1097.13 270.721 1097.03 271.227C1096.82 272.202 1097.8 273.176 1098.77 272.973C1099.5 272.821 1100.06 272.074 1099.99 271.369C1099.94 270.872 1099.57 270.361 1099.1 270.13C1098.81 269.992 1098.37 269.959 1098.07 270.054Z" fill="#B7B7B7"/>
<path d="M1098.07 216.054C1097.58 216.219 1097.13 216.721 1097.03 217.227C1096.82 218.202 1097.8 219.176 1098.77 218.973C1099.5 218.821 1100.06 218.074 1099.99 217.369C1099.94 216.872 1099.57 216.361 1099.1 216.13C1098.81 215.992 1098.37 215.959 1098.07 216.054Z" fill="#B7B7B7"/>
<path d="M1098.07 108.054C1097.58 108.219 1097.13 108.721 1097.03 109.227C1096.82 110.202 1097.8 111.176 1098.77 110.973C1099.5 110.821 1100.06 110.074 1099.99 109.369C1099.94 108.872 1099.57 108.361 1099.1 108.13C1098.81 107.992 1098.37 107.959 1098.07 108.054Z" fill="#B7B7B7"/>
<path d="M1098.07 54.0538C1097.58 54.2194 1097.13 54.7209 1097.03 55.2271C1096.82 56.2017 1097.8 57.1763 1098.77 56.9728C1099.5 56.8214 1100.06 56.074 1099.99 55.369C1099.94 54.8723 1099.57 54.3613 1099.1 54.1295C1098.81 53.9923 1098.37 53.9592 1098.07 54.0538Z" fill="#B7B7B7"/>
<path d="M1098.07 0.0538343C1097.58 0.219418 1097.13 0.7209 1097.03 1.22711C1096.82 2.20169 1097.8 3.17627 1098.77 2.97284C1099.5 2.82145 1100.06 2.07396 1099.99 1.36904C1099.94 0.872291 1099.57 0.361347 1099.1 0.12953C1098.81 -0.00766827 1098.37 -0.040785 1098.07 0.0538343Z" fill="#B7B7B7"/>
<path d="M1098.07 162.054C1097.58 162.219 1097.13 162.721 1097.03 163.227C1096.82 164.202 1097.8 165.176 1098.77 164.973C1099.5 164.821 1100.06 164.074 1099.99 163.369C1099.94 162.872 1099.57 162.361 1099.1 162.13C1098.81 161.992 1098.37 161.959 1098.07 162.054Z" fill="#B7B7B7"/>
<path d="M1098.07 378.054C1097.58 378.219 1097.13 378.721 1097.03 379.227C1096.82 380.202 1097.8 381.176 1098.77 380.973C1099.5 380.821 1100.06 380.074 1099.99 379.369C1099.94 378.872 1099.57 378.361 1099.1 378.13C1098.81 377.992 1098.37 377.959 1098.07 378.054Z" fill="#B7B7B7"/>
<path d="M1067.07 324.054C1066.58 324.219 1066.13 324.721 1066.03 325.227C1065.82 326.202 1066.8 327.176 1067.77 326.973C1068.5 326.821 1069.06 326.074 1068.99 325.369C1068.94 324.872 1068.57 324.361 1068.1 324.13C1067.81 323.992 1067.37 323.959 1067.07 324.054Z" fill="#B7B7B7"/>
<path d="M1067.07 270.054C1066.58 270.219 1066.13 270.721 1066.03 271.227C1065.82 272.202 1066.8 273.176 1067.77 272.973C1068.5 272.821 1069.06 272.074 1068.99 271.369C1068.94 270.872 1068.57 270.361 1068.1 270.13C1067.81 269.992 1067.37 269.959 1067.07 270.054Z" fill="#B7B7B7"/>
<path d="M1067.07 216.054C1066.58 216.219 1066.13 216.721 1066.03 217.227C1065.82 218.202 1066.8 219.176 1067.77 218.973C1068.5 218.821 1069.06 218.074 1068.99 217.369C1068.94 216.872 1068.57 216.361 1068.1 216.13C1067.81 215.992 1067.37 215.959 1067.07 216.054Z" fill="#B7B7B7"/>
<path d="M1067.07 108.054C1066.58 108.219 1066.13 108.721 1066.03 109.227C1065.82 110.202 1066.8 111.176 1067.77 110.973C1068.5 110.821 1069.06 110.074 1068.99 109.369C1068.94 108.872 1068.57 108.361 1068.1 108.13C1067.81 107.992 1067.37 107.959 1067.07 108.054Z" fill="#B7B7B7"/>
<path d="M1067.07 54.0538C1066.58 54.2194 1066.13 54.7209 1066.03 55.2271C1065.82 56.2017 1066.8 57.1763 1067.77 56.9728C1068.5 56.8214 1069.06 56.074 1068.99 55.369C1068.94 54.8723 1068.57 54.3613 1068.1 54.1295C1067.81 53.9923 1067.37 53.9592 1067.07 54.0538Z" fill="#B7B7B7"/>
<path d="M1067.07 0.0538343C1066.58 0.219418 1066.13 0.7209 1066.03 1.22711C1065.82 2.20169 1066.8 3.17627 1067.77 2.97284C1068.5 2.82145 1069.06 2.07396 1068.99 1.36904C1068.94 0.872291 1068.57 0.361347 1068.1 0.12953C1067.81 -0.00766827 1067.37 -0.040785 1067.07 0.0538343Z" fill="#B7B7B7"/>
<path d="M1067.07 162.054C1066.58 162.219 1066.13 162.721 1066.03 163.227C1065.82 164.202 1066.8 165.176 1067.77 164.973C1068.5 164.821 1069.06 164.074 1068.99 163.369C1068.94 162.872 1068.57 162.361 1068.1 162.13C1067.81 161.992 1067.37 161.959 1067.07 162.054Z" fill="#B7B7B7"/>
<path d="M1067.07 378.054C1066.58 378.219 1066.13 378.721 1066.03 379.227C1065.82 380.202 1066.8 381.176 1067.77 380.973C1068.5 380.821 1069.06 380.074 1068.99 379.369C1068.94 378.872 1068.57 378.361 1068.1 378.13C1067.81 377.992 1067.37 377.959 1067.07 378.054Z" fill="#B7B7B7"/>
<path d="M1129.07 324.054C1128.58 324.219 1128.13 324.721 1128.03 325.227C1127.82 326.202 1128.8 327.176 1129.77 326.973C1130.5 326.821 1131.06 326.074 1130.99 325.369C1130.94 324.872 1130.57 324.361 1130.1 324.13C1129.81 323.992 1129.37 323.959 1129.07 324.054Z" fill="#B7B7B7"/>
<path d="M1129.07 270.054C1128.58 270.219 1128.13 270.721 1128.03 271.227C1127.82 272.202 1128.8 273.176 1129.77 272.973C1130.5 272.821 1131.06 272.074 1130.99 271.369C1130.94 270.872 1130.57 270.361 1130.1 270.13C1129.81 269.992 1129.37 269.959 1129.07 270.054Z" fill="#B7B7B7"/>
<path d="M1129.07 216.054C1128.58 216.219 1128.13 216.721 1128.03 217.227C1127.82 218.202 1128.8 219.176 1129.77 218.973C1130.5 218.821 1131.06 218.074 1130.99 217.369C1130.94 216.872 1130.57 216.361 1130.1 216.13C1129.81 215.992 1129.37 215.959 1129.07 216.054Z" fill="#B7B7B7"/>
<path d="M1129.07 108.054C1128.58 108.219 1128.13 108.721 1128.03 109.227C1127.82 110.202 1128.8 111.176 1129.77 110.973C1130.5 110.821 1131.06 110.074 1130.99 109.369C1130.94 108.872 1130.57 108.361 1130.1 108.13C1129.81 107.992 1129.37 107.959 1129.07 108.054Z" fill="#B7B7B7"/>
<path d="M1129.07 54.0538C1128.58 54.2194 1128.13 54.7209 1128.03 55.2271C1127.82 56.2017 1128.8 57.1763 1129.77 56.9728C1130.5 56.8214 1131.06 56.074 1130.99 55.369C1130.94 54.8723 1130.57 54.3613 1130.1 54.1295C1129.81 53.9923 1129.37 53.9592 1129.07 54.0538Z" fill="#B7B7B7"/>
<path d="M1129.07 0.0538343C1128.58 0.219418 1128.13 0.7209 1128.03 1.22711C1127.82 2.20169 1128.8 3.17627 1129.77 2.97284C1130.5 2.82145 1131.06 2.07396 1130.99 1.36904C1130.94 0.872291 1130.57 0.361347 1130.1 0.12953C1129.81 -0.00766827 1129.37 -0.040785 1129.07 0.0538343Z" fill="#B7B7B7"/>
<path d="M1129.07 162.054C1128.58 162.219 1128.13 162.721 1128.03 163.227C1127.82 164.202 1128.8 165.176 1129.77 164.973C1130.5 164.821 1131.06 164.074 1130.99 163.369C1130.94 162.872 1130.57 162.361 1130.1 162.13C1129.81 161.992 1129.37 161.959 1129.07 162.054Z" fill="#B7B7B7"/>
<path d="M1129.07 378.054C1128.58 378.219 1128.13 378.721 1128.03 379.227C1127.82 380.202 1128.8 381.176 1129.77 380.973C1130.5 380.821 1131.06 380.074 1130.99 379.369C1130.94 378.872 1130.57 378.361 1130.1 378.13C1129.81 377.992 1129.37 377.959 1129.07 378.054Z" fill="#B7B7B7"/>
<path d="M1191.07 324.054C1190.58 324.219 1190.13 324.721 1190.03 325.227C1189.82 326.202 1190.8 327.176 1191.77 326.973C1192.5 326.821 1193.06 326.074 1192.99 325.369C1192.94 324.872 1192.57 324.361 1192.1 324.13C1191.81 323.992 1191.37 323.959 1191.07 324.054Z" fill="#B7B7B7"/>
<path d="M1191.07 270.054C1190.58 270.219 1190.13 270.721 1190.03 271.227C1189.82 272.202 1190.8 273.176 1191.77 272.973C1192.5 272.821 1193.06 272.074 1192.99 271.369C1192.94 270.872 1192.57 270.361 1192.1 270.13C1191.81 269.992 1191.37 269.959 1191.07 270.054Z" fill="#B7B7B7"/>
<path d="M1191.07 216.054C1190.58 216.219 1190.13 216.721 1190.03 217.227C1189.82 218.202 1190.8 219.176 1191.77 218.973C1192.5 218.821 1193.06 218.074 1192.99 217.369C1192.94 216.872 1192.57 216.361 1192.1 216.13C1191.81 215.992 1191.37 215.959 1191.07 216.054Z" fill="#B7B7B7"/>
<path d="M1191.07 108.054C1190.58 108.219 1190.13 108.721 1190.03 109.227C1189.82 110.202 1190.8 111.176 1191.77 110.973C1192.5 110.821 1193.06 110.074 1192.99 109.369C1192.94 108.872 1192.57 108.361 1192.1 108.13C1191.81 107.992 1191.37 107.959 1191.07 108.054Z" fill="#B7B7B7"/>
<path d="M1191.07 54.0538C1190.58 54.2194 1190.13 54.7209 1190.03 55.2271C1189.82 56.2017 1190.8 57.1763 1191.77 56.9728C1192.5 56.8214 1193.06 56.074 1192.99 55.369C1192.94 54.8723 1192.57 54.3613 1192.1 54.1295C1191.81 53.9923 1191.37 53.9592 1191.07 54.0538Z" fill="#B7B7B7"/>
<path d="M1191.07 0.0538343C1190.58 0.219418 1190.13 0.7209 1190.03 1.22711C1189.82 2.20169 1190.8 3.17627 1191.77 2.97284C1192.5 2.82145 1193.06 2.07396 1192.99 1.36904C1192.94 0.872291 1192.57 0.361347 1192.1 0.12953C1191.81 -0.00766827 1191.37 -0.040785 1191.07 0.0538343Z" fill="#B7B7B7"/>
<path d="M1191.07 162.054C1190.58 162.219 1190.13 162.721 1190.03 163.227C1189.82 164.202 1190.8 165.176 1191.77 164.973C1192.5 164.821 1193.06 164.074 1192.99 163.369C1192.94 162.872 1192.57 162.361 1192.1 162.13C1191.81 161.992 1191.37 161.959 1191.07 162.054Z" fill="#B7B7B7"/>
<path d="M1191.07 378.054C1190.58 378.219 1190.13 378.721 1190.03 379.227C1189.82 380.202 1190.8 381.176 1191.77 380.973C1192.5 380.821 1193.06 380.074 1192.99 379.369C1192.94 378.872 1192.57 378.361 1192.1 378.13C1191.81 377.992 1191.37 377.959 1191.07 378.054Z" fill="#B7B7B7"/>
<path d="M1160.07 324.054C1159.58 324.219 1159.13 324.721 1159.03 325.227C1158.82 326.202 1159.8 327.176 1160.77 326.973C1161.5 326.821 1162.06 326.074 1161.99 325.369C1161.94 324.872 1161.57 324.361 1161.1 324.13C1160.81 323.992 1160.37 323.959 1160.07 324.054Z" fill="#B7B7B7"/>
<path d="M1160.07 270.054C1159.58 270.219 1159.13 270.721 1159.03 271.227C1158.82 272.202 1159.8 273.176 1160.77 272.973C1161.5 272.821 1162.06 272.074 1161.99 271.369C1161.94 270.872 1161.57 270.361 1161.1 270.13C1160.81 269.992 1160.37 269.959 1160.07 270.054Z" fill="#B7B7B7"/>
<path d="M1160.07 216.054C1159.58 216.219 1159.13 216.721 1159.03 217.227C1158.82 218.202 1159.8 219.176 1160.77 218.973C1161.5 218.821 1162.06 218.074 1161.99 217.369C1161.94 216.872 1161.57 216.361 1161.1 216.13C1160.81 215.992 1160.37 215.959 1160.07 216.054Z" fill="#B7B7B7"/>
<path d="M1160.07 108.054C1159.58 108.219 1159.13 108.721 1159.03 109.227C1158.82 110.202 1159.8 111.176 1160.77 110.973C1161.5 110.821 1162.06 110.074 1161.99 109.369C1161.94 108.872 1161.57 108.361 1161.1 108.13C1160.81 107.992 1160.37 107.959 1160.07 108.054Z" fill="#B7B7B7"/>
<path d="M1160.07 54.0538C1159.58 54.2194 1159.13 54.7209 1159.03 55.2271C1158.82 56.2017 1159.8 57.1763 1160.77 56.9728C1161.5 56.8214 1162.06 56.074 1161.99 55.369C1161.94 54.8723 1161.57 54.3613 1161.1 54.1295C1160.81 53.9923 1160.37 53.9592 1160.07 54.0538Z" fill="#B7B7B7"/>
<path d="M1160.07 0.0538343C1159.58 0.219418 1159.13 0.7209 1159.03 1.22711C1158.82 2.20169 1159.8 3.17627 1160.77 2.97284C1161.5 2.82145 1162.06 2.07396 1161.99 1.36904C1161.94 0.872291 1161.57 0.361347 1161.1 0.12953C1160.81 -0.00766827 1160.37 -0.040785 1160.07 0.0538343Z" fill="#B7B7B7"/>
<path d="M1160.07 162.054C1159.58 162.219 1159.13 162.721 1159.03 163.227C1158.82 164.202 1159.8 165.176 1160.77 164.973C1161.5 164.821 1162.06 164.074 1161.99 163.369C1161.94 162.872 1161.57 162.361 1161.1 162.13C1160.81 161.992 1160.37 161.959 1160.07 162.054Z" fill="#B7B7B7"/>
<path d="M1160.07 378.054C1159.58 378.219 1159.13 378.721 1159.03 379.227C1158.82 380.202 1159.8 381.176 1160.77 380.973C1161.5 380.821 1162.06 380.074 1161.99 379.369C1161.94 378.872 1161.57 378.361 1161.1 378.13C1160.81 377.992 1160.37 377.959 1160.07 378.054Z" fill="#B7B7B7"/>
<path d="M1222.07 324.054C1221.58 324.219 1221.13 324.721 1221.03 325.227C1220.82 326.202 1221.8 327.176 1222.77 326.973C1223.5 326.821 1224.06 326.074 1223.99 325.369C1223.94 324.872 1223.57 324.361 1223.1 324.13C1222.81 323.992 1222.37 323.959 1222.07 324.054Z" fill="#B7B7B7"/>
<path d="M1222.07 270.054C1221.58 270.219 1221.13 270.721 1221.03 271.227C1220.82 272.202 1221.8 273.176 1222.77 272.973C1223.5 272.821 1224.06 272.074 1223.99 271.369C1223.94 270.872 1223.57 270.361 1223.1 270.13C1222.81 269.992 1222.37 269.959 1222.07 270.054Z" fill="#B7B7B7"/>
<path d="M1222.07 216.054C1221.58 216.219 1221.13 216.721 1221.03 217.227C1220.82 218.202 1221.8 219.176 1222.77 218.973C1223.5 218.821 1224.06 218.074 1223.99 217.369C1223.94 216.872 1223.57 216.361 1223.1 216.13C1222.81 215.992 1222.37 215.959 1222.07 216.054Z" fill="#B7B7B7"/>
<path d="M1222.07 108.054C1221.58 108.219 1221.13 108.721 1221.03 109.227C1220.82 110.202 1221.8 111.176 1222.77 110.973C1223.5 110.821 1224.06 110.074 1223.99 109.369C1223.94 108.872 1223.57 108.361 1223.1 108.13C1222.81 107.992 1222.37 107.959 1222.07 108.054Z" fill="#B7B7B7"/>
<path d="M1222.07 54.0538C1221.58 54.2194 1221.13 54.7209 1221.03 55.2271C1220.82 56.2017 1221.8 57.1763 1222.77 56.9728C1223.5 56.8214 1224.06 56.074 1223.99 55.369C1223.94 54.8723 1223.57 54.3613 1223.1 54.1295C1222.81 53.9923 1222.37 53.9592 1222.07 54.0538Z" fill="#B7B7B7"/>
<path d="M1222.07 0.0538343C1221.58 0.219418 1221.13 0.7209 1221.03 1.22711C1220.82 2.20169 1221.8 3.17627 1222.77 2.97284C1223.5 2.82145 1224.06 2.07396 1223.99 1.36904C1223.94 0.872291 1223.57 0.361347 1223.1 0.12953C1222.81 -0.00766827 1222.37 -0.040785 1222.07 0.0538343Z" fill="#B7B7B7"/>
<path d="M1222.07 162.054C1221.58 162.219 1221.13 162.721 1221.03 163.227C1220.82 164.202 1221.8 165.176 1222.77 164.973C1223.5 164.821 1224.06 164.074 1223.99 163.369C1223.94 162.872 1223.57 162.361 1223.1 162.13C1222.81 161.992 1222.37 161.959 1222.07 162.054Z" fill="#B7B7B7"/>
<path d="M1222.07 378.054C1221.58 378.219 1221.13 378.721 1221.03 379.227C1220.82 380.202 1221.8 381.176 1222.77 380.973C1223.5 380.821 1224.06 380.074 1223.99 379.369C1223.94 378.872 1223.57 378.361 1223.1 378.13C1222.81 377.992 1222.37 377.959 1222.07 378.054Z" fill="#B7B7B7"/>
<path d="M1253.07 324.054C1252.58 324.219 1252.13 324.721 1252.03 325.227C1251.82 326.202 1252.8 327.176 1253.77 326.973C1254.5 326.821 1255.06 326.074 1254.99 325.369C1254.94 324.872 1254.57 324.361 1254.1 324.13C1253.81 323.992 1253.37 323.959 1253.07 324.054Z" fill="#B7B7B7"/>
<path d="M1253.07 270.054C1252.58 270.219 1252.13 270.721 1252.03 271.227C1251.82 272.202 1252.8 273.176 1253.77 272.973C1254.5 272.821 1255.06 272.074 1254.99 271.369C1254.94 270.872 1254.57 270.361 1254.1 270.13C1253.81 269.992 1253.37 269.959 1253.07 270.054Z" fill="#B7B7B7"/>
<path d="M1253.07 216.054C1252.58 216.219 1252.13 216.721 1252.03 217.227C1251.82 218.202 1252.8 219.176 1253.77 218.973C1254.5 218.821 1255.06 218.074 1254.99 217.369C1254.94 216.872 1254.57 216.361 1254.1 216.13C1253.81 215.992 1253.37 215.959 1253.07 216.054Z" fill="#B7B7B7"/>
<path d="M1253.07 108.054C1252.58 108.219 1252.13 108.721 1252.03 109.227C1251.82 110.202 1252.8 111.176 1253.77 110.973C1254.5 110.821 1255.06 110.074 1254.99 109.369C1254.94 108.872 1254.57 108.361 1254.1 108.13C1253.81 107.992 1253.37 107.959 1253.07 108.054Z" fill="#B7B7B7"/>
<path d="M1253.07 54.0538C1252.58 54.2194 1252.13 54.7209 1252.03 55.2271C1251.82 56.2017 1252.8 57.1763 1253.77 56.9728C1254.5 56.8214 1255.06 56.074 1254.99 55.369C1254.94 54.8723 1254.57 54.3613 1254.1 54.1295C1253.81 53.9923 1253.37 53.9592 1253.07 54.0538Z" fill="#B7B7B7"/>
<path d="M1253.07 0.0538343C1252.58 0.219418 1252.13 0.7209 1252.03 1.22711C1251.82 2.20169 1252.8 3.17627 1253.77 2.97284C1254.5 2.82145 1255.06 2.07396 1254.99 1.36904C1254.94 0.872291 1254.57 0.361347 1254.1 0.12953C1253.81 -0.00766827 1253.37 -0.040785 1253.07 0.0538343Z" fill="#B7B7B7"/>
<path d="M1253.07 162.054C1252.58 162.219 1252.13 162.721 1252.03 163.227C1251.82 164.202 1252.8 165.176 1253.77 164.973C1254.5 164.821 1255.06 164.074 1254.99 163.369C1254.94 162.872 1254.57 162.361 1254.1 162.13C1253.81 161.992 1253.37 161.959 1253.07 162.054Z" fill="#B7B7B7"/>
<path d="M1253.07 378.054C1252.58 378.219 1252.13 378.721 1252.03 379.227C1251.82 380.202 1252.8 381.176 1253.77 380.973C1254.5 380.821 1255.06 380.074 1254.99 379.369C1254.94 378.872 1254.57 378.361 1254.1 378.13C1253.81 377.992 1253.37 377.959 1253.07 378.054Z" fill="#B7B7B7"/>
<path d="M444.009 303.909V153.909H478.384V172.588H479.449C480.869 169.274 482.882 166.078 485.486 163C488.137 159.922 491.499 157.413 495.571 155.472C499.69 153.483 504.615 152.489 510.344 152.489C517.92 152.489 524.998 154.477 531.58 158.455C538.208 162.432 543.559 168.563 547.631 176.849C551.703 185.135 553.739 195.694 553.739 208.526C553.739 220.884 551.774 231.229 547.844 239.562C543.961 247.896 538.705 254.146 532.077 258.312C525.495 262.479 518.18 264.562 510.131 264.562C504.638 264.562 499.88 263.663 495.855 261.864C491.83 260.064 488.445 257.697 485.699 254.761C483 251.826 480.917 248.677 479.449 245.315H478.739V303.909H444.009ZM478.028 208.455C478.028 214.326 478.81 219.439 480.372 223.795C481.982 228.152 484.278 231.537 487.261 233.952C490.292 236.319 493.914 237.503 498.128 237.503C502.389 237.503 506.011 236.319 508.994 233.952C511.977 231.537 514.226 228.152 515.741 223.795C517.304 219.439 518.085 214.326 518.085 208.455C518.085 202.583 517.304 197.493 515.741 193.185C514.226 188.876 511.977 185.538 508.994 183.17C506.059 180.803 502.437 179.619 498.128 179.619C493.866 179.619 490.244 180.779 487.261 183.099C484.278 185.42 481.982 188.734 480.372 193.043C478.81 197.351 478.028 202.489 478.028 208.455ZM606.668 117.545V263H571.938V117.545H606.668ZM679.697 265.06C668.239 265.06 658.391 262.716 650.152 258.028C641.961 253.294 635.64 246.712 631.189 238.284C626.786 229.809 624.584 219.984 624.584 208.81C624.584 197.588 626.786 187.763 631.189 179.335C635.64 170.86 641.961 164.278 650.152 159.591C658.391 154.856 668.239 152.489 679.697 152.489C691.156 152.489 700.981 154.856 709.172 159.591C717.411 164.278 723.732 170.86 728.135 179.335C732.586 187.763 734.811 197.588 734.811 208.81C734.811 219.984 732.586 229.809 728.135 238.284C723.732 246.712 717.411 253.294 709.172 258.028C700.981 262.716 691.156 265.06 679.697 265.06ZM679.911 238.852C684.077 238.852 687.605 237.574 690.493 235.017C693.381 232.46 695.583 228.909 697.098 224.364C698.661 219.818 699.442 214.562 699.442 208.597C699.442 202.536 698.661 197.233 697.098 192.688C695.583 188.142 693.381 184.591 690.493 182.034C687.605 179.477 684.077 178.199 679.911 178.199C675.602 178.199 671.956 179.477 668.973 182.034C666.037 184.591 663.788 188.142 662.226 192.688C660.711 197.233 659.953 202.536 659.953 208.597C659.953 214.562 660.711 219.818 662.226 224.364C663.788 228.909 666.037 232.46 668.973 235.017C671.956 237.574 675.602 238.852 679.911 238.852ZM814.605 153.909V179.477H744.435V153.909H814.605ZM759.065 263V148.369C759.065 139.941 760.652 132.957 763.824 127.418C766.996 121.83 771.4 117.664 777.034 114.918C782.669 112.124 789.179 110.727 796.565 110.727C801.395 110.727 805.94 111.106 810.202 111.864C814.51 112.574 817.706 113.213 819.79 113.781L814.25 139.207C812.972 138.781 811.409 138.426 809.562 138.142C807.763 137.858 806.059 137.716 804.449 137.716C800.377 137.716 797.583 138.616 796.068 140.415C794.553 142.214 793.795 144.676 793.795 147.801V263H759.065Z" fill="black"/>
<path d="M821 208H876V263H821V208Z" fill="#F7DF1D"/>
</svg>
