<svg xmlns="http://www.w3.org/2000/svg" width="1255" height="381" fill="none"><path fill="#fff" d="M0 0h1255v381H0z"/><path fill="#B7B7B7" d="M1.074 324.054c-.495.165-.943.667-1.047 1.173-.203.975.769 1.949 1.74 1.746.732-.152 1.298-.899 1.227-1.604-.052-.497-.425-1.008-.896-1.239-.288-.138-.731-.171-1.024-.076ZM1.074 270.054c-.495.165-.943.667-1.047 1.173-.203.975.769 1.949 1.74 1.746.732-.152 1.298-.899 1.227-1.604-.052-.497-.425-1.008-.896-1.239-.288-.138-.731-.171-1.024-.076ZM1.074 216.054c-.495.165-.943.667-1.047 1.173-.203.975.769 1.949 1.74 1.746.732-.152 1.298-.899 1.227-1.604-.052-.497-.425-1.008-.896-1.239-.288-.138-.731-.171-1.024-.076ZM1.074 108.054c-.495.165-.943.667-1.047 1.173-.203.975.769 1.949 1.74 1.746.732-.152 1.298-.899 1.227-1.604-.052-.497-.425-1.008-.896-1.239-.288-.138-.731-.171-1.024-.076ZM1.074 54.054c-.495.165-.943.667-1.047 1.173-.203.975.769 1.95 1.74 1.746.732-.152 1.298-.899 1.227-1.604-.052-.497-.425-1.008-.896-1.24-.288-.137-.731-.17-1.024-.075ZM1.074.054C.58.219.131.72.027 1.227c-.203.975.769 1.95 1.74 1.746.732-.152 1.298-.899 1.227-1.604C2.942.872 2.569.361 2.098.129 1.81-.007 1.367-.04 1.074.055ZM1.074 162.054c-.495.165-.943.667-1.047 1.173-.203.975.769 1.949 1.74 1.746.732-.152 1.298-.899 1.227-1.604-.052-.497-.425-1.008-.896-1.239-.288-.138-.731-.171-1.024-.076ZM1.074 378.054c-.495.165-.943.667-1.047 1.173-.203.975.769 1.949 1.74 1.746.732-.152 1.298-.899 1.227-1.604-.052-.497-.425-1.008-.896-1.239-.288-.138-.731-.171-1.024-.076ZM63.074 324.054c-.495.165-.943.667-1.047 1.173-.203.975.769 1.949 1.74 1.746.732-.152 1.298-.899 1.227-1.604-.052-.497-.424-1.008-.896-1.239-.288-.138-.731-.171-1.024-.076ZM63.074 270.054c-.495.165-.943.667-1.047 1.173-.203.975.769 1.949 1.74 1.746.732-.152 1.298-.899 1.227-1.604-.052-.497-.424-1.008-.896-1.239-.288-.138-.731-.171-1.024-.076ZM63.074 216.054c-.495.165-.943.667-1.047 1.173-.203.975.769 1.949 1.74 1.746.732-.152 1.298-.899 1.227-1.604-.052-.497-.424-1.008-.896-1.239-.288-.138-.731-.171-1.024-.076ZM63.074 108.054c-.495.165-.943.667-1.047 1.173-.203.975.769 1.949 1.74 1.746.732-.152 1.298-.899 1.227-1.604-.052-.497-.424-1.008-.896-1.239-.288-.138-.731-.171-1.024-.076ZM63.074 54.054c-.495.165-.943.667-1.047 1.173-.203.975.769 1.95 1.74 1.746.732-.152 1.298-.899 1.227-1.604-.052-.497-.424-1.008-.896-1.24-.288-.137-.731-.17-1.024-.075ZM63.074.054c-.495.165-.943.667-1.047 1.173-.203.975.769 1.95 1.74 1.746.732-.152 1.298-.899 1.227-1.604-.052-.497-.424-1.008-.896-1.24-.288-.137-.731-.17-1.024-.075ZM63.074 162.054c-.495.165-.943.667-1.047 1.173-.203.975.769 1.949 1.74 1.746.732-.152 1.298-.899 1.227-1.604-.052-.497-.424-1.008-.896-1.239-.288-.138-.731-.171-1.024-.076ZM63.074 378.054c-.495.165-.943.667-1.047 1.173-.203.975.769 1.949 1.74 1.746.732-.152 1.298-.899 1.227-1.604-.052-.497-.424-1.008-.896-1.239-.288-.138-.731-.171-1.024-.076ZM32.074 324.054c-.495.165-.943.667-1.047 1.173-.203.975.769 1.949 1.74 1.746.732-.152 1.298-.899 1.227-1.604-.052-.497-.425-1.008-.896-1.239-.288-.138-.731-.171-1.024-.076ZM32.074 270.054c-.495.165-.943.667-1.047 1.173-.203.975.769 1.949 1.74 1.746.732-.152 1.298-.899 1.227-1.604-.052-.497-.425-1.008-.896-1.239-.288-.138-.731-.171-1.024-.076ZM32.074 216.054c-.495.165-.943.667-1.047 1.173-.203.975.769 1.949 1.74 1.746.732-.152 1.298-.899 1.227-1.604-.052-.497-.425-1.008-.896-1.239-.288-.138-.731-.171-1.024-.076ZM32.074 108.054c-.495.165-.943.667-1.047 1.173-.203.975.769 1.949 1.74 1.746.732-.152 1.298-.899 1.227-1.604-.052-.497-.425-1.008-.896-1.239-.288-.138-.731-.171-1.024-.076ZM32.074 54.054c-.495.165-.943.667-1.047 1.173-.203.975.769 1.95 1.74 1.746.732-.152 1.298-.899 1.227-1.604-.052-.497-.425-1.008-.896-1.24-.288-.137-.731-.17-1.024-.075ZM32.074.054c-.495.165-.943.667-1.047 1.173-.203.975.769 1.95 1.74 1.746.732-.152 1.298-.899 1.227-1.604-.052-.497-.425-1.008-.896-1.24-.288-.137-.731-.17-1.024-.075ZM32.074 162.054c-.495.165-.943.667-1.047 1.173-.203.975.769 1.949 1.74 1.746.732-.152 1.298-.899 1.227-1.604-.052-.497-.425-1.008-.896-1.239-.288-.138-.731-.171-1.024-.076ZM32.074 378.054c-.495.165-.943.667-1.047 1.173-.203.975.769 1.949 1.74 1.746.732-.152 1.298-.899 1.227-1.604-.052-.497-.425-1.008-.896-1.239-.288-.138-.731-.171-1.024-.076ZM94.074 324.054c-.495.165-.943.667-1.047 1.173-.203.975.769 1.949 1.74 1.746.732-.152 1.298-.899 1.227-1.604-.052-.497-.424-1.008-.896-1.239-.288-.138-.731-.171-1.024-.076ZM94.074 270.054c-.495.165-.943.667-1.047 1.173-.203.975.769 1.949 1.74 1.746.732-.152 1.298-.899 1.227-1.604-.052-.497-.424-1.008-.896-1.239-.288-.138-.731-.171-1.024-.076ZM94.074 216.054c-.495.165-.943.667-1.047 1.173-.203.975.769 1.949 1.74 1.746.732-.152 1.298-.899 1.227-1.604-.052-.497-.424-1.008-.896-1.239-.288-.138-.731-.171-1.024-.076ZM94.074 108.054c-.495.165-.943.667-1.047 1.173-.203.975.769 1.949 1.74 1.746.732-.152 1.298-.899 1.227-1.604-.052-.497-.424-1.008-.896-1.239-.288-.138-.731-.171-1.024-.076ZM94.074 54.054c-.495.165-.943.667-1.047 1.173-.203.975.769 1.95 1.74 1.746.732-.152 1.298-.899 1.227-1.604-.052-.497-.424-1.008-.896-1.24-.288-.137-.731-.17-1.024-.075ZM94.074.054c-.495.165-.943.667-1.047 1.173-.203.975.769 1.95 1.74 1.746.732-.152 1.298-.899 1.227-1.604-.052-.497-.424-1.008-.896-1.24-.288-.137-.731-.17-1.024-.075ZM94.074 162.054c-.495.165-.943.667-1.047 1.173-.203.975.769 1.949 1.74 1.746.732-.152 1.298-.899 1.227-1.604-.052-.497-.424-1.008-.896-1.239-.288-.138-.731-.171-1.024-.076ZM94.074 378.054c-.495.165-.943.667-1.047 1.173-.203.975.769 1.949 1.74 1.746.732-.152 1.298-.899 1.227-1.604-.052-.497-.424-1.008-.896-1.239-.288-.138-.731-.171-1.024-.076ZM156.074 324.054c-.495.165-.943.667-1.047 1.173-.203.975.769 1.949 1.741 1.746.731-.152 1.297-.899 1.226-1.604-.052-.497-.425-1.008-.896-1.239-.288-.138-.731-.171-1.024-.076ZM156.074 270.054c-.495.165-.943.667-1.047 1.173-.203.975.769 1.949 1.741 1.746.731-.152 1.297-.899 1.226-1.604-.052-.497-.425-1.008-.896-1.239-.288-.138-.731-.171-1.024-.076ZM156.074 216.054c-.495.165-.943.667-1.047 1.173-.203.975.769 1.949 1.741 1.746.731-.152 1.297-.899 1.226-1.604-.052-.497-.425-1.008-.896-1.239-.288-.138-.731-.171-1.024-.076ZM156.074 108.054c-.495.165-.943.667-1.047 1.173-.203.975.769 1.949 1.741 1.746.731-.152 1.297-.899 1.226-1.604-.052-.497-.425-1.008-.896-1.239-.288-.138-.731-.171-1.024-.076ZM156.074 54.054c-.495.165-.943.667-1.047 1.173-.203.975.769 1.95 1.741 1.746.731-.152 1.297-.899 1.226-1.604-.052-.497-.425-1.008-.896-1.24-.288-.137-.731-.17-1.024-.075ZM156.074.054c-.495.165-.943.667-1.047 1.173-.203.975.769 1.95 1.741 1.746.731-.152 1.297-.899 1.226-1.604-.052-.497-.425-1.008-.896-1.24-.288-.137-.731-.17-1.024-.075ZM156.074 162.054c-.495.165-.943.667-1.047 1.173-.203.975.769 1.949 1.741 1.746.731-.152 1.297-.899 1.226-1.604-.052-.497-.425-1.008-.896-1.239-.288-.138-.731-.171-1.024-.076ZM156.074 378.054c-.495.165-.943.667-1.047 1.173-.203.975.769 1.949 1.741 1.746.731-.152 1.297-.899 1.226-1.604-.052-.497-.425-1.008-.896-1.239-.288-.138-.731-.171-1.024-.076ZM125.074 324.054c-.495.165-.943.667-1.047 1.173-.203.975.769 1.949 1.741 1.746.731-.152 1.297-.899 1.226-1.604-.052-.497-.425-1.008-.896-1.239-.288-.138-.731-.171-1.024-.076ZM125.074 270.054c-.495.165-.943.667-1.047 1.173-.203.975.769 1.949 1.741 1.746.731-.152 1.297-.899 1.226-1.604-.052-.497-.425-1.008-.896-1.239-.288-.138-.731-.171-1.024-.076ZM125.074 216.054c-.495.165-.943.667-1.047 1.173-.203.975.769 1.949 1.741 1.746.731-.152 1.297-.899 1.226-1.604-.052-.497-.425-1.008-.896-1.239-.288-.138-.731-.171-1.024-.076ZM125.074 108.054c-.495.165-.943.667-1.047 1.173-.203.975.769 1.949 1.741 1.746.731-.152 1.297-.899 1.226-1.604-.052-.497-.425-1.008-.896-1.239-.288-.138-.731-.171-1.024-.076ZM125.074 54.054c-.495.165-.943.667-1.047 1.173-.203.975.769 1.95 1.741 1.746.731-.152 1.297-.899 1.226-1.604-.052-.497-.425-1.008-.896-1.24-.288-.137-.731-.17-1.024-.075ZM125.074.054c-.495.165-.943.667-1.047 1.173-.203.975.769 1.95 1.741 1.746.731-.152 1.297-.899 1.226-1.604-.052-.497-.425-1.008-.896-1.24-.288-.137-.731-.17-1.024-.075ZM125.074 162.054c-.495.165-.943.667-1.047 1.173-.203.975.769 1.949 1.741 1.746.731-.152 1.297-.899 1.226-1.604-.052-.497-.425-1.008-.896-1.239-.288-.138-.731-.171-1.024-.076ZM125.074 378.054c-.495.165-.943.667-1.047 1.173-.203.975.769 1.949 1.741 1.746.731-.152 1.297-.899 1.226-1.604-.052-.497-.425-1.008-.896-1.239-.288-.138-.731-.171-1.024-.076ZM191.074 324.054c-.495.165-.943.667-1.047 1.173-.203.975.769 1.949 1.741 1.746.731-.152 1.297-.899 1.226-1.604-.052-.497-.425-1.008-.896-1.239-.288-.138-.731-.171-1.024-.076ZM191.074 270.054c-.495.165-.943.667-1.047 1.173-.203.975.769 1.949 1.741 1.746.731-.152 1.297-.899 1.226-1.604-.052-.497-.425-1.008-.896-1.239-.288-.138-.731-.171-1.024-.076ZM191.074 216.054c-.495.165-.943.667-1.047 1.173-.203.975.769 1.949 1.741 1.746.731-.152 1.297-.899 1.226-1.604-.052-.497-.425-1.008-.896-1.239-.288-.138-.731-.171-1.024-.076ZM191.074 108.054c-.495.165-.943.667-1.047 1.173-.203.975.769 1.949 1.741 1.746.731-.152 1.297-.899 1.226-1.604-.052-.497-.425-1.008-.896-1.239-.288-.138-.731-.171-1.024-.076ZM191.074 54.054c-.495.165-.943.667-1.047 1.173-.203.975.769 1.95 1.741 1.746.731-.152 1.297-.899 1.226-1.604-.052-.497-.425-1.008-.896-1.24-.288-.137-.731-.17-1.024-.075ZM191.074.054c-.495.165-.943.667-1.047 1.173-.203.975.769 1.95 1.741 1.746.731-.152 1.297-.899 1.226-1.604-.052-.497-.425-1.008-.896-1.24-.288-.137-.731-.17-1.024-.075ZM191.074 162.054c-.495.165-.943.667-1.047 1.173-.203.975.769 1.949 1.741 1.746.731-.152 1.297-.899 1.226-1.604-.052-.497-.425-1.008-.896-1.239-.288-.138-.731-.171-1.024-.076ZM191.074 378.054c-.495.165-.943.667-1.047 1.173-.203.975.769 1.949 1.741 1.746.731-.152 1.297-.899 1.226-1.604-.052-.497-.425-1.008-.896-1.239-.288-.138-.731-.171-1.024-.076ZM253.074 324.054c-.495.165-.943.667-1.047 1.173-.203.975.769 1.949 1.741 1.746.731-.152 1.297-.899 1.226-1.604-.052-.497-.425-1.008-.896-1.239-.288-.138-.731-.171-1.024-.076ZM253.074 270.054c-.495.165-.943.667-1.047 1.173-.203.975.769 1.949 1.741 1.746.731-.152 1.297-.899 1.226-1.604-.052-.497-.425-1.008-.896-1.239-.288-.138-.731-.171-1.024-.076ZM253.074 216.054c-.495.165-.943.667-1.047 1.173-.203.975.769 1.949 1.741 1.746.731-.152 1.297-.899 1.226-1.604-.052-.497-.425-1.008-.896-1.239-.288-.138-.731-.171-1.024-.076ZM253.074 108.054c-.495.165-.943.667-1.047 1.173-.203.975.769 1.949 1.741 1.746.731-.152 1.297-.899 1.226-1.604-.052-.497-.425-1.008-.896-1.239-.288-.138-.731-.171-1.024-.076ZM253.074 54.054c-.495.165-.943.667-1.047 1.173-.203.975.769 1.95 1.741 1.746.731-.152 1.297-.899 1.226-1.604-.052-.497-.425-1.008-.896-1.24-.288-.137-.731-.17-1.024-.075ZM253.074.054c-.495.165-.943.667-1.047 1.173-.203.975.769 1.95 1.741 1.746.731-.152 1.297-.899 1.226-1.604-.052-.497-.425-1.008-.896-1.24-.288-.137-.731-.17-1.024-.075ZM253.074 162.054c-.495.165-.943.667-1.047 1.173-.203.975.769 1.949 1.741 1.746.731-.152 1.297-.899 1.226-1.604-.052-.497-.425-1.008-.896-1.239-.288-.138-.731-.171-1.024-.076ZM253.074 378.054c-.495.165-.943.667-1.047 1.173-.203.975.769 1.949 1.741 1.746.731-.152 1.297-.899 1.226-1.604-.052-.497-.425-1.008-.896-1.239-.288-.138-.731-.171-1.024-.076ZM222.074 324.054c-.495.165-.943.667-1.047 1.173-.203.975.769 1.949 1.741 1.746.731-.152 1.297-.899 1.226-1.604-.052-.497-.425-1.008-.896-1.239-.288-.138-.731-.171-1.024-.076ZM222.074 270.054c-.495.165-.943.667-1.047 1.173-.203.975.769 1.949 1.741 1.746.731-.152 1.297-.899 1.226-1.604-.052-.497-.425-1.008-.896-1.239-.288-.138-.731-.171-1.024-.076ZM222.074 216.054c-.495.165-.943.667-1.047 1.173-.203.975.769 1.949 1.741 1.746.731-.152 1.297-.899 1.226-1.604-.052-.497-.425-1.008-.896-1.239-.288-.138-.731-.171-1.024-.076ZM222.074 108.054c-.495.165-.943.667-1.047 1.173-.203.975.769 1.949 1.741 1.746.731-.152 1.297-.899 1.226-1.604-.052-.497-.425-1.008-.896-1.239-.288-.138-.731-.171-1.024-.076ZM222.074 54.054c-.495.165-.943.667-1.047 1.173-.203.975.769 1.95 1.741 1.746.731-.152 1.297-.899 1.226-1.604-.052-.497-.425-1.008-.896-1.24-.288-.137-.731-.17-1.024-.075ZM222.074.054c-.495.165-.943.667-1.047 1.173-.203.975.769 1.95 1.741 1.746.731-.152 1.297-.899 1.226-1.604-.052-.497-.425-1.008-.896-1.24-.288-.137-.731-.17-1.024-.075ZM222.074 162.054c-.495.165-.943.667-1.047 1.173-.203.975.769 1.949 1.741 1.746.731-.152 1.297-.899 1.226-1.604-.052-.497-.425-1.008-.896-1.239-.288-.138-.731-.171-1.024-.076ZM222.074 378.054c-.495.165-.943.667-1.047 1.173-.203.975.769 1.949 1.741 1.746.731-.152 1.297-.899 1.226-1.604-.052-.497-.425-1.008-.896-1.239-.288-.138-.731-.171-1.024-.076ZM284.074 324.054c-.495.165-.943.667-1.047 1.173-.203.975.769 1.949 1.741 1.746.731-.152 1.297-.899 1.226-1.604-.052-.497-.425-1.008-.896-1.239-.288-.138-.731-.171-1.024-.076ZM284.074 270.054c-.495.165-.943.667-1.047 1.173-.203.975.769 1.949 1.741 1.746.731-.152 1.297-.899 1.226-1.604-.052-.497-.425-1.008-.896-1.239-.288-.138-.731-.171-1.024-.076ZM284.074 216.054c-.495.165-.943.667-1.047 1.173-.203.975.769 1.949 1.741 1.746.731-.152 1.297-.899 1.226-1.604-.052-.497-.425-1.008-.896-1.239-.288-.138-.731-.171-1.024-.076ZM284.074 108.054c-.495.165-.943.667-1.047 1.173-.203.975.769 1.949 1.741 1.746.731-.152 1.297-.899 1.226-1.604-.052-.497-.425-1.008-.896-1.239-.288-.138-.731-.171-1.024-.076ZM284.074 54.054c-.495.165-.943.667-1.047 1.173-.203.975.769 1.95 1.741 1.746.731-.152 1.297-.899 1.226-1.604-.052-.497-.425-1.008-.896-1.24-.288-.137-.731-.17-1.024-.075ZM284.074.054c-.495.165-.943.667-1.047 1.173-.203.975.769 1.95 1.741 1.746.731-.152 1.297-.899 1.226-1.604-.052-.497-.425-1.008-.896-1.24-.288-.137-.731-.17-1.024-.075ZM284.074 162.054c-.495.165-.943.667-1.047 1.173-.203.975.769 1.949 1.741 1.746.731-.152 1.297-.899 1.226-1.604-.052-.497-.425-1.008-.896-1.239-.288-.138-.731-.171-1.024-.076ZM284.074 378.054c-.495.165-.943.667-1.047 1.173-.203.975.769 1.949 1.741 1.746.731-.152 1.297-.899 1.226-1.604-.052-.497-.425-1.008-.896-1.239-.288-.138-.731-.171-1.024-.076ZM346.074 324.054c-.495.165-.943.667-1.047 1.173-.203.975.769 1.949 1.741 1.746.731-.152 1.297-.899 1.226-1.604-.052-.497-.425-1.008-.896-1.239-.288-.138-.731-.171-1.024-.076ZM346.074 270.054c-.495.165-.943.667-1.047 1.173-.203.975.769 1.949 1.741 1.746.731-.152 1.297-.899 1.226-1.604-.052-.497-.425-1.008-.896-1.239-.288-.138-.731-.171-1.024-.076ZM346.074 216.054c-.495.165-.943.667-1.047 1.173-.203.975.769 1.949 1.741 1.746.731-.152 1.297-.899 1.226-1.604-.052-.497-.425-1.008-.896-1.239-.288-.138-.731-.171-1.024-.076ZM346.074 108.054c-.495.165-.943.667-1.047 1.173-.203.975.769 1.949 1.741 1.746.731-.152 1.297-.899 1.226-1.604-.052-.497-.425-1.008-.896-1.239-.288-.138-.731-.171-1.024-.076ZM346.074 54.054c-.495.165-.943.667-1.047 1.173-.203.975.769 1.95 1.741 1.746.731-.152 1.297-.899 1.226-1.604-.052-.497-.425-1.008-.896-1.24-.288-.137-.731-.17-1.024-.075ZM346.074.054c-.495.165-.943.667-1.047 1.173-.203.975.769 1.95 1.741 1.746.731-.152 1.297-.899 1.226-1.604-.052-.497-.425-1.008-.896-1.24-.288-.137-.731-.17-1.024-.075ZM346.074 162.054c-.495.165-.943.667-1.047 1.173-.203.975.769 1.949 1.741 1.746.731-.152 1.297-.899 1.226-1.604-.052-.497-.425-1.008-.896-1.239-.288-.138-.731-.171-1.024-.076ZM346.074 378.054c-.495.165-.943.667-1.047 1.173-.203.975.769 1.949 1.741 1.746.731-.152 1.297-.899 1.226-1.604-.052-.497-.425-1.008-.896-1.239-.288-.138-.731-.171-1.024-.076ZM315.074 324.054c-.495.165-.943.667-1.047 1.173-.203.975.769 1.949 1.741 1.746.731-.152 1.297-.899 1.226-1.604-.052-.497-.425-1.008-.896-1.239-.288-.138-.731-.171-1.024-.076ZM315.074 270.054c-.495.165-.943.667-1.047 1.173-.203.975.769 1.949 1.741 1.746.731-.152 1.297-.899 1.226-1.604-.052-.497-.425-1.008-.896-1.239-.288-.138-.731-.171-1.024-.076ZM315.074 216.054c-.495.165-.943.667-1.047 1.173-.203.975.769 1.949 1.741 1.746.731-.152 1.297-.899 1.226-1.604-.052-.497-.425-1.008-.896-1.239-.288-.138-.731-.171-1.024-.076ZM315.074 108.054c-.495.165-.943.667-1.047 1.173-.203.975.769 1.949 1.741 1.746.731-.152 1.297-.899 1.226-1.604-.052-.497-.425-1.008-.896-1.239-.288-.138-.731-.171-1.024-.076ZM315.074 54.054c-.495.165-.943.667-1.047 1.173-.203.975.769 1.95 1.741 1.746.731-.152 1.297-.899 1.226-1.604-.052-.497-.425-1.008-.896-1.24-.288-.137-.731-.17-1.024-.075ZM315.074.054c-.495.165-.943.667-1.047 1.173-.203.975.769 1.95 1.741 1.746.731-.152 1.297-.899 1.226-1.604-.052-.497-.425-1.008-.896-1.24-.288-.137-.731-.17-1.024-.075ZM315.074 162.054c-.495.165-.943.667-1.047 1.173-.203.975.769 1.949 1.741 1.746.731-.152 1.297-.899 1.226-1.604-.052-.497-.425-1.008-.896-1.239-.288-.138-.731-.171-1.024-.076ZM315.074 378.054c-.495.165-.943.667-1.047 1.173-.203.975.769 1.949 1.741 1.746.731-.152 1.297-.899 1.226-1.604-.052-.497-.425-1.008-.896-1.239-.288-.138-.731-.171-1.024-.076ZM377.074 324.054c-.495.165-.943.667-1.047 1.173-.203.975.769 1.949 1.741 1.746.731-.152 1.297-.899 1.226-1.604-.052-.497-.425-1.008-.896-1.239-.288-.138-.731-.171-1.024-.076ZM377.074 270.054c-.495.165-.943.667-1.047 1.173-.203.975.769 1.949 1.741 1.746.731-.152 1.297-.899 1.226-1.604-.052-.497-.425-1.008-.896-1.239-.288-.138-.731-.171-1.024-.076ZM377.074 216.054c-.495.165-.943.667-1.047 1.173-.203.975.769 1.949 1.741 1.746.731-.152 1.297-.899 1.226-1.604-.052-.497-.425-1.008-.896-1.239-.288-.138-.731-.171-1.024-.076ZM377.074 108.054c-.495.165-.943.667-1.047 1.173-.203.975.769 1.949 1.741 1.746.731-.152 1.297-.899 1.226-1.604-.052-.497-.425-1.008-.896-1.239-.288-.138-.731-.171-1.024-.076ZM377.074 54.054c-.495.165-.943.667-1.047 1.173-.203.975.769 1.95 1.741 1.746.731-.152 1.297-.899 1.226-1.604-.052-.497-.425-1.008-.896-1.24-.288-.137-.731-.17-1.024-.075ZM377.074.054c-.495.165-.943.667-1.047 1.173-.203.975.769 1.95 1.741 1.746.731-.152 1.297-.899 1.226-1.604-.052-.497-.425-1.008-.896-1.24-.288-.137-.731-.17-1.024-.075ZM377.074 162.054c-.495.165-.943.667-1.047 1.173-.203.975.769 1.949 1.741 1.746.731-.152 1.297-.899 1.226-1.604-.052-.497-.425-1.008-.896-1.239-.288-.138-.731-.171-1.024-.076ZM377.074 378.054c-.495.165-.943.667-1.047 1.173-.203.975.769 1.949 1.741 1.746.731-.152 1.297-.899 1.226-1.604-.052-.497-.425-1.008-.896-1.239-.288-.138-.731-.171-1.024-.076ZM439.074 324.054c-.495.165-.943.667-1.047 1.173-.203.975.769 1.949 1.741 1.746.731-.152 1.297-.899 1.226-1.604-.052-.497-.425-1.008-.896-1.239-.288-.138-.731-.171-1.024-.076ZM439.074 270.054c-.495.165-.943.667-1.047 1.173-.203.975.769 1.949 1.741 1.746.731-.152 1.297-.899 1.226-1.604-.052-.497-.425-1.008-.896-1.239-.288-.138-.731-.171-1.024-.076ZM439.074 216.054c-.495.165-.943.667-1.047 1.173-.203.975.769 1.949 1.741 1.746.731-.152 1.297-.899 1.226-1.604-.052-.497-.425-1.008-.896-1.239-.288-.138-.731-.171-1.024-.076ZM439.074 108.054c-.495.165-.943.667-1.047 1.173-.203.975.769 1.949 1.741 1.746.731-.152 1.297-.899 1.226-1.604-.052-.497-.425-1.008-.896-1.239-.288-.138-.731-.171-1.024-.076ZM439.074 54.054c-.495.165-.943.667-1.047 1.173-.203.975.769 1.95 1.741 1.746.731-.152 1.297-.899 1.226-1.604-.052-.497-.425-1.008-.896-1.24-.288-.137-.731-.17-1.024-.075ZM439.074.054c-.495.165-.943.667-1.047 1.173-.203.975.769 1.95 1.741 1.746.731-.152 1.297-.899 1.226-1.604-.052-.497-.425-1.008-.896-1.24-.288-.137-.731-.17-1.024-.075ZM439.074 162.054c-.495.165-.943.667-1.047 1.173-.203.975.769 1.949 1.741 1.746.731-.152 1.297-.899 1.226-1.604-.052-.497-.425-1.008-.896-1.239-.288-.138-.731-.171-1.024-.076ZM439.074 378.054c-.495.165-.943.667-1.047 1.173-.203.975.769 1.949 1.741 1.746.731-.152 1.297-.899 1.226-1.604-.052-.497-.425-1.008-.896-1.239-.288-.138-.731-.171-1.024-.076ZM408.074 324.054c-.495.165-.943.667-1.047 1.173-.203.975.769 1.949 1.741 1.746.731-.152 1.297-.899 1.226-1.604-.052-.497-.425-1.008-.896-1.239-.288-.138-.731-.171-1.024-.076ZM408.074 270.054c-.495.165-.943.667-1.047 1.173-.203.975.769 1.949 1.741 1.746.731-.152 1.297-.899 1.226-1.604-.052-.497-.425-1.008-.896-1.239-.288-.138-.731-.171-1.024-.076ZM408.074 216.054c-.495.165-.943.667-1.047 1.173-.203.975.769 1.949 1.741 1.746.731-.152 1.297-.899 1.226-1.604-.052-.497-.425-1.008-.896-1.239-.288-.138-.731-.171-1.024-.076ZM408.074 108.054c-.495.165-.943.667-1.047 1.173-.203.975.769 1.949 1.741 1.746.731-.152 1.297-.899 1.226-1.604-.052-.497-.425-1.008-.896-1.239-.288-.138-.731-.171-1.024-.076ZM408.074 54.054c-.495.165-.943.667-1.047 1.173-.203.975.769 1.95 1.741 1.746.731-.152 1.297-.899 1.226-1.604-.052-.497-.425-1.008-.896-1.24-.288-.137-.731-.17-1.024-.075ZM408.074.054c-.495.165-.943.667-1.047 1.173-.203.975.769 1.95 1.741 1.746.731-.152 1.297-.899 1.226-1.604-.052-.497-.425-1.008-.896-1.24-.288-.137-.731-.17-1.024-.075ZM408.074 162.054c-.495.165-.943.667-1.047 1.173-.203.975.769 1.949 1.741 1.746.731-.152 1.297-.899 1.226-1.604-.052-.497-.425-1.008-.896-1.239-.288-.138-.731-.171-1.024-.076ZM408.074 378.054c-.495.165-.943.667-1.047 1.173-.203.975.769 1.949 1.741 1.746.731-.152 1.297-.899 1.226-1.604-.052-.497-.425-1.008-.896-1.239-.288-.138-.731-.171-1.024-.076ZM470.074 324.054c-.495.165-.943.667-1.047 1.173-.203.975.769 1.949 1.741 1.746.731-.152 1.297-.899 1.226-1.604-.052-.497-.425-1.008-.896-1.239-.288-.138-.731-.171-1.024-.076ZM470.074 270.054c-.495.165-.943.667-1.047 1.173-.203.975.769 1.949 1.741 1.746.731-.152 1.297-.899 1.226-1.604-.052-.497-.425-1.008-.896-1.239-.288-.138-.731-.171-1.024-.076ZM470.074 216.054c-.495.165-.943.667-1.047 1.173-.203.975.769 1.949 1.741 1.746.731-.152 1.297-.899 1.226-1.604-.052-.497-.425-1.008-.896-1.239-.288-.138-.731-.171-1.024-.076ZM470.074 108.054c-.495.165-.943.667-1.047 1.173-.203.975.769 1.949 1.741 1.746.731-.152 1.297-.899 1.226-1.604-.052-.497-.425-1.008-.896-1.239-.288-.138-.731-.171-1.024-.076ZM470.074 54.054c-.495.165-.943.667-1.047 1.173-.203.975.769 1.95 1.741 1.746.731-.152 1.297-.899 1.226-1.604-.052-.497-.425-1.008-.896-1.24-.288-.137-.731-.17-1.024-.075ZM470.074.054c-.495.165-.943.667-1.047 1.173-.203.975.769 1.95 1.741 1.746.731-.152 1.297-.899 1.226-1.604-.052-.497-.425-1.008-.896-1.24-.288-.137-.731-.17-1.024-.075ZM470.074 162.054c-.495.165-.943.667-1.047 1.173-.203.975.769 1.949 1.741 1.746.731-.152 1.297-.899 1.226-1.604-.052-.497-.425-1.008-.896-1.239-.288-.138-.731-.171-1.024-.076ZM470.074 378.054c-.495.165-.943.667-1.047 1.173-.203.975.769 1.949 1.741 1.746.731-.152 1.297-.899 1.226-1.604-.052-.497-.425-1.008-.896-1.239-.288-.138-.731-.171-1.024-.076ZM532.074 324.054c-.495.165-.943.667-1.047 1.173-.203.975.769 1.949 1.741 1.746.731-.152 1.297-.899 1.226-1.604-.052-.497-.425-1.008-.896-1.239-.288-.138-.731-.171-1.024-.076ZM532.074 270.054c-.495.165-.943.667-1.047 1.173-.203.975.769 1.949 1.741 1.746.731-.152 1.297-.899 1.226-1.604-.052-.497-.425-1.008-.896-1.239-.288-.138-.731-.171-1.024-.076ZM532.074 216.054c-.495.165-.943.667-1.047 1.173-.203.975.769 1.949 1.741 1.746.731-.152 1.297-.899 1.226-1.604-.052-.497-.425-1.008-.896-1.239-.288-.138-.731-.171-1.024-.076ZM532.074 108.054c-.495.165-.943.667-1.047 1.173-.203.975.769 1.949 1.741 1.746.731-.152 1.297-.899 1.226-1.604-.052-.497-.425-1.008-.896-1.239-.288-.138-.731-.171-1.024-.076ZM532.074 54.054c-.495.165-.943.667-1.047 1.173-.203.975.769 1.95 1.741 1.746.731-.152 1.297-.899 1.226-1.604-.052-.497-.425-1.008-.896-1.24-.288-.137-.731-.17-1.024-.075ZM532.074.054c-.495.165-.943.667-1.047 1.173-.203.975.769 1.95 1.741 1.746.731-.152 1.297-.899 1.226-1.604-.052-.497-.425-1.008-.896-1.24-.288-.137-.731-.17-1.024-.075ZM532.074 162.054c-.495.165-.943.667-1.047 1.173-.203.975.769 1.949 1.741 1.746.731-.152 1.297-.899 1.226-1.604-.052-.497-.425-1.008-.896-1.239-.288-.138-.731-.171-1.024-.076ZM532.074 378.054c-.495.165-.943.667-1.047 1.173-.203.975.769 1.949 1.741 1.746.731-.152 1.297-.899 1.226-1.604-.052-.497-.425-1.008-.896-1.239-.288-.138-.731-.171-1.024-.076ZM501.074 324.054c-.495.165-.943.667-1.047 1.173-.203.975.769 1.949 1.741 1.746.731-.152 1.297-.899 1.226-1.604-.052-.497-.425-1.008-.896-1.239-.288-.138-.731-.171-1.024-.076ZM501.074 270.054c-.495.165-.943.667-1.047 1.173-.203.975.769 1.949 1.741 1.746.731-.152 1.297-.899 1.226-1.604-.052-.497-.425-1.008-.896-1.239-.288-.138-.731-.171-1.024-.076ZM501.074 216.054c-.495.165-.943.667-1.047 1.173-.203.975.769 1.949 1.741 1.746.731-.152 1.297-.899 1.226-1.604-.052-.497-.425-1.008-.896-1.239-.288-.138-.731-.171-1.024-.076ZM501.074 108.054c-.495.165-.943.667-1.047 1.173-.203.975.769 1.949 1.741 1.746.731-.152 1.297-.899 1.226-1.604-.052-.497-.425-1.008-.896-1.239-.288-.138-.731-.171-1.024-.076ZM501.074 54.054c-.495.165-.943.667-1.047 1.173-.203.975.769 1.95 1.741 1.746.731-.152 1.297-.899 1.226-1.604-.052-.497-.425-1.008-.896-1.24-.288-.137-.731-.17-1.024-.075ZM501.074.054c-.495.165-.943.667-1.047 1.173-.203.975.769 1.95 1.741 1.746.731-.152 1.297-.899 1.226-1.604-.052-.497-.425-1.008-.896-1.24-.288-.137-.731-.17-1.024-.075ZM501.074 162.054c-.495.165-.943.667-1.047 1.173-.203.975.769 1.949 1.741 1.746.731-.152 1.297-.899 1.226-1.604-.052-.497-.425-1.008-.896-1.239-.288-.138-.731-.171-1.024-.076ZM501.074 378.054c-.495.165-.943.667-1.047 1.173-.203.975.769 1.949 1.741 1.746.731-.152 1.297-.899 1.226-1.604-.052-.497-.425-1.008-.896-1.239-.288-.138-.731-.171-1.024-.076ZM567.074 324.054c-.495.165-.943.667-1.047 1.173-.203.975.769 1.949 1.741 1.746.731-.152 1.297-.899 1.226-1.604-.052-.497-.425-1.008-.896-1.239-.288-.138-.731-.171-1.024-.076ZM567.074 270.054c-.495.165-.943.667-1.047 1.173-.203.975.769 1.949 1.741 1.746.731-.152 1.297-.899 1.226-1.604-.052-.497-.425-1.008-.896-1.239-.288-.138-.731-.171-1.024-.076ZM567.074 216.054c-.495.165-.943.667-1.047 1.173-.203.975.769 1.949 1.741 1.746.731-.152 1.297-.899 1.226-1.604-.052-.497-.425-1.008-.896-1.239-.288-.138-.731-.171-1.024-.076ZM567.074 108.054c-.495.165-.943.667-1.047 1.173-.203.975.769 1.949 1.741 1.746.731-.152 1.297-.899 1.226-1.604-.052-.497-.425-1.008-.896-1.239-.288-.138-.731-.171-1.024-.076ZM567.074 54.054c-.495.165-.943.667-1.047 1.173-.203.975.769 1.95 1.741 1.746.731-.152 1.297-.899 1.226-1.604-.052-.497-.425-1.008-.896-1.24-.288-.137-.731-.17-1.024-.075ZM567.074.054c-.495.165-.943.667-1.047 1.173-.203.975.769 1.95 1.741 1.746.731-.152 1.297-.899 1.226-1.604-.052-.497-.425-1.008-.896-1.24-.288-.137-.731-.17-1.024-.075ZM567.074 162.054c-.495.165-.943.667-1.047 1.173-.203.975.769 1.949 1.741 1.746.731-.152 1.297-.899 1.226-1.604-.052-.497-.425-1.008-.896-1.239-.288-.138-.731-.171-1.024-.076ZM567.074 378.054c-.495.165-.943.667-1.047 1.173-.203.975.769 1.949 1.741 1.746.731-.152 1.297-.899 1.226-1.604-.052-.497-.425-1.008-.896-1.239-.288-.138-.731-.171-1.024-.076ZM629.074 324.054c-.495.165-.943.667-1.047 1.173-.203.975.769 1.949 1.741 1.746.731-.152 1.297-.899 1.226-1.604-.052-.497-.425-1.008-.896-1.239-.288-.138-.731-.171-1.024-.076ZM629.074 270.054c-.495.165-.943.667-1.047 1.173-.203.975.769 1.949 1.741 1.746.731-.152 1.297-.899 1.226-1.604-.052-.497-.425-1.008-.896-1.239-.288-.138-.731-.171-1.024-.076ZM629.074 216.054c-.495.165-.943.667-1.047 1.173-.203.975.769 1.949 1.741 1.746.731-.152 1.297-.899 1.226-1.604-.052-.497-.425-1.008-.896-1.239-.288-.138-.731-.171-1.024-.076ZM629.074 108.054c-.495.165-.943.667-1.047 1.173-.203.975.769 1.949 1.741 1.746.731-.152 1.297-.899 1.226-1.604-.052-.497-.425-1.008-.896-1.239-.288-.138-.731-.171-1.024-.076ZM629.074 54.054c-.495.165-.943.667-1.047 1.173-.203.975.769 1.95 1.741 1.746.731-.152 1.297-.899 1.226-1.604-.052-.497-.425-1.008-.896-1.24-.288-.137-.731-.17-1.024-.075ZM629.074.054c-.495.165-.943.667-1.047 1.173-.203.975.769 1.95 1.741 1.746.731-.152 1.297-.899 1.226-1.604-.052-.497-.425-1.008-.896-1.24-.288-.137-.731-.17-1.024-.075ZM629.074 162.054c-.495.165-.943.667-1.047 1.173-.203.975.769 1.949 1.741 1.746.731-.152 1.297-.899 1.226-1.604-.052-.497-.425-1.008-.896-1.239-.288-.138-.731-.171-1.024-.076ZM629.074 378.054c-.495.165-.943.667-1.047 1.173-.203.975.769 1.949 1.741 1.746.731-.152 1.297-.899 1.226-1.604-.052-.497-.425-1.008-.896-1.239-.288-.138-.731-.171-1.024-.076ZM598.074 324.054c-.495.165-.943.667-1.047 1.173-.203.975.769 1.949 1.741 1.746.731-.152 1.297-.899 1.226-1.604-.052-.497-.425-1.008-.896-1.239-.288-.138-.731-.171-1.024-.076ZM598.074 270.054c-.495.165-.943.667-1.047 1.173-.203.975.769 1.949 1.741 1.746.731-.152 1.297-.899 1.226-1.604-.052-.497-.425-1.008-.896-1.239-.288-.138-.731-.171-1.024-.076ZM598.074 216.054c-.495.165-.943.667-1.047 1.173-.203.975.769 1.949 1.741 1.746.731-.152 1.297-.899 1.226-1.604-.052-.497-.425-1.008-.896-1.239-.288-.138-.731-.171-1.024-.076ZM598.074 108.054c-.495.165-.943.667-1.047 1.173-.203.975.769 1.949 1.741 1.746.731-.152 1.297-.899 1.226-1.604-.052-.497-.425-1.008-.896-1.239-.288-.138-.731-.171-1.024-.076ZM598.074 54.054c-.495.165-.943.667-1.047 1.173-.203.975.769 1.95 1.741 1.746.731-.152 1.297-.899 1.226-1.604-.052-.497-.425-1.008-.896-1.24-.288-.137-.731-.17-1.024-.075ZM598.074.054c-.495.165-.943.667-1.047 1.173-.203.975.769 1.95 1.741 1.746.731-.152 1.297-.899 1.226-1.604-.052-.497-.425-1.008-.896-1.24-.288-.137-.731-.17-1.024-.075ZM598.074 162.054c-.495.165-.943.667-1.047 1.173-.203.975.769 1.949 1.741 1.746.731-.152 1.297-.899 1.226-1.604-.052-.497-.425-1.008-.896-1.239-.288-.138-.731-.171-1.024-.076ZM598.074 378.054c-.495.165-.943.667-1.047 1.173-.203.975.769 1.949 1.741 1.746.731-.152 1.297-.899 1.226-1.604-.052-.497-.425-1.008-.896-1.239-.288-.138-.731-.171-1.024-.076ZM660.074 324.054c-.495.165-.943.667-1.047 1.173-.203.975.769 1.949 1.741 1.746.731-.152 1.297-.899 1.226-1.604-.052-.497-.425-1.008-.896-1.239-.288-.138-.731-.171-1.024-.076ZM660.074 270.054c-.495.165-.943.667-1.047 1.173-.203.975.769 1.949 1.741 1.746.731-.152 1.297-.899 1.226-1.604-.052-.497-.425-1.008-.896-1.239-.288-.138-.731-.171-1.024-.076ZM660.074 216.054c-.495.165-.943.667-1.047 1.173-.203.975.769 1.949 1.741 1.746.731-.152 1.297-.899 1.226-1.604-.052-.497-.425-1.008-.896-1.239-.288-.138-.731-.171-1.024-.076ZM660.074 108.054c-.495.165-.943.667-1.047 1.173-.203.975.769 1.949 1.741 1.746.731-.152 1.297-.899 1.226-1.604-.052-.497-.425-1.008-.896-1.239-.288-.138-.731-.171-1.024-.076ZM660.074 54.054c-.495.165-.943.667-1.047 1.173-.203.975.769 1.95 1.741 1.746.731-.152 1.297-.899 1.226-1.604-.052-.497-.425-1.008-.896-1.24-.288-.137-.731-.17-1.024-.075ZM660.074.054c-.495.165-.943.667-1.047 1.173-.203.975.769 1.95 1.741 1.746.731-.152 1.297-.899 1.226-1.604-.052-.497-.425-1.008-.896-1.24-.288-.137-.731-.17-1.024-.075ZM660.074 162.054c-.495.165-.943.667-1.047 1.173-.203.975.769 1.949 1.741 1.746.731-.152 1.297-.899 1.226-1.604-.052-.497-.425-1.008-.896-1.239-.288-.138-.731-.171-1.024-.076ZM660.074 378.054c-.495.165-.943.667-1.047 1.173-.203.975.769 1.949 1.741 1.746.731-.152 1.297-.899 1.226-1.604-.052-.497-.425-1.008-.896-1.239-.288-.138-.731-.171-1.024-.076ZM722.074 324.054c-.495.165-.943.667-1.047 1.173-.203.975.769 1.949 1.741 1.746.731-.152 1.297-.899 1.226-1.604-.052-.497-.425-1.008-.896-1.239-.288-.138-.731-.171-1.024-.076ZM722.074 270.054c-.495.165-.943.667-1.047 1.173-.203.975.769 1.949 1.741 1.746.731-.152 1.297-.899 1.226-1.604-.052-.497-.425-1.008-.896-1.239-.288-.138-.731-.171-1.024-.076ZM722.074 216.054c-.495.165-.943.667-1.047 1.173-.203.975.769 1.949 1.741 1.746.731-.152 1.297-.899 1.226-1.604-.052-.497-.425-1.008-.896-1.239-.288-.138-.731-.171-1.024-.076ZM722.074 108.054c-.495.165-.943.667-1.047 1.173-.203.975.769 1.949 1.741 1.746.731-.152 1.297-.899 1.226-1.604-.052-.497-.425-1.008-.896-1.239-.288-.138-.731-.171-1.024-.076ZM722.074 54.054c-.495.165-.943.667-1.047 1.173-.203.975.769 1.95 1.741 1.746.731-.152 1.297-.899 1.226-1.604-.052-.497-.425-1.008-.896-1.24-.288-.137-.731-.17-1.024-.075ZM722.074.054c-.495.165-.943.667-1.047 1.173-.203.975.769 1.95 1.741 1.746.731-.152 1.297-.899 1.226-1.604-.052-.497-.425-1.008-.896-1.24-.288-.137-.731-.17-1.024-.075ZM722.074 162.054c-.495.165-.943.667-1.047 1.173-.203.975.769 1.949 1.741 1.746.731-.152 1.297-.899 1.226-1.604-.052-.497-.425-1.008-.896-1.239-.288-.138-.731-.171-1.024-.076ZM722.074 378.054c-.495.165-.943.667-1.047 1.173-.203.975.769 1.949 1.741 1.746.731-.152 1.297-.899 1.226-1.604-.052-.497-.425-1.008-.896-1.239-.288-.138-.731-.171-1.024-.076ZM691.074 324.054c-.495.165-.943.667-1.047 1.173-.203.975.769 1.949 1.741 1.746.731-.152 1.297-.899 1.226-1.604-.052-.497-.425-1.008-.896-1.239-.288-.138-.731-.171-1.024-.076ZM691.074 270.054c-.495.165-.943.667-1.047 1.173-.203.975.769 1.949 1.741 1.746.731-.152 1.297-.899 1.226-1.604-.052-.497-.425-1.008-.896-1.239-.288-.138-.731-.171-1.024-.076ZM691.074 216.054c-.495.165-.943.667-1.047 1.173-.203.975.769 1.949 1.741 1.746.731-.152 1.297-.899 1.226-1.604-.052-.497-.425-1.008-.896-1.239-.288-.138-.731-.171-1.024-.076ZM691.074 108.054c-.495.165-.943.667-1.047 1.173-.203.975.769 1.949 1.741 1.746.731-.152 1.297-.899 1.226-1.604-.052-.497-.425-1.008-.896-1.239-.288-.138-.731-.171-1.024-.076ZM691.074 54.054c-.495.165-.943.667-1.047 1.173-.203.975.769 1.95 1.741 1.746.731-.152 1.297-.899 1.226-1.604-.052-.497-.425-1.008-.896-1.24-.288-.137-.731-.17-1.024-.075ZM691.074.054c-.495.165-.943.667-1.047 1.173-.203.975.769 1.95 1.741 1.746.731-.152 1.297-.899 1.226-1.604-.052-.497-.425-1.008-.896-1.24-.288-.137-.731-.17-1.024-.075ZM691.074 162.054c-.495.165-.943.667-1.047 1.173-.203.975.769 1.949 1.741 1.746.731-.152 1.297-.899 1.226-1.604-.052-.497-.425-1.008-.896-1.239-.288-.138-.731-.171-1.024-.076ZM691.074 378.054c-.495.165-.943.667-1.047 1.173-.203.975.769 1.949 1.741 1.746.731-.152 1.297-.899 1.226-1.604-.052-.497-.425-1.008-.896-1.239-.288-.138-.731-.171-1.024-.076ZM753.074 324.054c-.495.165-.943.667-1.047 1.173-.203.975.769 1.949 1.741 1.746.731-.152 1.297-.899 1.226-1.604-.052-.497-.425-1.008-.896-1.239-.288-.138-.731-.171-1.024-.076ZM753.074 270.054c-.495.165-.943.667-1.047 1.173-.203.975.769 1.949 1.741 1.746.731-.152 1.297-.899 1.226-1.604-.052-.497-.425-1.008-.896-1.239-.288-.138-.731-.171-1.024-.076ZM753.074 216.054c-.495.165-.943.667-1.047 1.173-.203.975.769 1.949 1.741 1.746.731-.152 1.297-.899 1.226-1.604-.052-.497-.425-1.008-.896-1.239-.288-.138-.731-.171-1.024-.076ZM753.074 108.054c-.495.165-.943.667-1.047 1.173-.203.975.769 1.949 1.741 1.746.731-.152 1.297-.899 1.226-1.604-.052-.497-.425-1.008-.896-1.239-.288-.138-.731-.171-1.024-.076ZM753.074 54.054c-.495.165-.943.667-1.047 1.173-.203.975.769 1.95 1.741 1.746.731-.152 1.297-.899 1.226-1.604-.052-.497-.425-1.008-.896-1.24-.288-.137-.731-.17-1.024-.075ZM753.074.054c-.495.165-.943.667-1.047 1.173-.203.975.769 1.95 1.741 1.746.731-.152 1.297-.899 1.226-1.604-.052-.497-.425-1.008-.896-1.24-.288-.137-.731-.17-1.024-.075ZM753.074 162.054c-.495.165-.943.667-1.047 1.173-.203.975.769 1.949 1.741 1.746.731-.152 1.297-.899 1.226-1.604-.052-.497-.425-1.008-.896-1.239-.288-.138-.731-.171-1.024-.076ZM753.074 378.054c-.495.165-.943.667-1.047 1.173-.203.975.769 1.949 1.741 1.746.731-.152 1.297-.899 1.226-1.604-.052-.497-.425-1.008-.896-1.239-.288-.138-.731-.171-1.024-.076ZM815.074 324.054c-.495.165-.943.667-1.047 1.173-.203.975.769 1.949 1.741 1.746.731-.152 1.297-.899 1.226-1.604-.052-.497-.425-1.008-.896-1.239-.288-.138-.731-.171-1.024-.076ZM815.074 270.054c-.495.165-.943.667-1.047 1.173-.203.975.769 1.949 1.741 1.746.731-.152 1.297-.899 1.226-1.604-.052-.497-.425-1.008-.896-1.239-.288-.138-.731-.171-1.024-.076ZM815.074 216.054c-.495.165-.943.667-1.047 1.173-.203.975.769 1.949 1.741 1.746.731-.152 1.297-.899 1.226-1.604-.052-.497-.425-1.008-.896-1.239-.288-.138-.731-.171-1.024-.076ZM815.074 108.054c-.495.165-.943.667-1.047 1.173-.203.975.769 1.949 1.741 1.746.731-.152 1.297-.899 1.226-1.604-.052-.497-.425-1.008-.896-1.239-.288-.138-.731-.171-1.024-.076ZM815.074 54.054c-.495.165-.943.667-1.047 1.173-.203.975.769 1.95 1.741 1.746.731-.152 1.297-.899 1.226-1.604-.052-.497-.425-1.008-.896-1.24-.288-.137-.731-.17-1.024-.075ZM815.074.054c-.495.165-.943.667-1.047 1.173-.203.975.769 1.95 1.741 1.746.731-.152 1.297-.899 1.226-1.604-.052-.497-.425-1.008-.896-1.24-.288-.137-.731-.17-1.024-.075ZM815.074 162.054c-.495.165-.943.667-1.047 1.173-.203.975.769 1.949 1.741 1.746.731-.152 1.297-.899 1.226-1.604-.052-.497-.425-1.008-.896-1.239-.288-.138-.731-.171-1.024-.076ZM815.074 378.054c-.495.165-.943.667-1.047 1.173-.203.975.769 1.949 1.741 1.746.731-.152 1.297-.899 1.226-1.604-.052-.497-.425-1.008-.896-1.239-.288-.138-.731-.171-1.024-.076ZM784.074 324.054c-.495.165-.943.667-1.047 1.173-.203.975.769 1.949 1.741 1.746.731-.152 1.297-.899 1.226-1.604-.052-.497-.425-1.008-.896-1.239-.288-.138-.731-.171-1.024-.076ZM784.074 270.054c-.495.165-.943.667-1.047 1.173-.203.975.769 1.949 1.741 1.746.731-.152 1.297-.899 1.226-1.604-.052-.497-.425-1.008-.896-1.239-.288-.138-.731-.171-1.024-.076ZM784.074 216.054c-.495.165-.943.667-1.047 1.173-.203.975.769 1.949 1.741 1.746.731-.152 1.297-.899 1.226-1.604-.052-.497-.425-1.008-.896-1.239-.288-.138-.731-.171-1.024-.076ZM784.074 108.054c-.495.165-.943.667-1.047 1.173-.203.975.769 1.949 1.741 1.746.731-.152 1.297-.899 1.226-1.604-.052-.497-.425-1.008-.896-1.239-.288-.138-.731-.171-1.024-.076ZM784.074 54.054c-.495.165-.943.667-1.047 1.173-.203.975.769 1.95 1.741 1.746.731-.152 1.297-.899 1.226-1.604-.052-.497-.425-1.008-.896-1.24-.288-.137-.731-.17-1.024-.075ZM784.074.054c-.495.165-.943.667-1.047 1.173-.203.975.769 1.95 1.741 1.746.731-.152 1.297-.899 1.226-1.604-.052-.497-.425-1.008-.896-1.24-.288-.137-.731-.17-1.024-.075ZM784.074 162.054c-.495.165-.943.667-1.047 1.173-.203.975.769 1.949 1.741 1.746.731-.152 1.297-.899 1.226-1.604-.052-.497-.425-1.008-.896-1.239-.288-.138-.731-.171-1.024-.076ZM784.074 378.054c-.495.165-.943.667-1.047 1.173-.203.975.769 1.949 1.741 1.746.731-.152 1.297-.899 1.226-1.604-.052-.497-.425-1.008-.896-1.239-.288-.138-.731-.171-1.024-.076ZM846.074 324.054c-.495.165-.943.667-1.047 1.173-.203.975.769 1.949 1.741 1.746.731-.152 1.297-.899 1.226-1.604-.052-.497-.425-1.008-.896-1.239-.288-.138-.731-.171-1.024-.076ZM846.074 270.054c-.495.165-.943.667-1.047 1.173-.203.975.769 1.949 1.741 1.746.731-.152 1.297-.899 1.226-1.604-.052-.497-.425-1.008-.896-1.239-.288-.138-.731-.171-1.024-.076ZM846.074 216.054c-.495.165-.943.667-1.047 1.173-.203.975.769 1.949 1.741 1.746.731-.152 1.297-.899 1.226-1.604-.052-.497-.425-1.008-.896-1.239-.288-.138-.731-.171-1.024-.076ZM846.074 108.054c-.495.165-.943.667-1.047 1.173-.203.975.769 1.949 1.741 1.746.731-.152 1.297-.899 1.226-1.604-.052-.497-.425-1.008-.896-1.239-.288-.138-.731-.171-1.024-.076ZM846.074 54.054c-.495.165-.943.667-1.047 1.173-.203.975.769 1.95 1.741 1.746.731-.152 1.297-.899 1.226-1.604-.052-.497-.425-1.008-.896-1.24-.288-.137-.731-.17-1.024-.075ZM846.074.054c-.495.165-.943.667-1.047 1.173-.203.975.769 1.95 1.741 1.746.731-.152 1.297-.899 1.226-1.604-.052-.497-.425-1.008-.896-1.24-.288-.137-.731-.17-1.024-.075ZM846.074 162.054c-.495.165-.943.667-1.047 1.173-.203.975.769 1.949 1.741 1.746.731-.152 1.297-.899 1.226-1.604-.052-.497-.425-1.008-.896-1.239-.288-.138-.731-.171-1.024-.076ZM846.074 378.054c-.495.165-.943.667-1.047 1.173-.203.975.769 1.949 1.741 1.746.731-.152 1.297-.899 1.226-1.604-.052-.497-.425-1.008-.896-1.239-.288-.138-.731-.171-1.024-.076ZM908.074 324.054c-.495.165-.943.667-1.047 1.173-.203.975.769 1.949 1.741 1.746.731-.152 1.297-.899 1.226-1.604-.052-.497-.425-1.008-.896-1.239-.288-.138-.731-.171-1.024-.076ZM908.074 270.054c-.495.165-.943.667-1.047 1.173-.203.975.769 1.949 1.741 1.746.731-.152 1.297-.899 1.226-1.604-.052-.497-.425-1.008-.896-1.239-.288-.138-.731-.171-1.024-.076ZM908.074 216.054c-.495.165-.943.667-1.047 1.173-.203.975.769 1.949 1.741 1.746.731-.152 1.297-.899 1.226-1.604-.052-.497-.425-1.008-.896-1.239-.288-.138-.731-.171-1.024-.076ZM908.074 108.054c-.495.165-.943.667-1.047 1.173-.203.975.769 1.949 1.741 1.746.731-.152 1.297-.899 1.226-1.604-.052-.497-.425-1.008-.896-1.239-.288-.138-.731-.171-1.024-.076ZM908.074 54.054c-.495.165-.943.667-1.047 1.173-.203.975.769 1.95 1.741 1.746.731-.152 1.297-.899 1.226-1.604-.052-.497-.425-1.008-.896-1.24-.288-.137-.731-.17-1.024-.075ZM908.074.054c-.495.165-.943.667-1.047 1.173-.203.975.769 1.95 1.741 1.746.731-.152 1.297-.899 1.226-1.604-.052-.497-.425-1.008-.896-1.24-.288-.137-.731-.17-1.024-.075ZM908.074 162.054c-.495.165-.943.667-1.047 1.173-.203.975.769 1.949 1.741 1.746.731-.152 1.297-.899 1.226-1.604-.052-.497-.425-1.008-.896-1.239-.288-.138-.731-.171-1.024-.076ZM908.074 378.054c-.495.165-.943.667-1.047 1.173-.203.975.769 1.949 1.741 1.746.731-.152 1.297-.899 1.226-1.604-.052-.497-.425-1.008-.896-1.239-.288-.138-.731-.171-1.024-.076ZM877.074 324.054c-.495.165-.943.667-1.047 1.173-.203.975.769 1.949 1.741 1.746.731-.152 1.297-.899 1.226-1.604-.052-.497-.425-1.008-.896-1.239-.288-.138-.731-.171-1.024-.076ZM877.074 270.054c-.495.165-.943.667-1.047 1.173-.203.975.769 1.949 1.741 1.746.731-.152 1.297-.899 1.226-1.604-.052-.497-.425-1.008-.896-1.239-.288-.138-.731-.171-1.024-.076ZM877.074 216.054c-.495.165-.943.667-1.047 1.173-.203.975.769 1.949 1.741 1.746.731-.152 1.297-.899 1.226-1.604-.052-.497-.425-1.008-.896-1.239-.288-.138-.731-.171-1.024-.076ZM877.074 108.054c-.495.165-.943.667-1.047 1.173-.203.975.769 1.949 1.741 1.746.731-.152 1.297-.899 1.226-1.604-.052-.497-.425-1.008-.896-1.239-.288-.138-.731-.171-1.024-.076ZM877.074 54.054c-.495.165-.943.667-1.047 1.173-.203.975.769 1.95 1.741 1.746.731-.152 1.297-.899 1.226-1.604-.052-.497-.425-1.008-.896-1.24-.288-.137-.731-.17-1.024-.075ZM877.074.054c-.495.165-.943.667-1.047 1.173-.203.975.769 1.95 1.741 1.746.731-.152 1.297-.899 1.226-1.604-.052-.497-.425-1.008-.896-1.24-.288-.137-.731-.17-1.024-.075ZM877.074 162.054c-.495.165-.943.667-1.047 1.173-.203.975.769 1.949 1.741 1.746.731-.152 1.297-.899 1.226-1.604-.052-.497-.425-1.008-.896-1.239-.288-.138-.731-.171-1.024-.076ZM877.074 378.054c-.495.165-.943.667-1.047 1.173-.203.975.769 1.949 1.741 1.746.731-.152 1.297-.899 1.226-1.604-.052-.497-.425-1.008-.896-1.239-.288-.138-.731-.171-1.024-.076ZM943.074 324.054c-.495.165-.943.667-1.047 1.173-.203.975.769 1.949 1.741 1.746.731-.152 1.297-.899 1.226-1.604-.052-.497-.425-1.008-.896-1.239-.288-.138-.731-.171-1.024-.076ZM943.074 270.054c-.495.165-.943.667-1.047 1.173-.203.975.769 1.949 1.741 1.746.731-.152 1.297-.899 1.226-1.604-.052-.497-.425-1.008-.896-1.239-.288-.138-.731-.171-1.024-.076ZM943.074 216.054c-.495.165-.943.667-1.047 1.173-.203.975.769 1.949 1.741 1.746.731-.152 1.297-.899 1.226-1.604-.052-.497-.425-1.008-.896-1.239-.288-.138-.731-.171-1.024-.076ZM943.074 108.054c-.495.165-.943.667-1.047 1.173-.203.975.769 1.949 1.741 1.746.731-.152 1.297-.899 1.226-1.604-.052-.497-.425-1.008-.896-1.239-.288-.138-.731-.171-1.024-.076ZM943.074 54.054c-.495.165-.943.667-1.047 1.173-.203.975.769 1.95 1.741 1.746.731-.152 1.297-.899 1.226-1.604-.052-.497-.425-1.008-.896-1.24-.288-.137-.731-.17-1.024-.075ZM943.074.054c-.495.165-.943.667-1.047 1.173-.203.975.769 1.95 1.741 1.746.731-.152 1.297-.899 1.226-1.604-.052-.497-.425-1.008-.896-1.24-.288-.137-.731-.17-1.024-.075ZM943.074 162.054c-.495.165-.943.667-1.047 1.173-.203.975.769 1.949 1.741 1.746.731-.152 1.297-.899 1.226-1.604-.052-.497-.425-1.008-.896-1.239-.288-.138-.731-.171-1.024-.076ZM943.074 378.054c-.495.165-.943.667-1.047 1.173-.203.975.769 1.949 1.741 1.746.731-.152 1.297-.899 1.226-1.604-.052-.497-.425-1.008-.896-1.239-.288-.138-.731-.171-1.024-.076ZM1005.07 324.054c-.49.165-.94.667-1.04 1.173-.21.975.77 1.949 1.74 1.746.73-.152 1.29-.899 1.22-1.604-.05-.497-.42-1.008-.89-1.239a1.569 1.569 0 0 0-1.03-.076ZM1005.07 270.054c-.49.165-.94.667-1.04 1.173-.21.975.77 1.949 1.74 1.746.73-.152 1.29-.899 1.22-1.604-.05-.497-.42-1.008-.89-1.239a1.569 1.569 0 0 0-1.03-.076ZM1005.07 216.054c-.49.165-.94.667-1.04 1.173-.21.975.77 1.949 1.74 1.746.73-.152 1.29-.899 1.22-1.604-.05-.497-.42-1.008-.89-1.239a1.569 1.569 0 0 0-1.03-.076ZM1005.07 108.054c-.49.165-.94.667-1.04 1.173-.21.975.77 1.949 1.74 1.746.73-.152 1.29-.899 1.22-1.604-.05-.497-.42-1.008-.89-1.239a1.569 1.569 0 0 0-1.03-.076ZM1005.07 54.054c-.49.165-.94.667-1.04 1.173-.21.975.77 1.95 1.74 1.746.73-.152 1.29-.899 1.22-1.604-.05-.497-.42-1.008-.89-1.24-.29-.137-.73-.17-1.03-.075ZM1005.07.054c-.49.165-.94.667-1.04 1.173-.21.975.77 1.95 1.74 1.746.73-.152 1.29-.899 1.22-1.604-.05-.497-.42-1.008-.89-1.24-.29-.137-.73-.17-1.03-.075ZM1005.07 162.054c-.49.165-.94.667-1.04 1.173-.21.975.77 1.949 1.74 1.746.73-.152 1.29-.899 1.22-1.604-.05-.497-.42-1.008-.89-1.239a1.569 1.569 0 0 0-1.03-.076ZM1005.07 378.054c-.49.165-.94.667-1.04 1.173-.21.975.77 1.949 1.74 1.746.73-.152 1.29-.899 1.22-1.604-.05-.497-.42-1.008-.89-1.239a1.569 1.569 0 0 0-1.03-.076ZM974.074 324.054c-.495.165-.943.667-1.047 1.173-.203.975.769 1.949 1.741 1.746.731-.152 1.297-.899 1.226-1.604-.052-.497-.425-1.008-.896-1.239-.288-.138-.731-.171-1.024-.076ZM974.074 270.054c-.495.165-.943.667-1.047 1.173-.203.975.769 1.949 1.741 1.746.731-.152 1.297-.899 1.226-1.604-.052-.497-.425-1.008-.896-1.239-.288-.138-.731-.171-1.024-.076ZM974.074 216.054c-.495.165-.943.667-1.047 1.173-.203.975.769 1.949 1.741 1.746.731-.152 1.297-.899 1.226-1.604-.052-.497-.425-1.008-.896-1.239-.288-.138-.731-.171-1.024-.076ZM974.074 108.054c-.495.165-.943.667-1.047 1.173-.203.975.769 1.949 1.741 1.746.731-.152 1.297-.899 1.226-1.604-.052-.497-.425-1.008-.896-1.239-.288-.138-.731-.171-1.024-.076ZM974.074 54.054c-.495.165-.943.667-1.047 1.173-.203.975.769 1.95 1.741 1.746.731-.152 1.297-.899 1.226-1.604-.052-.497-.425-1.008-.896-1.24-.288-.137-.731-.17-1.024-.075ZM974.074.054c-.495.165-.943.667-1.047 1.173-.203.975.769 1.95 1.741 1.746.731-.152 1.297-.899 1.226-1.604-.052-.497-.425-1.008-.896-1.24-.288-.137-.731-.17-1.024-.075ZM974.074 162.054c-.495.165-.943.667-1.047 1.173-.203.975.769 1.949 1.741 1.746.731-.152 1.297-.899 1.226-1.604-.052-.497-.425-1.008-.896-1.239-.288-.138-.731-.171-1.024-.076ZM974.074 378.054c-.495.165-.943.667-1.047 1.173-.203.975.769 1.949 1.741 1.746.731-.152 1.297-.899 1.226-1.604-.052-.497-.425-1.008-.896-1.239-.288-.138-.731-.171-1.024-.076ZM1036.07 324.054c-.49.165-.94.667-1.04 1.173-.21.975.77 1.949 1.74 1.746.73-.152 1.29-.899 1.22-1.604-.05-.497-.42-1.008-.89-1.239a1.569 1.569 0 0 0-1.03-.076ZM1036.07 270.054c-.49.165-.94.667-1.04 1.173-.21.975.77 1.949 1.74 1.746.73-.152 1.29-.899 1.22-1.604-.05-.497-.42-1.008-.89-1.239a1.569 1.569 0 0 0-1.03-.076ZM1036.07 216.054c-.49.165-.94.667-1.04 1.173-.21.975.77 1.949 1.74 1.746.73-.152 1.29-.899 1.22-1.604-.05-.497-.42-1.008-.89-1.239a1.569 1.569 0 0 0-1.03-.076ZM1036.07 108.054c-.49.165-.94.667-1.04 1.173-.21.975.77 1.949 1.74 1.746.73-.152 1.29-.899 1.22-1.604-.05-.497-.42-1.008-.89-1.239a1.569 1.569 0 0 0-1.03-.076ZM1036.07 54.054c-.49.165-.94.667-1.04 1.173-.21.975.77 1.95 1.74 1.746.73-.152 1.29-.899 1.22-1.604-.05-.497-.42-1.008-.89-1.24-.29-.137-.73-.17-1.03-.075ZM1036.07.054c-.49.165-.94.667-1.04 1.173-.21.975.77 1.95 1.74 1.746.73-.152 1.29-.899 1.22-1.604-.05-.497-.42-1.008-.89-1.24-.29-.137-.73-.17-1.03-.075ZM1036.07 162.054c-.49.165-.94.667-1.04 1.173-.21.975.77 1.949 1.74 1.746.73-.152 1.29-.899 1.22-1.604-.05-.497-.42-1.008-.89-1.239a1.569 1.569 0 0 0-1.03-.076ZM1036.07 378.054c-.49.165-.94.667-1.04 1.173-.21.975.77 1.949 1.74 1.746.73-.152 1.29-.899 1.22-1.604-.05-.497-.42-1.008-.89-1.239a1.569 1.569 0 0 0-1.03-.076ZM1098.07 324.054c-.49.165-.94.667-1.04 1.173-.21.975.77 1.949 1.74 1.746.73-.152 1.29-.899 1.22-1.604-.05-.497-.42-1.008-.89-1.239a1.569 1.569 0 0 0-1.03-.076ZM1098.07 270.054c-.49.165-.94.667-1.04 1.173-.21.975.77 1.949 1.74 1.746.73-.152 1.29-.899 1.22-1.604-.05-.497-.42-1.008-.89-1.239a1.569 1.569 0 0 0-1.03-.076ZM1098.07 216.054c-.49.165-.94.667-1.04 1.173-.21.975.77 1.949 1.74 1.746.73-.152 1.29-.899 1.22-1.604-.05-.497-.42-1.008-.89-1.239a1.569 1.569 0 0 0-1.03-.076ZM1098.07 108.054c-.49.165-.94.667-1.04 1.173-.21.975.77 1.949 1.74 1.746.73-.152 1.29-.899 1.22-1.604-.05-.497-.42-1.008-.89-1.239a1.569 1.569 0 0 0-1.03-.076ZM1098.07 54.054c-.49.165-.94.667-1.04 1.173-.21.975.77 1.95 1.74 1.746.73-.152 1.29-.899 1.22-1.604-.05-.497-.42-1.008-.89-1.24-.29-.137-.73-.17-1.03-.075ZM1098.07.054c-.49.165-.94.667-1.04 1.173-.21.975.77 1.95 1.74 1.746.73-.152 1.29-.899 1.22-1.604-.05-.497-.42-1.008-.89-1.24-.29-.137-.73-.17-1.03-.075ZM1098.07 162.054c-.49.165-.94.667-1.04 1.173-.21.975.77 1.949 1.74 1.746.73-.152 1.29-.899 1.22-1.604-.05-.497-.42-1.008-.89-1.239a1.569 1.569 0 0 0-1.03-.076ZM1098.07 378.054c-.49.165-.94.667-1.04 1.173-.21.975.77 1.949 1.74 1.746.73-.152 1.29-.899 1.22-1.604-.05-.497-.42-1.008-.89-1.239a1.569 1.569 0 0 0-1.03-.076ZM1067.07 324.054c-.49.165-.94.667-1.04 1.173-.21.975.77 1.949 1.74 1.746.73-.152 1.29-.899 1.22-1.604-.05-.497-.42-1.008-.89-1.239a1.569 1.569 0 0 0-1.03-.076ZM1067.07 270.054c-.49.165-.94.667-1.04 1.173-.21.975.77 1.949 1.74 1.746.73-.152 1.29-.899 1.22-1.604-.05-.497-.42-1.008-.89-1.239a1.569 1.569 0 0 0-1.03-.076ZM1067.07 216.054c-.49.165-.94.667-1.04 1.173-.21.975.77 1.949 1.74 1.746.73-.152 1.29-.899 1.22-1.604-.05-.497-.42-1.008-.89-1.239a1.569 1.569 0 0 0-1.03-.076ZM1067.07 108.054c-.49.165-.94.667-1.04 1.173-.21.975.77 1.949 1.74 1.746.73-.152 1.29-.899 1.22-1.604-.05-.497-.42-1.008-.89-1.239a1.569 1.569 0 0 0-1.03-.076ZM1067.07 54.054c-.49.165-.94.667-1.04 1.173-.21.975.77 1.95 1.74 1.746.73-.152 1.29-.899 1.22-1.604-.05-.497-.42-1.008-.89-1.24-.29-.137-.73-.17-1.03-.075ZM1067.07.054c-.49.165-.94.667-1.04 1.173-.21.975.77 1.95 1.74 1.746.73-.152 1.29-.899 1.22-1.604-.05-.497-.42-1.008-.89-1.24-.29-.137-.73-.17-1.03-.075ZM1067.07 162.054c-.49.165-.94.667-1.04 1.173-.21.975.77 1.949 1.74 1.746.73-.152 1.29-.899 1.22-1.604-.05-.497-.42-1.008-.89-1.239a1.569 1.569 0 0 0-1.03-.076ZM1067.07 378.054c-.49.165-.94.667-1.04 1.173-.21.975.77 1.949 1.74 1.746.73-.152 1.29-.899 1.22-1.604-.05-.497-.42-1.008-.89-1.239a1.569 1.569 0 0 0-1.03-.076ZM1129.07 324.054c-.49.165-.94.667-1.04 1.173-.21.975.77 1.949 1.74 1.746.73-.152 1.29-.899 1.22-1.604-.05-.497-.42-1.008-.89-1.239a1.569 1.569 0 0 0-1.03-.076ZM1129.07 270.054c-.49.165-.94.667-1.04 1.173-.21.975.77 1.949 1.74 1.746.73-.152 1.29-.899 1.22-1.604-.05-.497-.42-1.008-.89-1.239a1.569 1.569 0 0 0-1.03-.076ZM1129.07 216.054c-.49.165-.94.667-1.04 1.173-.21.975.77 1.949 1.74 1.746.73-.152 1.29-.899 1.22-1.604-.05-.497-.42-1.008-.89-1.239a1.569 1.569 0 0 0-1.03-.076ZM1129.07 108.054c-.49.165-.94.667-1.04 1.173-.21.975.77 1.949 1.74 1.746.73-.152 1.29-.899 1.22-1.604-.05-.497-.42-1.008-.89-1.239a1.569 1.569 0 0 0-1.03-.076ZM1129.07 54.054c-.49.165-.94.667-1.04 1.173-.21.975.77 1.95 1.74 1.746.73-.152 1.29-.899 1.22-1.604-.05-.497-.42-1.008-.89-1.24-.29-.137-.73-.17-1.03-.075ZM1129.07.054c-.49.165-.94.667-1.04 1.173-.21.975.77 1.95 1.74 1.746.73-.152 1.29-.899 1.22-1.604-.05-.497-.42-1.008-.89-1.24-.29-.137-.73-.17-1.03-.075ZM1129.07 162.054c-.49.165-.94.667-1.04 1.173-.21.975.77 1.949 1.74 1.746.73-.152 1.29-.899 1.22-1.604-.05-.497-.42-1.008-.89-1.239a1.569 1.569 0 0 0-1.03-.076ZM1129.07 378.054c-.49.165-.94.667-1.04 1.173-.21.975.77 1.949 1.74 1.746.73-.152 1.29-.899 1.22-1.604-.05-.497-.42-1.008-.89-1.239a1.569 1.569 0 0 0-1.03-.076ZM1191.07 324.054c-.49.165-.94.667-1.04 1.173-.21.975.77 1.949 1.74 1.746.73-.152 1.29-.899 1.22-1.604-.05-.497-.42-1.008-.89-1.239a1.569 1.569 0 0 0-1.03-.076ZM1191.07 270.054c-.49.165-.94.667-1.04 1.173-.21.975.77 1.949 1.74 1.746.73-.152 1.29-.899 1.22-1.604-.05-.497-.42-1.008-.89-1.239a1.569 1.569 0 0 0-1.03-.076ZM1191.07 216.054c-.49.165-.94.667-1.04 1.173-.21.975.77 1.949 1.74 1.746.73-.152 1.29-.899 1.22-1.604-.05-.497-.42-1.008-.89-1.239a1.569 1.569 0 0 0-1.03-.076ZM1191.07 108.054c-.49.165-.94.667-1.04 1.173-.21.975.77 1.949 1.74 1.746.73-.152 1.29-.899 1.22-1.604-.05-.497-.42-1.008-.89-1.239a1.569 1.569 0 0 0-1.03-.076ZM1191.07 54.054c-.49.165-.94.667-1.04 1.173-.21.975.77 1.95 1.74 1.746.73-.152 1.29-.899 1.22-1.604-.05-.497-.42-1.008-.89-1.24-.29-.137-.73-.17-1.03-.075ZM1191.07.054c-.49.165-.94.667-1.04 1.173-.21.975.77 1.95 1.74 1.746.73-.152 1.29-.899 1.22-1.604-.05-.497-.42-1.008-.89-1.24-.29-.137-.73-.17-1.03-.075ZM1191.07 162.054c-.49.165-.94.667-1.04 1.173-.21.975.77 1.949 1.74 1.746.73-.152 1.29-.899 1.22-1.604-.05-.497-.42-1.008-.89-1.239a1.569 1.569 0 0 0-1.03-.076ZM1191.07 378.054c-.49.165-.94.667-1.04 1.173-.21.975.77 1.949 1.74 1.746.73-.152 1.29-.899 1.22-1.604-.05-.497-.42-1.008-.89-1.239a1.569 1.569 0 0 0-1.03-.076ZM1160.07 324.054c-.49.165-.94.667-1.04 1.173-.21.975.77 1.949 1.74 1.746.73-.152 1.29-.899 1.22-1.604-.05-.497-.42-1.008-.89-1.239a1.569 1.569 0 0 0-1.03-.076ZM1160.07 270.054c-.49.165-.94.667-1.04 1.173-.21.975.77 1.949 1.74 1.746.73-.152 1.29-.899 1.22-1.604-.05-.497-.42-1.008-.89-1.239a1.569 1.569 0 0 0-1.03-.076ZM1160.07 216.054c-.49.165-.94.667-1.04 1.173-.21.975.77 1.949 1.74 1.746.73-.152 1.29-.899 1.22-1.604-.05-.497-.42-1.008-.89-1.239a1.569 1.569 0 0 0-1.03-.076ZM1160.07 108.054c-.49.165-.94.667-1.04 1.173-.21.975.77 1.949 1.74 1.746.73-.152 1.29-.899 1.22-1.604-.05-.497-.42-1.008-.89-1.239a1.569 1.569 0 0 0-1.03-.076ZM1160.07 54.054c-.49.165-.94.667-1.04 1.173-.21.975.77 1.95 1.74 1.746.73-.152 1.29-.899 1.22-1.604-.05-.497-.42-1.008-.89-1.24-.29-.137-.73-.17-1.03-.075ZM1160.07.054c-.49.165-.94.667-1.04 1.173-.21.975.77 1.95 1.74 1.746.73-.152 1.29-.899 1.22-1.604-.05-.497-.42-1.008-.89-1.24-.29-.137-.73-.17-1.03-.075ZM1160.07 162.054c-.49.165-.94.667-1.04 1.173-.21.975.77 1.949 1.74 1.746.73-.152 1.29-.899 1.22-1.604-.05-.497-.42-1.008-.89-1.239a1.569 1.569 0 0 0-1.03-.076ZM1160.07 378.054c-.49.165-.94.667-1.04 1.173-.21.975.77 1.949 1.74 1.746.73-.152 1.29-.899 1.22-1.604-.05-.497-.42-1.008-.89-1.239a1.569 1.569 0 0 0-1.03-.076ZM1222.07 324.054c-.49.165-.94.667-1.04 1.173-.21.975.77 1.949 1.74 1.746.73-.152 1.29-.899 1.22-1.604-.05-.497-.42-1.008-.89-1.239a1.569 1.569 0 0 0-1.03-.076ZM1222.07 270.054c-.49.165-.94.667-1.04 1.173-.21.975.77 1.949 1.74 1.746.73-.152 1.29-.899 1.22-1.604-.05-.497-.42-1.008-.89-1.239a1.569 1.569 0 0 0-1.03-.076ZM1222.07 216.054c-.49.165-.94.667-1.04 1.173-.21.975.77 1.949 1.74 1.746.73-.152 1.29-.899 1.22-1.604-.05-.497-.42-1.008-.89-1.239a1.569 1.569 0 0 0-1.03-.076ZM1222.07 108.054c-.49.165-.94.667-1.04 1.173-.21.975.77 1.949 1.74 1.746.73-.152 1.29-.899 1.22-1.604-.05-.497-.42-1.008-.89-1.239a1.569 1.569 0 0 0-1.03-.076ZM1222.07 54.054c-.49.165-.94.667-1.04 1.173-.21.975.77 1.95 1.74 1.746.73-.152 1.29-.899 1.22-1.604-.05-.497-.42-1.008-.89-1.24-.29-.137-.73-.17-1.03-.075ZM1222.07.054c-.49.165-.94.667-1.04 1.173-.21.975.77 1.95 1.74 1.746.73-.152 1.29-.899 1.22-1.604-.05-.497-.42-1.008-.89-1.24-.29-.137-.73-.17-1.03-.075ZM1222.07 162.054c-.49.165-.94.667-1.04 1.173-.21.975.77 1.949 1.74 1.746.73-.152 1.29-.899 1.22-1.604-.05-.497-.42-1.008-.89-1.239a1.569 1.569 0 0 0-1.03-.076ZM1222.07 378.054c-.49.165-.94.667-1.04 1.173-.21.975.77 1.949 1.74 1.746.73-.152 1.29-.899 1.22-1.604-.05-.497-.42-1.008-.89-1.239a1.569 1.569 0 0 0-1.03-.076ZM1253.07 324.054c-.49.165-.94.667-1.04 1.173-.21.975.77 1.949 1.74 1.746.73-.152 1.29-.899 1.22-1.604-.05-.497-.42-1.008-.89-1.239a1.569 1.569 0 0 0-1.03-.076ZM1253.07 270.054c-.49.165-.94.667-1.04 1.173-.21.975.77 1.949 1.74 1.746.73-.152 1.29-.899 1.22-1.604-.05-.497-.42-1.008-.89-1.239a1.569 1.569 0 0 0-1.03-.076ZM1253.07 216.054c-.49.165-.94.667-1.04 1.173-.21.975.77 1.949 1.74 1.746.73-.152 1.29-.899 1.22-1.604-.05-.497-.42-1.008-.89-1.239a1.569 1.569 0 0 0-1.03-.076ZM1253.07 108.054c-.49.165-.94.667-1.04 1.173-.21.975.77 1.949 1.74 1.746.73-.152 1.29-.899 1.22-1.604-.05-.497-.42-1.008-.89-1.239a1.569 1.569 0 0 0-1.03-.076ZM1253.07 54.054c-.49.165-.94.667-1.04 1.173-.21.975.77 1.95 1.74 1.746.73-.152 1.29-.899 1.22-1.604-.05-.497-.42-1.008-.89-1.24-.29-.137-.73-.17-1.03-.075ZM1253.07.054c-.49.165-.94.667-1.04 1.173-.21.975.77 1.95 1.74 1.746.73-.152 1.29-.899 1.22-1.604-.05-.497-.42-1.008-.89-1.24-.29-.137-.73-.17-1.03-.075ZM1253.07 162.054c-.49.165-.94.667-1.04 1.173-.21.975.77 1.949 1.74 1.746.73-.152 1.29-.899 1.22-1.604-.05-.497-.42-1.008-.89-1.239a1.569 1.569 0 0 0-1.03-.076ZM1253.07 378.054c-.49.165-.94.667-1.04 1.173-.21.975.77 1.949 1.74 1.746.73-.152 1.29-.899 1.22-1.604-.05-.497-.42-1.008-.89-1.239a1.569 1.569 0 0 0-1.03-.076Z"/><path fill="#000" d="M373.009 303.909v-150h34.375v18.679h1.065c1.42-3.314 3.433-6.51 6.037-9.588 2.651-3.078 6.013-5.587 10.085-7.528 4.119-1.989 9.044-2.983 14.773-2.983 7.576 0 14.654 1.988 21.236 5.966 6.628 3.977 11.979 10.108 16.051 18.394 4.072 8.286 6.108 18.845 6.108 31.677 0 12.358-1.965 22.703-5.895 31.036-3.883 8.334-9.139 14.584-15.767 18.75-6.582 4.167-13.897 6.25-21.946 6.25-5.493 0-10.251-.899-14.276-2.698-4.025-1.8-7.41-4.167-10.156-7.103-2.699-2.935-4.782-6.084-6.25-9.446h-.71v58.594h-34.73Zm34.019-95.454c0 5.871.782 10.984 2.344 15.34 1.61 4.357 3.906 7.742 6.889 10.157 3.031 2.367 6.653 3.551 10.867 3.551 4.261 0 7.883-1.184 10.866-3.551 2.983-2.415 5.232-5.8 6.747-10.157 1.563-4.356 2.344-9.469 2.344-15.34 0-5.872-.781-10.962-2.344-15.27-1.515-4.309-3.764-7.647-6.747-10.015-2.935-2.367-6.557-3.551-10.866-3.551-4.262 0-7.884 1.16-10.867 3.48-2.983 2.321-5.279 5.635-6.889 9.944-1.562 4.308-2.344 9.446-2.344 15.412Zm128.64-90.91V263h-34.73V117.545h34.73Zm73.029 147.515c-11.458 0-21.306-2.344-29.545-7.032-8.191-4.734-14.512-11.316-18.963-19.744-4.403-8.475-6.605-18.3-6.605-29.474 0-11.222 2.202-21.047 6.605-29.475 4.451-8.475 10.772-15.057 18.963-19.744 8.239-4.735 18.087-7.102 29.545-7.102 11.459 0 21.284 2.367 29.475 7.102 8.239 4.687 14.56 11.269 18.963 19.744 4.451 8.428 6.676 18.253 6.676 29.475 0 11.174-2.225 20.999-6.676 29.474-4.403 8.428-10.724 15.01-18.963 19.744-8.191 4.688-18.016 7.032-29.475 7.032Zm.214-26.208c4.166 0 7.694-1.278 10.582-3.835 2.888-2.557 5.09-6.108 6.605-10.653 1.563-4.546 2.344-9.802 2.344-15.767 0-6.061-.781-11.364-2.344-15.909-1.515-4.546-3.717-8.097-6.605-10.654-2.888-2.557-6.416-3.835-10.582-3.835-4.309 0-7.955 1.278-10.938 3.835-2.936 2.557-5.185 6.108-6.747 10.654-1.515 4.545-2.273 9.848-2.273 15.909 0 5.965.758 11.221 2.273 15.767 1.562 4.545 3.811 8.096 6.747 10.653 2.983 2.557 6.629 3.835 10.938 3.835Zm134.694-84.943v25.568h-70.17v-25.568h70.17ZM688.065 263V148.369c0-8.428 1.587-15.412 4.759-20.951 3.172-5.588 7.576-9.754 13.21-12.5 5.635-2.794 12.145-4.191 19.531-4.191 4.83 0 9.375.379 13.637 1.137 4.308.71 7.504 1.349 9.588 1.917l-5.54 25.426c-1.278-.426-2.841-.781-4.688-1.065a32.843 32.843 0 0 0-5.113-.426c-4.072 0-6.866.9-8.381 2.699-1.515 1.799-2.273 4.261-2.273 7.386V263h-34.73Zm134.251-109.091v25.568h-70.17v-25.568h70.17ZM766.776 263V148.369c0-8.428 1.586-15.412 4.759-20.951 3.172-5.588 7.576-9.754 13.21-12.5 5.634-2.794 12.145-4.191 19.531-4.191 4.83 0 9.375.379 13.637 1.137 4.308.71 7.504 1.349 9.588 1.917l-5.54 25.426c-1.278-.426-2.841-.781-4.688-1.065a32.843 32.843 0 0 0-5.113-.426c-4.072 0-6.866.9-8.381 2.699-1.515 1.799-2.273 4.261-2.273 7.386V263h-34.73Z"/><path fill="#F7DF1D" d="M838 208h55v55h-55v-55Z"/></svg>